<?xml version="1.0" encoding="UTF-8" standalone="no"?>
<!-- Created with Inkscape (http://www.inkscape.org/) -->

<svg
   xmlns:dc="http://purl.org/dc/elements/1.1/"
   xmlns:cc="http://creativecommons.org/ns#"
   xmlns:rdf="http://www.w3.org/1999/02/22-rdf-syntax-ns#"
   xmlns:svg="http://www.w3.org/2000/svg"
   xmlns="http://www.w3.org/2000/svg"
   xmlns:sodipodi="http://sodipodi.sourceforge.net/DTD/sodipodi-0.dtd"
   xmlns:inkscape="http://www.inkscape.org/namespaces/inkscape"
   width="1439.4581"
   height="759.37952"
   id="svg2985"
   version="1.1"
   inkscape:version="0.48.4 r9939"
   sodipodi:docname="logo_large.svg"
   inkscape:export-filename="C:\Users\wilkie\occam\logo_large_dark.png"
   inkscape:export-xdpi="59.73"
   inkscape:export-ydpi="59.73">
  <defs
     id="defs2987" />
  <sodipodi:namedview
     id="base"
     pagecolor="#103942"
     bordercolor="#666666"
     borderopacity="1.0"
     inkscape:pageopacity="1"
     inkscape:pageshadow="2"
     inkscape:zoom="0.70710678"
     inkscape:cx="639.53503"
     inkscape:cy="228.03778"
     inkscape:current-layer="layer1"
     inkscape:document-units="px"
     showgrid="false"
     inkscape:window-width="1920"
     inkscape:window-height="1058"
     inkscape:window-x="-8"
     inkscape:window-y="-8"
     inkscape:window-maximized="1"
     fit-margin-top="250"
     fit-margin-left="250"
     fit-margin-right="250"
     fit-margin-bottom="250" />
  <metadata
     id="metadata2990">
    <rdf:RDF>
      <cc:Work
         rdf:about="">
        <dc:format>image/svg+xml</dc:format>
        <dc:type
           rdf:resource="http://purl.org/dc/dcmitype/StillImage" />
        <dc:title></dc:title>
      </cc:Work>
    </rdf:RDF>
  </metadata>
  <g
     id="layer1"
     inkscape:label="Layer 1"
     inkscape:groupmode="layer"
     transform="translate(221.15746,-4.2851575)">
    <g
       style="font-size:151.83480835px;font-style:normal;font-weight:normal;line-height:125%;letter-spacing:0px;word-spacing:0px;fill:#488e9c;fill-opacity:1;stroke:none;font-family:Cinzel Decorative Bold;-inkscape-font-specification:Cinzel Decorative Bold"
       id="text2993"
       inkscape:export-filename="C:\Users\wilkie\occam\logo_large.png"
       inkscape:export-xdpi="62.269939"
       inkscape:export-ydpi="62.269939"
       transform="translate(0,-116)">
      <path
         d="m 387.45352,300.70887 c -1.95872,-8.09572 -0.96378,-15.55362 2.98484,-22.37372 3.94851,-6.81992 10.84178,-10.71961 20.67983,-11.69909 11.53314,-0.34665 20.41004,4.03486 26.63072,13.14454 6.22048,9.10986 9.3657,20.6055 9.43566,34.48694 -0.19557,15.40633 -3.99904,27.56243 -11.41043,36.46835 -7.4116,8.90595 -17.25839,13.45144 -29.54042,13.63649 -12.41318,-0.15983 -22.35968,-4.96034 -29.83952,-14.40154 -7.47992,-9.44116 -11.31781,-22.564 -11.51367,-39.36854 -0.0192,-9.35876 1.24326,-18.21738 3.78728,-26.57588 2.54396,-8.35834 6.48433,-14.90112 11.82114,-19.62838 l -0.911,-1.45912 c -12.16339,3.45181 -21.777,9.72294 -28.84084,18.81343 -7.06388,9.09065 -10.67136,20.05 -10.82246,32.87807 0.32831,17.05741 6.51365,30.6193 18.55607,40.6857 12.04237,10.06643 27.97196,15.21792 47.78882,15.4545 19.76991,-0.22165 35.61587,-5.36353 47.53792,-15.42565 11.92181,-10.0621 18.03947,-23.71458 18.35298,-40.95748 -0.24482,-12.46114 -3.47654,-22.88305 -9.69515,-31.26576 -6.21887,-8.38254 -13.95652,-14.52986 -23.21299,-18.44196 -9.25668,-3.91189 -18.56406,-5.39254 -27.92218,-4.44195 -8.63713,1.05724 -15.22335,3.81832 -19.75868,8.28327 -4.53544,4.46514 -7.23373,9.6389 -8.09489,15.5213 -0.86125,5.88257 -0.0991,11.47855 2.28644,16.78794 z"
         id="path4742"
         inkscape:connector-curvature="0" />
      <path
         d="m 584.91055,324.33254 c -2.27245,14.72876 -6.59899,25.13272 -12.97963,31.2119 -6.38083,6.0792 -15.36597,9.02589 -26.95545,8.84009 -11.42684,-0.44345 -20.39364,-4.98989 -26.90042,-13.63934 -6.50686,-8.64942 -9.82131,-20.5586 -9.94334,-35.7276 0.11134,-15.06672 3.5675,-26.85912 10.36847,-35.37725 6.80089,-8.51794 16.27835,-12.8527 28.43241,-13.00428 8.42775,-0.0794 15.7006,2.07767 21.81857,6.47111 6.11779,4.39363 10.60033,11.53229 13.44765,21.41602 l 1.26325,0 -0.29759,-26.053 c -4.32898,-2.29687 -9.67628,-4.22604 -16.0419,-5.78749 -6.36581,-1.56124 -13.60342,-2.37367 -21.71286,-2.43729 -19.45705,0.17395 -34.61603,5.11459 -45.47698,14.82192 -10.86099,9.70752 -16.37859,23.13864 -16.55281,40.29341 0.23635,17.46425 5.84226,31.0145 16.81776,40.65077 10.97545,9.6363 25.90238,14.55903 44.78082,14.76822 11.38366,-0.14403 20.51057,-2.12437 27.38078,-5.94103 6.87002,-3.81666 11.96578,-8.60553 15.28729,-14.36661 l -1.46822,-26.135 z"
         id="path4744"
         inkscape:connector-curvature="0" />
      <path
         d="m 703.23493,324.33254 c -2.27244,14.72876 -6.59898,25.13272 -12.97962,31.2119 -6.38084,6.0792 -15.36598,9.02589 -26.95546,8.84009 -11.42684,-0.44345 -20.39363,-4.98989 -26.90041,-13.63934 -6.50687,-8.64942 -9.82131,-20.5586 -9.94335,-35.7276 0.11135,-15.06672 3.5675,-26.85912 10.36848,-35.37725 6.80089,-8.51794 16.27835,-12.8527 28.43241,-13.00428 8.42775,-0.0794 15.7006,2.07767 21.81857,6.47111 6.11778,4.39363 10.60033,11.53229 13.44765,21.41602 l 1.26325,0 -0.2976,-26.053 c -4.32898,-2.29687 -9.67627,-4.22604 -16.0419,-5.78749 -6.3658,-1.56124 -13.60341,-2.37367 -21.71285,-2.43729 -19.45705,0.17395 -34.61603,5.11459 -45.47698,14.82192 -10.861,9.70752 -16.3786,23.13864 -16.55281,40.29341 0.23634,17.46425 5.84226,31.0145 16.81776,40.65077 10.97545,9.6363 25.90238,14.55903 44.78082,14.76822 11.38365,-0.14403 20.51057,-2.12437 27.38078,-5.94103 6.87002,-3.81666 11.96578,-8.60553 15.28729,-14.36661 l -1.46822,-26.135 z"
         id="path4746"
         inkscape:connector-curvature="0" />
      <path
         d="m 767.05438,259.31467 -1.36802,0 c -0.40491,2.61828 -1.56029,6.19735 -3.46615,10.73724 -1.90596,4.54009 -3.24013,7.59155 -4.0025,9.15439 l -35.10983,79.36607 c -1.67353,2.99557 -3.66646,5.17532 -5.9788,6.53925 -2.31236,1.36393 -4.57783,2.0356 -6.79642,2.01501 l -1.3665,0 0,1.51833 32.55601,0 0,-1.50466 -1.33462,0 c -2.11297,-0.0174 -3.88258,-0.84653 -5.30883,-2.48741 -1.4263,-1.64087 -1.59256,-3.98908 -0.49878,-7.04466 l 7.76777,-18.76199 35.6291,0 7.47473,18.76199 c 1.01411,3.05552 0.81571,5.40348 -0.59519,7.0439 -1.41104,1.64043 -3.16875,2.46931 -5.27315,2.48665 l -1.33461,0 0,1.50466 48.37547,0 0,-1.51833 -1.26932,0 c -2.29225,0.0215 -4.60042,-0.66939 -6.92453,-2.07252 -2.32431,-1.40312 -4.33528,-3.6472 -6.03289,-6.73227 z m -22.23592,73.13334 15.55831,-37.28256 14.85229,37.28256 z"
         id="path4748"
         inkscape:connector-curvature="0" />
      <path
         d="m 941.85439,260.28185 -1.38775,0 -45.16572,77.4135 -47.11069,-77.46056 -1.40901,0 -12.57935,97.378 c -0.46779,3.02221 -1.73572,5.35783 -3.8038,7.00689 -2.0681,1.64906 -4.50286,2.48421 -7.3043,2.50543 l -2.40503,0 0,1.51833 31.7771,0 0,-1.4333 -2.36556,0 c -1.69986,-0.0691 -3.13987,-0.74205 -4.32002,-2.01881 -1.18021,-1.27675 -1.71302,-2.76541 -1.59842,-4.46597 l 5.98069,-54.63857 39.06964,65.59331 1.43178,0 c 0.33428,-3.92767 1.33612,-7.64732 3.00553,-11.15896 1.66927,-3.51164 2.61949,-5.38652 2.85066,-5.62465 l 28.43982,-49.18625 6.0065,55.01512 c 0.11373,1.70056 -0.41952,3.18921 -1.59975,4.46597 -1.18045,1.27676 -2.62052,1.94969 -4.32021,2.0188 l -2.36556,0 0,1.43331 45.6197,0 0,-1.51833 -2.41717,0 c -2.77581,-0.0212 -5.17825,-0.85637 -7.20732,-2.50543 -2.02935,-1.64906 -3.31544,-3.98469 -3.85826,-7.0069 z"
         id="path4750"
         inkscape:connector-curvature="0" />
    </g>
    <g
       style="font-size:40.70267868px;font-style:normal;font-weight:normal;line-height:125%;letter-spacing:0px;word-spacing:0px;fill:#ffffff;fill-opacity:1;stroke:none;font-family:Marcellus SC;-inkscape-font-specification:Marcellus SC"
       id="text2992"
       inkscape:export-filename="C:\Users\wilkie\occam\logo_large.png"
       inkscape:export-xdpi="62.269939"
       inkscape:export-ydpi="62.269939"
       transform="translate(0,-116)">
      <path
         d="m 392.86701,400.83621 c 2.21266,3e-5 4.25641,0.36108 6.13124,1.08315 1.87479,0.72213 3.49455,1.73572 4.85928,3.04078 1.36468,1.3051 2.43127,2.87186 3.19977,4.70028 0.76845,1.82846 1.15269,3.84902 1.15272,6.06168 -3e-5,1.25872 -0.14578,2.49756 -0.43724,3.71651 -0.29152,1.21897 -0.71882,2.37168 -1.2819,3.45813 -0.56313,1.08647 -1.25542,2.09013 -2.07687,3.01097 -0.8215,0.92085 -1.7589,1.71582 -2.81222,2.38492 -1.05336,0.6691 -2.21601,1.19246 -3.48795,1.57007 -1.27197,0.37762 -2.6433,0.56642 -4.11399,0.56642 -2.21269,0 -4.25643,-0.35442 -6.13124,-1.06327 -1.87482,-0.70886 -3.49458,-1.71251 -4.85928,-3.01097 -1.36471,-1.29845 -2.4313,-2.85859 -3.19977,-4.68041 -0.76847,-1.82181 -1.15271,-3.84568 -1.15271,-6.07161 0,-1.2587 0.14574,-2.49753 0.43724,-3.71651 0.29148,-1.21894 0.71878,-2.37828 1.28189,-3.47801 0.56311,-1.09969 1.25208,-2.10997 2.06694,-3.03084 0.81484,-0.92082 1.74893,-1.71911 2.80228,-2.39486 1.05333,-0.6757 2.21929,-1.20237 3.49789,-1.58001 1.27857,-0.37759 2.65321,-0.56639 4.12392,-0.56642 z m 1.13284,27.80422 c 1.47069,0 2.81552,-0.26499 4.0345,-0.79497 1.21894,-0.52998 2.26896,-1.29846 3.15008,-2.30543 0.88107,-1.00696 1.56674,-2.23586 2.057,-3.68669 0.49021,-1.45082 0.73532,-3.09708 0.73535,-4.93878 -3e-5,-2.04042 -0.23521,-3.93179 -0.70554,-5.67413 -0.47039,-1.74229 -1.1693,-3.25274 -2.09675,-4.53135 -0.92749,-1.27856 -2.08351,-2.2789 -3.46807,-3.00103 -1.3846,-0.72207 -2.99773,-1.08312 -4.83941,-1.08315 -1.47071,3e-5 -2.81554,0.26171 -4.03449,0.78504 -1.21897,0.52338 -2.269,1.28192 -3.15008,2.27561 -0.88111,0.99374 -1.56677,2.2127 -2.057,3.65688 -0.49024,1.44423 -0.73536,3.08717 -0.73535,4.92884 -10e-6,2.0272 0.23186,3.91858 0.6956,5.67413 0.46373,1.75558 1.15933,3.27596 2.08681,4.56117 0.92746,1.28521 2.08679,2.29549 3.47801,3.03084 1.39119,0.73535 3.00764,1.10302 4.84934,1.10302 z"
         style="text-align:center;text-anchor:middle;fill:#ffffff;fill-opacity:1"
         id="path4753"
         inkscape:connector-curvature="0" />
      <path
         d="m 416.49762,420.13421 c 0.26499,0.0398 0.52667,0.0762 0.78504,0.10931 0.25836,0.0331 0.51341,0.0497 0.76516,0.0497 0.75522,10e-6 1.44751,-0.11592 2.07687,-0.3478 0.62935,-0.23186 1.16595,-0.57966 1.60983,-1.0434 0.44384,-0.46373 0.78833,-1.05333 1.03346,-1.76882 0.24511,-0.71546 0.36767,-1.55019 0.36768,-2.50417 -10e-6,-0.76846 -0.0861,-1.46406 -0.25837,-2.08681 -0.17226,-0.62271 -0.42731,-1.156 -0.76516,-1.59988 -0.33788,-0.44384 -0.75855,-0.78833 -1.26202,-1.03347 -0.5035,-0.24509 -1.08648,-0.36765 -1.74895,-0.36767 -0.42399,2e-5 -0.79829,0.0166 -1.1229,0.0497 -0.32462,0.0331 -0.59955,0.0696 -0.82478,0.10931 -0.25175,0.053 -0.47037,0.10602 -0.65586,0.159 z m 0,1.37133 c 0,1.19247 0.0133,2.23918 0.0398,3.14015 0.0265,0.90097 0.0629,1.67938 0.10931,2.33523 0.0464,0.65586 0.10268,1.20903 0.16893,1.65951 0.0662,0.45049 0.14574,0.81485 0.2385,1.09309 l 0,0.0795 -4.59098,0 0,-0.0795 c 0.0927,-0.27824 0.17555,-0.63598 0.24843,-1.07321 0.0729,-0.43724 0.13249,-0.97716 0.17887,-1.61976 0.0464,-0.6426 0.0828,-1.40777 0.10931,-2.29549 0.0265,-0.88772 0.0397,-1.92781 0.0398,-3.12028 l 0,-5.00833 c -10e-6,-1.19245 -0.0133,-2.22923 -0.0398,-3.11034 -0.0265,-0.88108 -0.0629,-1.64293 -0.10931,-2.28555 -0.0464,-0.64259 -0.106,-1.1825 -0.17887,-1.61976 -0.0729,-0.43722 -0.15569,-0.79495 -0.24843,-1.07322 l 0,-0.0795 c 0.29149,0.0133 0.58298,0.0265 0.87447,0.0398 0.25174,0.0133 0.52004,0.0232 0.80491,0.0298 0.28486,0.007 0.55317,0.01 0.80491,0.01 0.42398,3e-5 1.05003,-0.0397 1.87813,-0.11924 0.82809,-0.0795 1.80525,-0.11923 2.93147,-0.11925 1.03345,2e-5 1.99405,0.13583 2.88178,0.40743 0.88771,0.27163 1.65287,0.67243 2.29549,1.2024 0.64259,0.53 1.14607,1.17591 1.51045,1.93774 0.36434,0.76187 0.54653,1.63966 0.54654,2.63336 -1e-5,1.16597 -0.22526,2.19613 -0.67572,3.09046 -0.45051,0.89436 -1.0633,1.64296 -1.83838,2.2458 -0.77512,0.60287 -1.68602,1.05666 -2.73273,1.36139 -1.04672,0.30475 -2.15969,0.45712 -3.33889,0.45711 -0.62274,10e-6 -1.25871,-0.0397 -1.90794,-0.11924 z"
         style="text-align:center;text-anchor:middle;fill:#ffffff;fill-opacity:1"
         id="path4755"
         inkscape:connector-curvature="0" />
      <path
         d="m 430.42955,408.44809 c 1.29845,2e-5 2.63003,-0.003 3.99474,-0.01 1.3647,-0.007 2.63003,-0.0199 3.796,-0.0398 1.16595,-0.0198 2.16961,-0.043 3.01097,-0.0696 0.84133,-0.0265 1.3945,-0.0662 1.65951,-0.11924 l -0.7751,2.14643 c -0.35776,-0.0927 -0.76187,-0.17885 -1.21234,-0.25837 -0.3975,-0.0662 -0.8778,-0.12916 -1.44089,-0.18881 -0.56312,-0.0596 -1.21566,-0.0894 -1.95762,-0.0894 -0.26501,2e-5 -0.56975,0.01 -0.91422,0.0298 -0.3445,0.0199 -0.67574,0.0431 -0.99372,0.0696 -0.371,0.0265 -0.74861,0.053 -1.13284,0.0795 l 0,7.85037 c 1.07321,-0.0132 2.04042,-0.0397 2.90166,-0.0795 0.86121,-0.0397 1.59656,-0.0927 2.20605,-0.159 0.71546,-0.053 1.34482,-0.12585 1.88806,-0.21861 l -0.47698,2.36505 c -0.72874,-0.0927 -1.46409,-0.17224 -2.20606,-0.2385 -0.63599,-0.0662 -1.33821,-0.12255 -2.10668,-0.16893 -0.76848,-0.0464 -1.50383,-0.0695 -2.20605,-0.0696 l 0,9.02296 c 1.2322,0 2.36504,-0.0497 3.39851,-0.14906 1.03346,-0.0994 1.93443,-0.20868 2.70292,-0.32793 0.90095,-0.14574 1.7158,-0.31136 2.44454,-0.49686 l -0.45711,2.60354 c -0.19876,-0.0132 -0.52006,-0.0298 -0.9639,-0.0497 -0.44388,-0.0199 -0.90761,-0.0331 -1.39121,-0.0398 -0.48362,-0.007 -0.93742,-0.0132 -1.36139,-0.0199 -0.424,-0.007 -0.71549,-0.01 -0.87447,-0.01 l -7.53238,0 0,-0.0795 c 0.0927,-0.27824 0.17555,-0.63598 0.24842,-1.07321 0.0729,-0.43724 0.1325,-0.97716 0.17887,-1.61976 0.0464,-0.6426 0.0828,-1.40777 0.10931,-2.29549 0.0265,-0.88772 0.0397,-1.92781 0.0397,-3.12028 l 0,-5.00833 c 0,-1.19245 -0.0132,-2.22923 -0.0397,-3.11034 -0.0265,-0.88108 -0.0629,-1.64293 -0.10931,-2.28555 -0.0464,-0.64259 -0.106,-1.1825 -0.17887,-1.61976 -0.0729,-0.43722 -0.15568,-0.79495 -0.24842,-1.07322 l 0,-0.0795 z"
         style="text-align:center;text-anchor:middle;fill:#ffffff;fill-opacity:1"
         id="path4757"
         inkscape:connector-curvature="0" />
      <path
         d="m 466.54125,430.09126 -0.7751,0 -15.80011,-15.54175 0,7.07527 c -1e-5,1.19247 0.007,2.23256 0.0199,3.12028 0.0133,0.88772 0.0364,1.65289 0.0696,2.29549 0.0331,0.6426 0.0795,1.18252 0.13912,1.61976 0.0596,0.43723 0.13581,0.79497 0.22856,1.07321 l 0,0.0795 -2.98115,0 0,-0.0795 c 0.0927,-0.27824 0.17224,-0.63598 0.23849,-1.07321 0.0662,-0.43724 0.11924,-0.97716 0.15899,-1.61976 0.0398,-0.6426 0.0663,-1.40777 0.0795,-2.29549 0.0133,-0.88772 0.0199,-1.92781 0.0199,-3.12028 l 0,-5.00833 c -10e-6,-1.19245 -0.007,-2.22923 -0.0199,-3.11034 -0.0132,-0.88108 -0.0397,-1.64293 -0.0795,-2.28555 -0.0397,-0.64259 -0.0927,-1.1825 -0.15899,-1.61976 -0.0663,-0.43722 -0.14575,-0.79495 -0.23849,-1.07322 l 0,-0.0795 1.23221,0 15.81998,15.62124 0,-7.45288 c -2e-5,-1.19245 -0.007,-2.22923 -0.0199,-3.11034 -0.0133,-0.88108 -0.0365,-1.64293 -0.0696,-2.28555 -0.0332,-0.64259 -0.0762,-1.1825 -0.12918,-1.61976 -0.053,-0.43722 -0.1259,-0.79495 -0.21862,-1.07322 l 0,-0.0795 2.96128,0 0,0.0795 c -0.0928,0.27827 -0.16896,0.636 -0.22856,1.07322 -0.0596,0.43726 -0.10933,0.97717 -0.14906,1.61976 -0.0398,0.64262 -0.0663,1.40447 -0.0795,2.28555 -0.0133,0.88111 -0.0199,1.91789 -0.0199,3.11034 z"
         style="text-align:center;text-anchor:middle;fill:#ffffff;fill-opacity:1"
         id="path4759"
         inkscape:connector-curvature="0" />
      <path
         d="m 507.78053,405.68555 -0.17887,0.0795 c -1.03349,-0.95394 -2.27563,-1.71579 -3.72644,-2.28555 -1.45085,-0.56971 -3.04411,-0.85457 -4.77978,-0.8546 -1.66946,3e-5 -3.19979,0.26171 -4.59098,0.78504 -1.39121,0.52338 -2.58699,1.28192 -3.58732,2.27561 -1.00035,0.99374 -1.77876,2.2127 -2.33523,3.65688 -0.55649,1.44423 -0.83473,3.08717 -0.83473,4.92884 0,2.0272 0.26499,3.91858 0.79498,5.67413 0.52997,1.75558 1.31832,3.27596 2.36504,4.56117 1.04671,1.28521 2.3551,2.29549 3.92519,3.03084 1.57006,0.73535 3.40181,1.10302 5.49526,1.10302 0.75521,0 1.51043,-0.0795 2.26568,-0.23849 0.7552,-0.15899 1.48061,-0.39417 2.17624,-0.70554 0.69558,-0.31136 1.35143,-0.68897 1.96756,-1.13284 0.61608,-0.44386 1.17587,-0.95065 1.67938,-1.52039 l 0.21862,0.13912 -1.58995,4.05437 c -0.99374,0.38424 -2.09014,0.67904 -3.2892,0.88441 -1.19911,0.20537 -2.40813,0.30805 -3.62707,0.30805 -2.45119,0 -4.69368,-0.35442 -6.72747,-1.06327 -2.03382,-0.70886 -3.78276,-1.71251 -5.24683,-3.01097 -1.46409,-1.29845 -2.60355,-2.85859 -3.41839,-4.68041 -0.81485,-1.82181 -1.22228,-3.84568 -1.22228,-6.07161 0,-1.2587 0.16231,-2.49753 0.48693,-3.71651 0.32461,-1.21894 0.79828,-2.37828 1.42101,-3.47801 0.62273,-1.09969 1.3912,-2.10997 2.30543,-3.03084 0.91421,-0.92082 1.95761,-1.71911 3.13021,-2.39486 1.17258,-0.6757 2.46441,-1.20237 3.8755,-1.58001 1.41106,-0.37759 2.93807,-0.56639 4.58104,-0.56642 2.55714,3e-5 4.92881,0.39089 7.11502,1.17259 z"
         style="text-align:center;text-anchor:middle;fill:#ffffff;fill-opacity:1"
         id="path4761"
         inkscape:connector-curvature="0" />
      <path
         d="m 528.42999,416.53695 c -2e-5,-1.1792 -0.007,-2.20604 -0.0199,-3.08053 -0.0133,-0.87445 -0.0398,-1.62967 -0.0795,-2.26567 -0.0398,-0.63596 -0.0861,-1.16926 -0.13912,-1.59989 -0.053,-0.43059 -0.11927,-0.78501 -0.19874,-1.06328 l 0,-0.0795 2.92153,0 0,0.0795 c -0.0795,0.27827 -0.14577,0.636 -0.19875,1.07322 -0.053,0.43726 -0.0994,0.97717 -0.13912,1.61976 -0.0398,0.64262 -0.0663,1.40447 -0.0795,2.28555 -0.0133,0.88111 -0.0199,1.91789 -0.0199,3.11034 l 0,5.70394 c -2e-5,1.43096 -0.22195,2.64992 -0.66579,3.65688 -0.44388,1.00697 -1.05667,1.83175 -1.83838,2.47436 -0.78174,0.6426 -1.71252,1.11296 -2.79235,1.41107 -1.07985,0.29812 -2.26237,0.44718 -3.54757,0.44718 -1.29847,0 -2.50418,-0.14244 -3.61713,-0.4273 -1.11297,-0.28487 -2.07688,-0.73866 -2.89172,-1.36139 -0.81485,-0.62273 -1.45746,-1.43096 -1.92781,-2.42468 -0.47036,-0.99371 -0.70554,-2.19942 -0.70554,-3.61713 l 0,-5.86293 c 0,-1.19245 -0.0132,-2.22923 -0.0398,-3.11034 -0.0265,-0.88108 -0.0662,-1.64293 -0.11925,-2.28555 -0.053,-0.64259 -0.11262,-1.1825 -0.17887,-1.61976 -0.0662,-0.43722 -0.14574,-0.79495 -0.23849,-1.07322 l 0,-0.0795 4.59098,0 0,0.0795 c -0.0928,0.27827 -0.17225,0.63269 -0.23849,1.06328 -0.0663,0.43063 -0.12257,0.96393 -0.16894,1.59989 -0.0464,0.636 -0.0828,1.39122 -0.1093,2.26567 -0.0265,0.87449 -0.0398,1.90133 -0.0398,3.08053 l 0,5.94243 c -1e-5,1.17922 0.17886,2.14975 0.5366,2.91159 0.35774,0.76186 0.82809,1.36803 1.41108,1.81851 0.58298,0.45049 1.24545,0.76516 1.98744,0.94403 0.74196,0.17887 1.50381,0.26831 2.28555,0.2683 0.79496,1e-5 1.56675,-0.0894 2.31536,-0.2683 0.74859,-0.17887 1.41769,-0.49354 2.00731,-0.94403 0.58959,-0.45048 1.05995,-1.05665 1.41108,-1.81851 0.3511,-0.76184 0.52665,-1.73237 0.52667,-2.91159 z"
         style="text-align:center;text-anchor:middle;fill:#ffffff;fill-opacity:1"
         id="path4763"
         inkscape:connector-curvature="0" />
      <path
         d="m 540.11612,419.43861 c 0.26498,0.0398 0.53328,0.0696 0.80491,0.0894 0.27161,0.0199 0.53328,0.0298 0.78503,0.0298 1.65619,10e-6 2.91159,-0.44385 3.76619,-1.33158 0.85459,-0.88771 1.28189,-2.21929 1.2819,-3.99475 -10e-6,-1.45743 -0.34119,-2.61014 -1.02353,-3.45813 -0.68236,-0.84796 -1.68602,-1.27194 -3.01096,-1.27196 -0.424,2e-5 -0.7983,0.0166 -1.1229,0.0497 -0.32463,0.0331 -0.59956,0.0696 -0.82479,0.10931 -0.25175,0.053 -0.47037,0.10602 -0.65585,0.159 z m 3.04077,1.29183 c -0.265,0.0398 -0.52668,0.0629 -0.78503,0.0696 -0.25838,0.007 -0.52006,0.01 -0.78504,0.01 -0.212,10e-6 -0.44387,-0.007 -0.6956,-0.0199 -0.25175,-0.0132 -0.51012,-0.0331 -0.7751,-0.0596 l 0,0.97384 c -10e-6,1.17922 0.0132,2.20937 0.0397,3.09046 0.0265,0.8811 0.0629,1.63964 0.10931,2.27562 0.0464,0.63598 0.10268,1.16927 0.16894,1.59988 0.0662,0.43062 0.14573,0.78504 0.23849,1.06328 l 0,0.0795 -4.59098,0 0,-0.0795 c 0.0927,-0.27824 0.17556,-0.63598 0.24843,-1.07321 0.0729,-0.43724 0.13249,-0.97716 0.17887,-1.61976 0.0464,-0.6426 0.0828,-1.40777 0.10931,-2.29549 0.0265,-0.88772 0.0397,-1.92781 0.0397,-3.12028 l 0,-5.00833 c 0,-1.19245 -0.0132,-2.22923 -0.0397,-3.11034 -0.0265,-0.88108 -0.0629,-1.64293 -0.10931,-2.28555 -0.0464,-0.64259 -0.106,-1.1825 -0.17887,-1.61976 -0.0729,-0.43722 -0.15568,-0.79495 -0.24843,-1.07322 l 0,-0.0795 c 0.21199,0.0133 0.43723,0.0265 0.67573,0.0398 0.19874,0.0133 0.42067,0.0232 0.66579,0.0298 0.24511,0.007 0.49354,0.01 0.74529,0.01 0.42398,3e-5 1.05333,-0.0397 1.88806,-0.11924 0.83472,-0.0795 1.81519,-0.11923 2.94141,-0.11925 1.13945,2e-5 2.17623,0.13914 3.11033,0.41736 0.93409,0.27827 1.73568,0.67575 2.4048,1.19247 0.66909,0.51675 1.18582,1.1461 1.5502,1.88806 0.36435,0.74199 0.54653,1.57009 0.54655,2.48429 -2e-5,0.71549 -0.0994,1.36804 -0.29812,1.95763 -0.19876,0.58962 -0.477,1.1196 -0.83472,1.58995 -0.35776,0.47037 -0.78174,0.88442 -1.27196,1.24214 -0.49025,0.35775 -1.03348,0.66912 -1.6297,0.9341 l 4.15374,5.86293 c 0.35772,0.47699 0.71877,0.9341 1.08315,1.37133 0.36435,0.43724 0.71215,0.8281 1.04341,1.17259 0.33122,0.34449 0.64258,0.63267 0.93409,0.86453 0.29147,0.23187 0.53659,0.38755 0.73535,0.46705 l 0,0.0795 -5.20708,0 c -10e-6,-0.11925 -0.0828,-0.32793 -0.24843,-0.62604 -0.16563,-0.29812 -0.35775,-0.60948 -0.57635,-0.9341 -0.21864,-0.32461 -0.43725,-0.63929 -0.65586,-0.94403 -0.21863,-0.30474 -0.38094,-0.52998 -0.48692,-0.67573 z"
         style="text-align:center;text-anchor:middle;fill:#ffffff;fill-opacity:1"
         id="path4765"
         inkscape:connector-curvature="0" />
      <path
         d="m 569.41091,423.09549 c -0.35775,0 -0.80493,0 -1.34152,0 -0.53662,0 -1.12291,0 -1.75888,0 -0.63599,0 -1.29184,0 -1.96756,0 -0.67574,0 -1.31834,0.003 -1.92781,0.01 -0.60949,0.007 -1.16597,0.0133 -1.66945,0.0199 -0.50349,0.007 -0.89435,0.01 -1.17259,0.01 l -0.73535,1.5502 c -0.31799,0.63598 -0.58961,1.18915 -0.81485,1.6595 -0.22524,0.47037 -0.41074,0.88442 -0.55648,1.24215 -0.14575,0.35774 -0.25174,0.66579 -0.31799,0.92416 -0.0662,0.25837 -0.0994,0.50017 -0.0994,0.72541 0,0.14575 0.007,0.25506 0.0199,0.32793 0.0132,0.0729 0.0331,0.12918 0.0596,0.16893 l 0,0.0795 -3.49789,0 0,-0.0795 c 0.0928,-0.0928 0.23849,-0.2948 0.43724,-0.60617 0.19874,-0.31136 0.4273,-0.69229 0.68566,-1.14277 0.25837,-0.45048 0.53661,-0.96059 0.83473,-1.53033 0.29811,-0.56972 0.59291,-1.15933 0.8844,-1.76881 l 8.10874,-16.73421 1.49058,0 7.94974,16.73421 c 0.30472,0.63598 0.61277,1.24546 0.92416,1.82844 0.31134,0.58298 0.59952,1.10302 0.86453,1.56013 0.26497,0.45711 0.49684,0.83473 0.6956,1.13284 0.19872,0.29812 0.33122,0.47367 0.39749,0.52667 l 0,0.0795 -5.08783,0 c 0.0265,-0.106 0.0397,-0.20206 0.0397,-0.28818 -10e-6,-0.0861 -10e-6,-0.18218 0,-0.28818 -10e-6,-0.29149 -0.063,-0.6426 -0.1888,-1.05334 -0.12589,-0.41073 -0.27826,-0.83141 -0.45711,-1.26202 -0.17889,-0.43061 -0.36438,-0.84466 -0.55648,-1.24215 -0.19214,-0.39748 -0.34782,-0.72872 -0.46705,-0.99371 z m -9.06271,-1.5502 1.21234,0 c 0.55647,10e-6 1.14939,-0.003 1.77875,-0.01 0.62935,-0.007 1.26201,-0.01 1.898,-0.01 0.63597,1e-5 1.25208,-0.003 1.84832,-0.01 0.59622,-0.007 1.13282,-0.01 1.60982,-0.01 l -4.11399,-8.78447 z"
         style="text-align:center;text-anchor:middle;fill:#ffffff;fill-opacity:1"
         id="path4767"
         inkscape:connector-curvature="0" />
      <path
         d="m 584.79365,409.91879 c -1.20572,2e-5 -2.30212,0.053 -3.2892,0.15899 -0.9871,0.10602 -1.83838,0.21864 -2.55386,0.33787 -0.82147,0.14576 -1.56345,0.30476 -2.22593,0.47698 l 0.39749,-2.56379 c 0.19874,0.0265 0.52336,0.0464 0.97384,0.0596 0.45049,0.0133 0.92416,0.0232 1.42102,0.0298 0.49686,0.007 0.96722,0.0133 1.41108,0.0199 0.44386,0.007 0.75191,0.01 0.92416,0.01 l 9.40057,0 c 0.15898,2e-5 0.45378,-0.003 0.88441,-0.01 0.43059,-0.007 0.89101,-0.0132 1.38126,-0.0199 0.49022,-0.007 0.96058,-0.0165 1.41108,-0.0298 0.45047,-0.0132 0.77508,-0.0331 0.97385,-0.0596 l 0.39748,2.56379 c -0.636,-0.17222 -1.36472,-0.33122 -2.18618,-0.47698 -0.70224,-0.11923 -1.5469,-0.23185 -2.53398,-0.33787 -0.9871,-0.10597 -2.09675,-0.15897 -3.32895,-0.15899 l 0,11.70599 c -10e-6,1.19247 0.0132,2.23256 0.0398,3.12028 0.0265,0.88772 0.0629,1.65289 0.10931,2.29549 0.0464,0.6426 0.10267,1.18252 0.16893,1.61976 0.0662,0.43723 0.14573,0.79497 0.23849,1.07321 l 0,0.0795 -4.59097,0 0,-0.0795 c 0.0927,-0.27824 0.17223,-0.63598 0.23849,-1.07321 0.0662,-0.43724 0.12586,-0.97716 0.17887,-1.61976 0.053,-0.6426 0.0927,-1.40777 0.11924,-2.29549 0.0265,-0.88772 0.0397,-1.92781 0.0397,-3.12028 z"
         style="text-align:center;text-anchor:middle;fill:#ffffff;fill-opacity:1"
         id="path4769"
         inkscape:connector-curvature="0" />
      <path
         d="m 599.61992,416.61645 c 0,-1.19245 -0.0132,-2.22923 -0.0398,-3.11034 -0.0265,-0.88108 -0.0629,-1.64293 -0.10931,-2.28555 -0.0464,-0.64259 -0.106,-1.1825 -0.17887,-1.61976 -0.0729,-0.43722 -0.15568,-0.79495 -0.24843,-1.07322 l 0,-0.0795 4.61086,0 0,0.0795 c -0.0928,0.27827 -0.17557,0.636 -0.24843,1.07322 -0.0729,0.43726 -0.13251,0.97717 -0.17887,1.61976 -0.0464,0.64262 -0.0828,1.40447 -0.10931,2.28555 -0.0265,0.88111 -0.0398,1.91789 -0.0397,3.11034 l 0,5.00833 c -1e-5,1.19247 0.0132,2.23256 0.0397,3.12028 0.0265,0.88772 0.0629,1.65289 0.10931,2.29549 0.0464,0.6426 0.10599,1.18252 0.17887,1.61976 0.0729,0.43723 0.15567,0.79497 0.24843,1.07321 l 0,0.0795 -4.61086,0 0,-0.0795 c 0.0928,-0.27824 0.17556,-0.63598 0.24843,-1.07321 0.0729,-0.43724 0.1325,-0.97716 0.17887,-1.61976 0.0464,-0.6426 0.0828,-1.40777 0.10931,-2.29549 0.0265,-0.88772 0.0398,-1.92781 0.0398,-3.12028 z"
         style="text-align:center;text-anchor:middle;fill:#ffffff;fill-opacity:1"
         id="path4771"
         inkscape:connector-curvature="0" />
      <path
         d="m 608.0864,419.06099 c 0,-1.56343 0.2948,-3.01426 0.88441,-4.35248 0.5896,-1.33819 1.39452,-2.50084 2.41474,-3.48795 1.02021,-0.98707 2.22592,-1.75886 3.61713,-2.31536 1.39119,-0.55646 2.88177,-0.8347 4.47173,-0.83473 1.56343,3e-5 3.03745,0.26171 4.42204,0.78504 1.38456,0.52338 2.59027,1.26867 3.61713,2.23587 1.02682,0.96723 1.83836,2.13982 2.43461,3.51776 0.59621,1.37797 0.89432,2.92154 0.89435,4.63072 -3e-5,1.41772 -0.25177,2.78573 -0.75523,4.10406 -0.5035,1.31833 -1.23885,2.48429 -2.20605,3.49788 -0.96724,1.0136 -2.1597,1.82182 -3.57738,2.42467 -1.41772,0.60286 -3.04079,0.90429 -4.86922,0.90429 -1.55021,0 -3.01429,-0.25837 -4.39223,-0.7751 -1.37797,-0.51673 -2.58367,-1.2554 -3.61714,-2.21599 -1.03347,-0.96059 -1.84831,-2.12655 -2.44454,-3.49789 -0.59623,-1.37132 -0.89435,-2.91158 -0.89435,-4.62079 z m 11.84512,9.69869 c 1.00695,0 1.93442,-0.19874 2.78241,-0.59623 0.84795,-0.39749 1.57999,-0.96722 2.19611,-1.7092 0.61609,-0.74197 1.09307,-1.64625 1.43096,-2.71285 0.33784,-1.06658 0.50677,-2.26898 0.50679,-3.60719 -2e-5,-1.52369 -0.16232,-2.93477 -0.48692,-4.23324 -0.32463,-1.29844 -0.81487,-2.42134 -1.4707,-3.3687 -0.65587,-0.94733 -1.47403,-1.6893 -2.45448,-2.22593 -0.98049,-0.53659 -2.12657,-0.80489 -3.43827,-0.80491 -1.00698,2e-5 -1.93444,0.19214 -2.78241,0.57635 -0.84798,0.38426 -1.58002,0.94074 -2.19611,1.66945 -0.61611,0.72874 -1.09641,1.62309 -1.44089,2.68304 -0.3445,1.05998 -0.51674,2.26569 -0.51674,3.61713 0,1.51046 0.16893,2.91823 0.5068,4.2233 0.33786,1.30509 0.83472,2.43793 1.49058,3.39852 0.65584,0.96059 1.474,1.71582 2.45448,2.26567 0.98046,0.54986 2.11992,0.82479 3.41839,0.82479 z"
         style="text-align:center;text-anchor:middle;fill:#ffffff;fill-opacity:1"
         id="path4773"
         inkscape:connector-curvature="0" />
      <path
         d="m 653.99615,430.09126 -0.7751,0 -15.80011,-15.54175 0,7.07527 c 0,1.19247 0.007,2.23256 0.0199,3.12028 0.0132,0.88772 0.0364,1.65289 0.0696,2.29549 0.0331,0.6426 0.0795,1.18252 0.13912,1.61976 0.0596,0.43723 0.1358,0.79497 0.22855,1.07321 l 0,0.0795 -2.98115,0 0,-0.0795 c 0.0927,-0.27824 0.17224,-0.63598 0.23849,-1.07321 0.0662,-0.43724 0.11924,-0.97716 0.159,-1.61976 0.0397,-0.6426 0.0662,-1.40777 0.0795,-2.29549 0.0132,-0.88772 0.0199,-1.92781 0.0199,-3.12028 l 0,-5.00833 c -1e-5,-1.19245 -0.007,-2.22923 -0.0199,-3.11034 -0.0132,-0.88108 -0.0398,-1.64293 -0.0795,-2.28555 -0.0398,-0.64259 -0.0928,-1.1825 -0.159,-1.61976 -0.0663,-0.43722 -0.14575,-0.79495 -0.23849,-1.07322 l 0,-0.0795 1.23221,0 15.81999,15.62124 0,-7.45288 c -2e-5,-1.19245 -0.007,-2.22923 -0.0199,-3.11034 -0.0133,-0.88108 -0.0364,-1.64293 -0.0696,-2.28555 -0.0331,-0.64259 -0.0762,-1.1825 -0.12918,-1.61976 -0.053,-0.43722 -0.12589,-0.79495 -0.21862,-1.07322 l 0,-0.0795 2.96128,0 0,0.0795 c -0.0928,0.27827 -0.16896,0.636 -0.22856,1.07322 -0.0596,0.43726 -0.10933,0.97717 -0.14905,1.61976 -0.0398,0.64262 -0.0663,1.40447 -0.0795,2.28555 -0.0133,0.88111 -0.0199,1.91789 -0.0199,3.11034 z"
         style="text-align:center;text-anchor:middle;fill:#ffffff;fill-opacity:1"
         id="path4775"
         inkscape:connector-curvature="0" />
      <path
         d="m 675.9772,421.62478 c -1e-5,1.19247 0.0132,2.23256 0.0397,3.12028 0.0265,0.88772 0.0629,1.65289 0.10931,2.29549 0.0464,0.6426 0.10267,1.18252 0.16893,1.61976 0.0662,0.43723 0.14574,0.79497 0.23849,1.07321 l 0,0.0795 -4.59097,0 0,-0.0795 c 0.0927,-0.27824 0.17555,-0.63598 0.24843,-1.07321 0.0729,-0.43724 0.13249,-0.97716 0.17886,-1.61976 0.0464,-0.6426 0.0828,-1.40777 0.10931,-2.29549 0.0265,-0.88772 0.0397,-1.92781 0.0397,-3.12028 l 0,-5.00833 c 0,-1.19245 -0.0132,-2.22923 -0.0397,-3.11034 -0.0265,-0.88108 -0.0629,-1.64293 -0.10931,-2.28555 -0.0464,-0.64259 -0.10599,-1.1825 -0.17886,-1.61976 -0.0729,-0.43722 -0.15569,-0.79495 -0.24843,-1.07322 l 0,-0.0795 c 0.86121,2e-5 1.75225,2e-5 2.6731,0 0.92084,2e-5 1.82843,-0.003 2.72278,-0.01 0.89434,-0.007 1.74894,-0.0165 2.5638,-0.0298 0.81483,-0.0132 1.55018,-0.0298 2.20605,-0.0497 0.65584,-0.0199 1.21563,-0.0397 1.67938,-0.0596 0.46372,-0.0199 0.78834,-0.0497 0.97384,-0.0894 l -0.81484,2.14643 c -0.34451,-0.0927 -0.74199,-0.17885 -1.19246,-0.25837 -0.38426,-0.0662 -0.86455,-0.12916 -1.4409,-0.18881 -0.57636,-0.0596 -1.2289,-0.0894 -1.95762,-0.0894 -0.265,2e-5 -0.5863,0.01 -0.96391,0.0298 -0.37762,0.0199 -0.74529,0.0431 -1.10302,0.0696 -0.424,0.0265 -0.86123,0.053 -1.31171,0.0795 l 0,7.23426 c 1.07321,-0.0132 2.05367,-0.043 2.9414,-0.0894 0.88772,-0.0464 1.65619,-0.096 2.30543,-0.14906 0.75521,-0.053 1.43094,-0.11923 2.02718,-0.19874 l -0.43723,2.38492 c -0.78174,-0.0927 -1.57009,-0.17886 -2.36505,-0.25837 -0.67574,-0.0662 -1.4144,-0.12586 -2.21599,-0.17887 -0.80161,-0.053 -1.55352,-0.0795 -2.25574,-0.0795 z"
         style="text-align:center;text-anchor:middle;fill:#ffffff;fill-opacity:1"
         id="path4777"
         inkscape:connector-curvature="0" />
      <path
         d="m 686.86834,419.06099 c 0,-1.56343 0.2948,-3.01426 0.88441,-4.35248 0.5896,-1.33819 1.39451,-2.50084 2.41473,-3.48795 1.02021,-0.98707 2.22592,-1.75886 3.61713,-2.31536 1.3912,-0.55646 2.88178,-0.8347 4.47173,-0.83473 1.56344,3e-5 3.03745,0.26171 4.42205,0.78504 1.38456,0.52338 2.59027,1.26867 3.61713,2.23587 1.02682,0.96723 1.83836,2.13982 2.43461,3.51776 0.59621,1.37797 0.89432,2.92154 0.89435,4.63072 -3e-5,1.41772 -0.25177,2.78573 -0.75523,4.10406 -0.50351,1.31833 -1.23886,2.48429 -2.20605,3.49788 -0.96724,1.0136 -2.1597,1.82182 -3.57739,2.42467 -1.41772,0.60286 -3.04079,0.90429 -4.86921,0.90429 -1.55021,0 -3.01429,-0.25837 -4.39224,-0.7751 -1.37796,-0.51673 -2.58367,-1.2554 -3.61713,-2.21599 -1.03347,-0.96059 -1.84832,-2.12655 -2.44454,-3.49789 -0.59624,-1.37132 -0.89435,-2.91158 -0.89435,-4.62079 z m 11.84511,9.69869 c 1.00696,0 1.93443,-0.19874 2.78241,-0.59623 0.84796,-0.39749 1.58,-0.96722 2.19612,-1.7092 0.61609,-0.74197 1.09307,-1.64625 1.43095,-2.71285 0.33785,-1.06658 0.50678,-2.26898 0.5068,-3.60719 -2e-5,-1.52369 -0.16233,-2.93477 -0.48692,-4.23324 -0.32464,-1.29844 -0.81487,-2.42134 -1.4707,-3.3687 -0.65587,-0.94733 -1.47403,-1.6893 -2.45449,-2.22593 -0.98048,-0.53659 -2.12657,-0.80489 -3.43826,-0.80491 -1.00698,2e-5 -1.93445,0.19214 -2.78241,0.57635 -0.84798,0.38426 -1.58002,0.94074 -2.19612,1.66945 -0.61611,0.72874 -1.0964,1.62309 -1.44089,2.68304 -0.34449,1.05998 -0.51674,2.26569 -0.51673,3.61713 -10e-6,1.51046 0.16893,2.91823 0.5068,4.2233 0.33785,1.30509 0.83471,2.43793 1.49057,3.39852 0.65585,0.96059 1.47401,1.71582 2.45449,2.26567 0.98045,0.54986 2.11992,0.82479 3.41838,0.82479 z"
         style="text-align:center;text-anchor:middle;fill:#ffffff;fill-opacity:1"
         id="path4779"
         inkscape:connector-curvature="0" />
      <path
         d="m 717.71335,419.43861 c 0.26498,0.0398 0.53328,0.0696 0.80491,0.0894 0.2716,0.0199 0.53328,0.0298 0.78503,0.0298 1.65619,10e-6 2.91159,-0.44385 3.76619,-1.33158 0.85459,-0.88771 1.28189,-2.21929 1.2819,-3.99475 -10e-6,-1.45743 -0.34119,-2.61014 -1.02353,-3.45813 -0.68236,-0.84796 -1.68602,-1.27194 -3.01096,-1.27196 -0.424,2e-5 -0.7983,0.0166 -1.12291,0.0497 -0.32462,0.0331 -0.59955,0.0696 -0.82478,0.10931 -0.25175,0.053 -0.47037,0.10602 -0.65585,0.159 z m 3.04077,1.29183 c -0.265,0.0398 -0.52668,0.0629 -0.78504,0.0696 -0.25837,0.007 -0.52005,0.01 -0.78503,0.01 -0.212,10e-6 -0.44387,-0.007 -0.69561,-0.0199 -0.25174,-0.0132 -0.51011,-0.0331 -0.77509,-0.0596 l 0,0.97384 c -10e-6,1.17922 0.0132,2.20937 0.0397,3.09046 0.0265,0.8811 0.0629,1.63964 0.10931,2.27562 0.0464,0.63598 0.10268,1.16927 0.16893,1.59988 0.0662,0.43062 0.14574,0.78504 0.2385,1.06328 l 0,0.0795 -4.59098,0 0,-0.0795 c 0.0928,-0.27824 0.17556,-0.63598 0.24843,-1.07321 0.0729,-0.43724 0.13249,-0.97716 0.17887,-1.61976 0.0464,-0.6426 0.0828,-1.40777 0.10931,-2.29549 0.0265,-0.88772 0.0397,-1.92781 0.0398,-3.12028 l 0,-5.00833 c -10e-6,-1.19245 -0.0133,-2.22923 -0.0398,-3.11034 -0.0265,-0.88108 -0.0629,-1.64293 -0.10931,-2.28555 -0.0464,-0.64259 -0.106,-1.1825 -0.17887,-1.61976 -0.0729,-0.43722 -0.15568,-0.79495 -0.24843,-1.07322 l 0,-0.0795 c 0.21199,0.0133 0.43723,0.0265 0.67573,0.0398 0.19874,0.0133 0.42067,0.0232 0.66579,0.0298 0.24511,0.007 0.49354,0.01 0.74529,0.01 0.42398,3e-5 1.05333,-0.0397 1.88806,-0.11924 0.83472,-0.0795 1.81518,-0.11923 2.94141,-0.11925 1.13945,2e-5 2.17623,0.13914 3.11033,0.41736 0.93408,0.27827 1.73568,0.67575 2.4048,1.19247 0.66909,0.51675 1.18582,1.1461 1.5502,1.88806 0.36435,0.74199 0.54653,1.57009 0.54654,2.48429 -10e-6,0.71549 -0.0994,1.36804 -0.29811,1.95763 -0.19876,0.58962 -0.477,1.1196 -0.83472,1.58995 -0.35776,0.47037 -0.78174,0.88442 -1.27196,1.24214 -0.49025,0.35775 -1.03348,0.66912 -1.6297,0.9341 l 4.15374,5.86293 c 0.35772,0.47699 0.71877,0.9341 1.08315,1.37133 0.36435,0.43724 0.71215,0.8281 1.04341,1.17259 0.33122,0.34449 0.64258,0.63267 0.93409,0.86453 0.29147,0.23187 0.53659,0.38755 0.73535,0.46705 l 0,0.0795 -5.20708,0 c -10e-6,-0.11925 -0.0828,-0.32793 -0.24843,-0.62604 -0.16563,-0.29812 -0.35775,-0.60948 -0.57635,-0.9341 -0.21864,-0.32461 -0.43725,-0.63929 -0.65586,-0.94403 -0.21863,-0.30474 -0.38094,-0.52998 -0.48692,-0.67573 z"
         style="text-align:center;text-anchor:middle;fill:#ffffff;fill-opacity:1"
         id="path4781"
         inkscape:connector-curvature="0" />
      <path
         d="m 769.56553,405.68555 -0.17887,0.0795 c -1.03349,-0.95394 -2.27564,-1.71579 -3.72644,-2.28555 -1.45085,-0.56971 -3.04411,-0.85457 -4.77979,-0.8546 -1.66946,3e-5 -3.19978,0.26171 -4.59097,0.78504 -1.39122,0.52338 -2.58699,1.28192 -3.58732,2.27561 -1.00035,0.99374 -1.77876,2.2127 -2.33524,3.65688 -0.55649,1.44423 -0.83473,3.08717 -0.83472,4.92884 -1e-5,2.0272 0.26498,3.91858 0.79497,5.67413 0.52998,1.75558 1.31833,3.27596 2.36505,4.56117 1.04671,1.28521 2.3551,2.29549 3.92519,3.03084 1.57006,0.73535 3.40181,1.10302 5.49525,1.10302 0.75521,0 1.51044,-0.0795 2.26568,-0.23849 0.75521,-0.15899 1.48062,-0.39417 2.17624,-0.70554 0.69558,-0.31136 1.35144,-0.68897 1.96756,-1.13284 0.61608,-0.44386 1.17588,-0.95065 1.67939,-1.52039 l 0.21862,0.13912 -1.58995,4.05437 c -0.99375,0.38424 -2.09015,0.67904 -3.28921,0.88441 -1.19911,0.20537 -2.40813,0.30805 -3.62707,0.30805 -2.45118,0 -4.69367,-0.35442 -6.72747,-1.06327 -2.03382,-0.70886 -3.78276,-1.71251 -5.24683,-3.01097 -1.46408,-1.29845 -2.60354,-2.85859 -3.41839,-4.68041 -0.81485,-1.82181 -1.22227,-3.84568 -1.22227,-6.07161 0,-1.2587 0.16231,-2.49753 0.48692,-3.71651 0.32461,-1.21894 0.79829,-2.37828 1.42102,-3.47801 0.62272,-1.09969 1.3912,-2.10997 2.30542,-3.03084 0.91422,-0.92082 1.95762,-1.71911 3.13021,-2.39486 1.17258,-0.6757 2.46441,-1.20237 3.8755,-1.58001 1.41107,-0.37759 2.93808,-0.56639 4.58104,-0.56642 2.55715,3e-5 4.92882,0.39089 7.11502,1.17259 z"
         style="text-align:center;text-anchor:middle;fill:#ffffff;fill-opacity:1"
         id="path4783"
         inkscape:connector-curvature="0" />
      <path
         d="m 772.72555,419.06099 c 0,-1.56343 0.2948,-3.01426 0.88441,-4.35248 0.5896,-1.33819 1.39451,-2.50084 2.41473,-3.48795 1.02021,-0.98707 2.22592,-1.75886 3.61713,-2.31536 1.3912,-0.55646 2.88177,-0.8347 4.47173,-0.83473 1.56344,3e-5 3.03745,0.26171 4.42205,0.78504 1.38456,0.52338 2.59027,1.26867 3.61713,2.23587 1.02682,0.96723 1.83835,2.13982 2.43461,3.51776 0.5962,1.37797 0.89432,2.92154 0.89434,4.63072 -2e-5,1.41772 -0.25176,2.78573 -0.75522,4.10406 -0.50351,1.31833 -1.23886,2.48429 -2.20605,3.49788 -0.96724,1.0136 -2.1597,1.82182 -3.57739,2.42467 -1.41772,0.60286 -3.04079,0.90429 -4.86922,0.90429 -1.55021,0 -3.01428,-0.25837 -4.39223,-0.7751 -1.37796,-0.51673 -2.58367,-1.2554 -3.61713,-2.21599 -1.03347,-0.96059 -1.84832,-2.12655 -2.44455,-3.49789 -0.59623,-1.37132 -0.89434,-2.91158 -0.89434,-4.62079 z m 11.84511,9.69869 c 1.00696,0 1.93443,-0.19874 2.78241,-0.59623 0.84796,-0.39749 1.58,-0.96722 2.19612,-1.7092 0.61609,-0.74197 1.09307,-1.64625 1.43095,-2.71285 0.33785,-1.06658 0.50678,-2.26898 0.5068,-3.60719 -2e-5,-1.52369 -0.16233,-2.93477 -0.48692,-4.23324 -0.32464,-1.29844 -0.81487,-2.42134 -1.47071,-3.3687 -0.65587,-0.94733 -1.47403,-1.6893 -2.45448,-2.22593 -0.98048,-0.53659 -2.12657,-0.80489 -3.43826,-0.80491 -1.00698,2e-5 -1.93445,0.19214 -2.78241,0.57635 -0.84798,0.38426 -1.58002,0.94074 -2.19612,1.66945 -0.61611,0.72874 -1.09641,1.62309 -1.44089,2.68304 -0.34449,1.05998 -0.51674,2.26569 -0.51673,3.61713 -10e-6,1.51046 0.16893,2.91823 0.50679,4.2233 0.33786,1.30509 0.83472,2.43793 1.49058,3.39852 0.65585,0.96059 1.47401,1.71582 2.45448,2.26567 0.98046,0.54986 2.11992,0.82479 3.41839,0.82479 z"
         style="text-align:center;text-anchor:middle;fill:#ffffff;fill-opacity:1"
         id="path4785"
         inkscape:connector-curvature="0" />
      <path
         d="m 798.14485,429.73352 c 0.17225,-0.18549 0.3478,-0.52336 0.52667,-1.01359 0.17887,-0.49023 0.3213,-1.02022 0.4273,-1.58995 0.159,-0.92747 0.33455,-1.98412 0.52667,-3.16996 0.19212,-1.18583 0.38424,-2.4081 0.57636,-3.66682 0.19212,-1.2587 0.38092,-2.51409 0.56642,-3.76619 0.18549,-1.25207 0.35773,-2.41472 0.51673,-3.48795 0.15899,-1.07319 0.29149,-2.01391 0.39749,-2.82216 0.10599,-0.8082 0.17886,-1.3978 0.21862,-1.76881 l 2.36505,0 9.48006,16.9727 9.71856,-16.9727 1.92781,0 2.38493,16.59508 c 0.11921,0.75523 0.23515,1.39784 0.3478,1.92782 0.11259,0.52998 0.2219,0.97715 0.32793,1.34152 0.10596,0.36436 0.21196,0.65916 0.31799,0.8844 0.10596,0.22525 0.19871,0.40412 0.27824,0.53661 l 0,0.0795 -4.8891,0 0,-0.0795 c 0.0397,-0.10599 0.0894,-0.28486 0.14906,-0.53661 0.0596,-0.25174 0.0894,-0.54985 0.0894,-0.89434 -3e-5,-0.22524 -0.0166,-0.54986 -0.0497,-0.97385 -0.0331,-0.42398 -0.0828,-0.84134 -0.14906,-1.25208 l -1.70919,-12.18298 -9.04283,15.87961 -1.41108,-0.19874 -8.88384,-15.80012 c -0.33124,2.22595 -0.62273,4.28625 -0.87447,6.18093 -0.106,0.80823 -0.212,1.61645 -0.31799,2.42467 -0.106,0.80823 -0.19875,1.56677 -0.27824,2.27561 -0.0795,0.70886 -0.14575,1.3349 -0.19874,1.87813 -0.053,0.54324 -0.0795,0.94735 -0.0795,1.21234 -10e-6,0.33124 0.007,0.61941 0.0199,0.86453 0.0132,0.24512 0.0331,0.46042 0.0596,0.64592 0.0265,0.21199 0.053,0.39748 0.0795,0.55648 l -3.41839,0 z"
         style="text-align:center;text-anchor:middle;fill:#ffffff;fill-opacity:1"
         id="path4787"
         inkscape:connector-curvature="0" />
      <path
         d="m 837.35696,420.13421 c 0.26499,0.0398 0.52666,0.0762 0.78504,0.10931 0.25836,0.0331 0.51341,0.0497 0.76516,0.0497 0.75522,10e-6 1.44751,-0.11592 2.07687,-0.3478 0.62934,-0.23186 1.16595,-0.57966 1.60982,-1.0434 0.44385,-0.46373 0.78834,-1.05333 1.03347,-1.76882 0.2451,-0.71546 0.36766,-1.55019 0.36768,-2.50417 -2e-5,-0.76846 -0.0861,-1.46406 -0.25837,-2.08681 -0.17226,-0.62271 -0.42731,-1.156 -0.76516,-1.59988 -0.33788,-0.44384 -0.75855,-0.78833 -1.26203,-1.03347 -0.50349,-0.24509 -1.08647,-0.36765 -1.74894,-0.36767 -0.42399,2e-5 -0.79829,0.0166 -1.1229,0.0497 -0.32462,0.0331 -0.59955,0.0696 -0.82479,0.10931 -0.25174,0.053 -0.47036,0.10602 -0.65585,0.159 z m 0,1.37133 c -10e-6,1.19247 0.0132,2.23918 0.0398,3.14015 0.0265,0.90097 0.0629,1.67938 0.10931,2.33523 0.0464,0.65586 0.10268,1.20903 0.16893,1.65951 0.0662,0.45049 0.14574,0.81485 0.23849,1.09309 l 0,0.0795 -4.59097,0 0,-0.0795 c 0.0927,-0.27824 0.17555,-0.63598 0.24843,-1.07321 0.0729,-0.43724 0.13249,-0.97716 0.17887,-1.61976 0.0464,-0.6426 0.0828,-1.40777 0.1093,-2.29549 0.0265,-0.88772 0.0398,-1.92781 0.0398,-3.12028 l 0,-5.00833 c 0,-1.19245 -0.0132,-2.22923 -0.0398,-3.11034 -0.0265,-0.88108 -0.0629,-1.64293 -0.1093,-2.28555 -0.0464,-0.64259 -0.106,-1.1825 -0.17887,-1.61976 -0.0729,-0.43722 -0.15569,-0.79495 -0.24843,-1.07322 l 0,-0.0795 c 0.29148,0.0133 0.58297,0.0265 0.87447,0.0398 0.25174,0.0133 0.52004,0.0232 0.80491,0.0298 0.28486,0.007 0.55316,0.01 0.80491,0.01 0.42398,3e-5 1.05002,-0.0397 1.87813,-0.11924 0.82809,-0.0795 1.80524,-0.11923 2.93146,-0.11925 1.03346,2e-5 1.99405,0.13583 2.88179,0.40743 0.8877,0.27163 1.65287,0.67243 2.29548,1.2024 0.64259,0.53 1.14608,1.17591 1.51046,1.93774 0.36434,0.76187 0.54652,1.63966 0.54654,2.63336 -2e-5,1.16597 -0.22526,2.19613 -0.67573,3.09046 -0.4505,0.89436 -1.06329,1.64296 -1.83838,2.2458 -0.77511,0.60287 -1.68602,1.05666 -2.73272,1.36139 -1.04673,0.30475 -2.15969,0.45712 -3.33889,0.45711 -0.62274,10e-6 -1.25872,-0.0397 -1.90794,-0.11924 z"
         style="text-align:center;text-anchor:middle;fill:#ffffff;fill-opacity:1"
         id="path4789"
         inkscape:connector-curvature="0" />
      <path
         d="m 867.64546,416.53695 c -2e-5,-1.1792 -0.007,-2.20604 -0.0199,-3.08053 -0.0133,-0.87445 -0.0398,-1.62967 -0.0795,-2.26567 -0.0398,-0.63596 -0.0861,-1.16926 -0.13912,-1.59989 -0.053,-0.43059 -0.11927,-0.78501 -0.19874,-1.06328 l 0,-0.0795 2.92153,0 0,0.0795 c -0.0795,0.27827 -0.14577,0.636 -0.19875,1.07322 -0.053,0.43726 -0.0994,0.97717 -0.13912,1.61976 -0.0398,0.64262 -0.0663,1.40447 -0.0795,2.28555 -0.0133,0.88111 -0.0199,1.91789 -0.0199,3.11034 l 0,5.70394 c -2e-5,1.43096 -0.22195,2.64992 -0.66579,3.65688 -0.44388,1.00697 -1.05667,1.83175 -1.83838,2.47436 -0.78174,0.6426 -1.71252,1.11296 -2.79235,1.41107 -1.07985,0.29812 -2.26237,0.44718 -3.54757,0.44718 -1.29847,0 -2.50418,-0.14244 -3.61713,-0.4273 -1.11297,-0.28487 -2.07688,-0.73866 -2.89172,-1.36139 -0.81485,-0.62273 -1.45746,-1.43096 -1.92781,-2.42468 -0.47037,-0.99371 -0.70554,-2.19942 -0.70554,-3.61713 l 0,-5.86293 c 0,-1.19245 -0.0132,-2.22923 -0.0398,-3.11034 -0.0265,-0.88108 -0.0662,-1.64293 -0.11925,-2.28555 -0.053,-0.64259 -0.11262,-1.1825 -0.17887,-1.61976 -0.0663,-0.43722 -0.14574,-0.79495 -0.23849,-1.07322 l 0,-0.0795 4.59098,0 0,0.0795 c -0.0928,0.27827 -0.17225,0.63269 -0.23849,1.06328 -0.0663,0.43063 -0.12257,0.96393 -0.16894,1.59989 -0.0464,0.636 -0.0828,1.39122 -0.10931,2.26567 -0.0265,0.87449 -0.0398,1.90133 -0.0397,3.08053 l 0,5.94243 c -10e-6,1.17922 0.17886,2.14975 0.5366,2.91159 0.35773,0.76186 0.82809,1.36803 1.41108,1.81851 0.58297,0.45049 1.24545,0.76516 1.98744,0.94403 0.74196,0.17887 1.50381,0.26831 2.28555,0.2683 0.79496,1e-5 1.56675,-0.0894 2.31536,-0.2683 0.74859,-0.17887 1.41769,-0.49354 2.00731,-0.94403 0.58959,-0.45048 1.05995,-1.05665 1.41108,-1.81851 0.3511,-0.76184 0.52665,-1.73237 0.52667,-2.91159 z"
         style="text-align:center;text-anchor:middle;fill:#ffffff;fill-opacity:1"
         id="path4791"
         inkscape:connector-curvature="0" />
      <path
         d="m 880.76255,409.91879 c -1.20571,2e-5 -2.30211,0.053 -3.2892,0.15899 -0.9871,0.10602 -1.83838,0.21864 -2.55386,0.33787 -0.82147,0.14576 -1.56345,0.30476 -2.22592,0.47698 l 0.39748,-2.56379 c 0.19875,0.0265 0.52336,0.0464 0.97385,0.0596 0.45048,0.0133 0.92415,0.0232 1.42101,0.0298 0.49686,0.007 0.96722,0.0133 1.41108,0.0199 0.44386,0.007 0.75191,0.01 0.92416,0.01 l 9.40057,0 c 0.15898,2e-5 0.45378,-0.003 0.88441,-0.01 0.43059,-0.007 0.89102,-0.0132 1.38127,-0.0199 0.49021,-0.007 0.96057,-0.0165 1.41108,-0.0298 0.45046,-0.0132 0.77508,-0.0331 0.97384,-0.0596 l 0.39749,2.56379 c -0.636,-0.17222 -1.36473,-0.33122 -2.18618,-0.47698 -0.70225,-0.11923 -1.54691,-0.23185 -2.53398,-0.33787 -0.98711,-0.10597 -2.09676,-0.15897 -3.32896,-0.15899 l 0,11.70599 c -10e-6,1.19247 0.0132,2.23256 0.0398,3.12028 0.0265,0.88772 0.0629,1.65289 0.10931,2.29549 0.0464,0.6426 0.10267,1.18252 0.16893,1.61976 0.0662,0.43723 0.14573,0.79497 0.23849,1.07321 l 0,0.0795 -4.59097,0 0,-0.0795 c 0.0927,-0.27824 0.17223,-0.63598 0.23849,-1.07321 0.0662,-0.43724 0.12586,-0.97716 0.17887,-1.61976 0.053,-0.6426 0.0927,-1.40777 0.11925,-2.29549 0.0265,-0.88772 0.0397,-1.92781 0.0397,-3.12028 z"
         style="text-align:center;text-anchor:middle;fill:#ffffff;fill-opacity:1"
         id="path4793"
         inkscape:connector-curvature="0" />
      <path
         d="m 894.85347,408.44809 c 1.29846,2e-5 2.63004,-0.003 3.99475,-0.01 1.3647,-0.007 2.63003,-0.0199 3.796,-0.0398 1.16595,-0.0198 2.1696,-0.043 3.01096,-0.0696 0.84134,-0.0265 1.39451,-0.0662 1.65951,-0.11924 l -0.7751,2.14643 c -0.35775,-0.0927 -0.76186,-0.17885 -1.21233,-0.25837 -0.3975,-0.0662 -0.8778,-0.12916 -1.44089,-0.18881 -0.56312,-0.0596 -1.21566,-0.0894 -1.95763,-0.0894 -0.265,2e-5 -0.56974,0.01 -0.91422,0.0298 -0.34449,0.0199 -0.67573,0.0431 -0.99372,0.0696 -0.37099,0.0265 -0.7486,0.053 -1.13283,0.0795 l 0,7.85037 c 1.0732,-0.0132 2.04042,-0.0397 2.90165,-0.0795 0.86121,-0.0397 1.59656,-0.0927 2.20606,-0.159 0.71546,-0.053 1.34481,-0.12585 1.88806,-0.21861 l -0.47698,2.36505 c -0.72874,-0.0927 -1.46409,-0.17224 -2.20606,-0.2385 -0.63599,-0.0662 -1.33821,-0.12255 -2.10668,-0.16893 -0.76848,-0.0464 -1.50383,-0.0695 -2.20605,-0.0696 l 0,9.02296 c 1.2322,0 2.36504,-0.0497 3.39851,-0.14906 1.03346,-0.0994 1.93443,-0.20868 2.70291,-0.32793 0.90096,-0.14574 1.71581,-0.31136 2.44455,-0.49686 l -0.45711,2.60354 c -0.19876,-0.0132 -0.52006,-0.0298 -0.96391,-0.0497 -0.44387,-0.0199 -0.90761,-0.0331 -1.3912,-0.0398 -0.48362,-0.007 -0.93742,-0.0132 -1.3614,-0.0199 -0.42399,-0.007 -0.71548,-0.01 -0.87447,-0.01 l -7.53238,0 0,-0.0795 c 0.0928,-0.27824 0.17556,-0.63598 0.24843,-1.07321 0.0729,-0.43724 0.13249,-0.97716 0.17887,-1.61976 0.0464,-0.6426 0.0828,-1.40777 0.10931,-2.29549 0.0265,-0.88772 0.0398,-1.92781 0.0398,-3.12028 l 0,-5.00833 c 0,-1.19245 -0.0133,-2.22923 -0.0398,-3.11034 -0.0265,-0.88108 -0.0629,-1.64293 -0.10931,-2.28555 -0.0464,-0.64259 -0.106,-1.1825 -0.17887,-1.61976 -0.0729,-0.43722 -0.15568,-0.79495 -0.24843,-1.07322 l 0,-0.0795 z"
         style="text-align:center;text-anchor:middle;fill:#ffffff;fill-opacity:1"
         id="path4795"
         inkscape:connector-curvature="0" />
      <path
         d="m 915.90042,419.43861 c 0.26498,0.0398 0.53329,0.0696 0.80491,0.0894 0.27161,0.0199 0.53329,0.0298 0.78504,0.0298 1.65618,10e-6 2.91158,-0.44385 3.76619,-1.33158 0.85458,-0.88771 1.28188,-2.21929 1.28189,-3.99475 -10e-6,-1.45743 -0.34119,-2.61014 -1.02353,-3.45813 -0.68236,-0.84796 -1.68602,-1.27194 -3.01096,-1.27196 -0.424,2e-5 -0.7983,0.0166 -1.1229,0.0497 -0.32463,0.0331 -0.59955,0.0696 -0.82479,0.10931 -0.25175,0.053 -0.47037,0.10602 -0.65585,0.159 z m 3.04077,1.29183 c -0.265,0.0398 -0.52668,0.0629 -0.78503,0.0696 -0.25838,0.007 -0.52006,0.01 -0.78504,0.01 -0.212,10e-6 -0.44387,-0.007 -0.6956,-0.0199 -0.25175,-0.0132 -0.51012,-0.0331 -0.7751,-0.0596 l 0,0.97384 c -1e-5,1.17922 0.0132,2.20937 0.0397,3.09046 0.0265,0.8811 0.0629,1.63964 0.10931,2.27562 0.0464,0.63598 0.10267,1.16927 0.16893,1.59988 0.0662,0.43062 0.14574,0.78504 0.23849,1.06328 l 0,0.0795 -4.59098,0 0,-0.0795 c 0.0928,-0.27824 0.17556,-0.63598 0.24843,-1.07321 0.0729,-0.43724 0.1325,-0.97716 0.17887,-1.61976 0.0464,-0.6426 0.0828,-1.40777 0.10931,-2.29549 0.0265,-0.88772 0.0398,-1.92781 0.0398,-3.12028 l 0,-5.00833 c 0,-1.19245 -0.0132,-2.22923 -0.0398,-3.11034 -0.0265,-0.88108 -0.0629,-1.64293 -0.10931,-2.28555 -0.0464,-0.64259 -0.106,-1.1825 -0.17887,-1.61976 -0.0729,-0.43722 -0.15568,-0.79495 -0.24843,-1.07322 l 0,-0.0795 c 0.21199,0.0133 0.43724,0.0265 0.67573,0.0398 0.19874,0.0133 0.42067,0.0232 0.66579,0.0298 0.24512,0.007 0.49354,0.01 0.74529,0.01 0.42398,3e-5 1.05334,-0.0397 1.88806,-0.11924 0.83472,-0.0795 1.81519,-0.11923 2.94141,-0.11925 1.13945,2e-5 2.17623,0.13914 3.11034,0.41736 0.93408,0.27827 1.73568,0.67575 2.40479,1.19247 0.66909,0.51675 1.18582,1.1461 1.5502,1.88806 0.36435,0.74199 0.54653,1.57009 0.54655,2.48429 -2e-5,0.71549 -0.0994,1.36804 -0.29812,1.95763 -0.19876,0.58962 -0.477,1.1196 -0.83472,1.58995 -0.35776,0.47037 -0.78174,0.88442 -1.27196,1.24214 -0.49025,0.35775 -1.03348,0.66912 -1.6297,0.9341 l 4.15374,5.86293 c 0.35772,0.47699 0.71877,0.9341 1.08316,1.37133 0.36434,0.43724 0.71214,0.8281 1.0434,1.17259 0.33122,0.34449 0.64258,0.63267 0.93409,0.86453 0.29147,0.23187 0.53659,0.38755 0.73536,0.46705 l 0,0.0795 -5.20709,0 c -10e-6,-0.11925 -0.0828,-0.32793 -0.24843,-0.62604 -0.16563,-0.29812 -0.35775,-0.60948 -0.57635,-0.9341 -0.21863,-0.32461 -0.43725,-0.63929 -0.65586,-0.94403 -0.21863,-0.30474 -0.38093,-0.52998 -0.48692,-0.67573 z"
         style="text-align:center;text-anchor:middle;fill:#ffffff;fill-opacity:1"
         id="path4797"
         inkscape:connector-curvature="0" />
      <path
         d="m 456.5842,480.69137 0,-0.0795 c 0.0265,-0.0663 0.0464,-0.16562 0.0596,-0.29812 0.0132,-0.13249 0.0199,-0.25174 0.0199,-0.35773 -2e-5,-0.41074 -0.0563,-0.86454 -0.16893,-1.3614 -0.11264,-0.49685 -0.32795,-1.11627 -0.64591,-1.85825 l -2.4048,-5.40582 c -0.742,-0.0265 -1.72909,-0.0397 -2.96128,-0.0398 -1.23223,10e-6 -2.56381,10e-6 -3.99475,0 -1.04672,10e-6 -2.057,10e-6 -3.03084,0 -0.97385,10e-6 -1.85163,0.0133 -2.63335,0.0398 l -2.28555,5.24683 c -0.19875,0.49023 -0.41074,1.02684 -0.63598,1.60982 -0.22524,0.58298 -0.33786,1.17259 -0.33786,1.76882 0,0.17224 0.0132,0.31467 0.0398,0.42729 0.0265,0.11263 0.053,0.18881 0.0795,0.22856 l 0,0.0795 -4.05436,0 0,-0.0795 c 0.23849,-0.25174 0.5366,-0.69891 0.89434,-1.34152 0.35774,-0.6426 0.7486,-1.44751 1.17259,-2.41473 l 11.388,-25.26031 1.58995,0 10.79178,24.28646 c 0.25171,0.56974 0.51339,1.12291 0.78503,1.65951 0.27159,0.53661 0.52665,1.01691 0.76517,1.44089 0.23846,0.42399 0.45046,0.78173 0.63598,1.07322 0.18546,0.29149 0.31133,0.47698 0.37761,0.55648 l 0,0.0795 z M 443.70561,469.5816 c 0.76847,1e-5 1.55682,-0.003 2.36505,-0.01 0.80821,-0.007 1.59987,-0.0132 2.37499,-0.0199 0.77508,-0.007 1.52037,-0.0132 2.23586,-0.0199 0.71546,-0.007 1.36469,-0.0165 1.94769,-0.0298 l -5.58469,-12.62022 -5.48533,12.69971 z"
         style="text-align:center;text-anchor:middle;fill:#ffffff;fill-opacity:1"
         id="path4799"
         inkscape:connector-curvature="0" />
      <path
         d="m 468.25044,470.31695 c 0.26499,0.0398 0.53329,0.0696 0.80491,0.0894 0.27161,0.0199 0.53329,0.0298 0.78504,0.0298 1.65619,10e-6 2.91158,-0.44385 3.76619,-1.33158 0.85458,-0.88771 1.28188,-2.21929 1.2819,-3.99475 -2e-5,-1.45743 -0.34119,-2.61014 -1.02353,-3.45813 -0.68237,-0.84796 -1.68602,-1.27194 -3.01097,-1.27196 -0.42399,2e-5 -0.79829,0.0166 -1.1229,0.0497 -0.32462,0.0331 -0.59955,0.0696 -0.82478,0.10931 -0.25175,0.053 -0.47037,0.10602 -0.65586,0.159 z m 3.04078,1.29184 c -0.265,0.0398 -0.52668,0.0629 -0.78504,0.0696 -0.25837,0.007 -0.52005,0.01 -0.78504,0.01 -0.212,10e-6 -0.44386,-0.007 -0.6956,-0.0199 -0.25175,-0.0132 -0.51011,-0.0331 -0.7751,-0.0596 l 0,0.97384 c 0,1.17922 0.0132,2.20937 0.0397,3.09046 0.0265,0.8811 0.0629,1.63964 0.10931,2.27562 0.0464,0.63598 0.10268,1.16927 0.16893,1.59988 0.0662,0.43061 0.14574,0.78504 0.23849,1.06328 l 0,0.0795 -4.59097,0 0,-0.0795 c 0.0927,-0.27824 0.17555,-0.63598 0.24843,-1.07322 0.0729,-0.43723 0.13249,-0.97715 0.17887,-1.61976 0.0464,-0.6426 0.0828,-1.40776 0.10931,-2.29548 0.0265,-0.88772 0.0397,-1.92781 0.0397,-3.12028 l 0,-5.00833 c 0,-1.19245 -0.0133,-2.22923 -0.0397,-3.11034 -0.0265,-0.88108 -0.0629,-1.64293 -0.10931,-2.28555 -0.0464,-0.64259 -0.106,-1.18251 -0.17887,-1.61976 -0.0729,-0.43722 -0.15569,-0.79495 -0.24843,-1.07322 l 0,-0.0795 c 0.21199,0.0133 0.43723,0.0265 0.67573,0.0397 0.19874,0.0133 0.42067,0.0232 0.66579,0.0298 0.24511,0.007 0.49354,0.01 0.74528,0.01 0.42399,2e-5 1.05334,-0.0397 1.88807,-0.11924 0.83471,-0.0795 1.81518,-0.11923 2.9414,-0.11925 1.13946,2e-5 2.17623,0.13914 3.11034,0.41736 0.93408,0.27826 1.73568,0.67575 2.4048,1.19246 0.66908,0.51676 1.18582,1.14611 1.5502,1.88807 0.36434,0.74199 0.54652,1.57009 0.54654,2.48429 -2e-5,0.71549 -0.0994,1.36803 -0.29811,1.95763 -0.19876,0.58961 -0.47701,1.1196 -0.83473,1.58994 -0.35775,0.47038 -0.78174,0.88442 -1.27196,1.24215 -0.49024,0.35775 -1.03348,0.66911 -1.62969,0.9341 l 4.15374,5.86293 c 0.35772,0.47699 0.71877,0.9341 1.08315,1.37133 0.36434,0.43724 0.71214,0.8281 1.0434,1.17259 0.33122,0.34449 0.64259,0.63267 0.9341,0.86453 0.29147,0.23187 0.53658,0.38755 0.73535,0.46705 l 0,0.0795 -5.20708,0 c -2e-5,-0.11925 -0.0828,-0.32793 -0.24843,-0.62605 -0.16564,-0.29811 -0.35776,-0.60947 -0.57636,-0.93409 -0.21863,-0.32461 -0.43725,-0.63929 -0.65585,-0.94403 -0.21863,-0.30474 -0.38094,-0.52998 -0.48692,-0.67573 z"
         style="text-align:center;text-anchor:middle;fill:#ffffff;fill-opacity:1"
         id="path4801"
         inkscape:connector-curvature="0" />
      <path
         d="m 502.51383,476.25939 -1.5502,3.69663 c -0.38426,0.17224 -0.81818,0.32792 -1.30177,0.46704 -0.48363,0.13912 -0.9838,0.25506 -1.50051,0.3478 -0.51675,0.0927 -1.04342,0.16231 -1.58002,0.20869 -0.53662,0.0464 -1.04341,0.0696 -1.52038,0.0696 -1.66946,0 -3.21635,-0.24512 -4.64067,-0.73536 -1.42433,-0.49023 -2.65323,-1.20902 -3.68669,-2.15636 -1.03347,-0.94734 -1.84169,-2.10999 -2.42467,-3.48795 -0.58298,-1.37795 -0.87447,-2.95465 -0.87447,-4.7301 0,-1.56344 0.30474,-3.01426 0.91422,-4.35248 0.60948,-1.33819 1.45082,-2.50084 2.52404,-3.48795 1.07321,-0.98708 2.34186,-1.75886 3.80594,-2.31536 1.46407,-0.55646 3.0507,-0.83471 4.75991,-0.83473 0.38422,2e-5 0.79165,0.0166 1.22227,0.0497 0.4306,0.0331 0.8579,0.0828 1.2819,0.14906 0.42397,0.0663 0.8347,0.14245 1.23221,0.22855 0.39747,0.0861 0.76845,0.17558 1.11296,0.26831 l 1.49058,3.57738 -0.23849,0.13912 c -0.35776,-0.43722 -0.78506,-0.84133 -1.2819,-1.21234 -0.49688,-0.37096 -1.04011,-0.68564 -1.6297,-0.94403 -0.58962,-0.25834 -1.20904,-0.4604 -1.85825,-0.60617 -0.64924,-0.14572 -1.31172,-0.21859 -1.98743,-0.21861 -1.09973,2e-5 -2.10338,0.19214 -3.01097,0.57635 -0.9076,0.38426 -1.6827,0.94405 -2.3253,1.67939 -0.64261,0.73536 -1.14278,1.63302 -1.50051,2.69297 -0.35775,1.05998 -0.53662,2.25907 -0.53661,3.59726 -10e-6,1.51046 0.17224,2.91823 0.51673,4.2233 0.34449,1.30509 0.86122,2.43793 1.5502,3.39851 0.68897,0.9606 1.55019,1.71583 2.58367,2.26568 1.03345,0.54986 2.23916,0.82479 3.61713,0.82479 0.66247,0 1.31501,-0.0828 1.95763,-0.24843 0.64258,-0.16562 1.25206,-0.4008 1.82844,-0.70554 0.57633,-0.30474 1.103,-0.67242 1.58001,-1.10303 0.47696,-0.43061 0.8877,-0.9109 1.23221,-1.44089 z"
         style="text-align:center;text-anchor:middle;fill:#ffffff;fill-opacity:1"
         id="path4803"
         inkscape:connector-curvature="0" />
      <path
         d="m 521.1361,470.47595 c -0.41076,10e-6 -0.92087,-0.003 -1.53033,-0.01 -0.6095,-0.007 -1.27197,-0.0165 -1.98744,-0.0298 -0.71549,-0.0132 -1.45746,-0.0232 -2.22592,-0.0298 -0.76849,-0.007 -1.51047,-0.01 -2.22593,-0.01 -0.67574,1e-5 -1.3084,0.007 -1.898,0.0199 -0.58962,0.0133 -1.09641,0.0331 -1.52039,0.0596 l 0,2.02718 c -10e-6,1.19247 0.0132,2.23256 0.0398,3.12028 0.0265,0.88772 0.0629,1.65288 0.10931,2.29548 0.0464,0.64261 0.10267,1.18253 0.16893,1.61976 0.0662,0.43724 0.14574,0.79498 0.23849,1.07322 l 0,0.0795 -4.59097,0 0,-0.0795 c 0.0927,-0.27824 0.17555,-0.63598 0.24843,-1.07322 0.0729,-0.43723 0.13249,-0.97715 0.17886,-1.61976 0.0464,-0.6426 0.0828,-1.40776 0.10931,-2.29548 0.0265,-0.88772 0.0397,-1.92781 0.0397,-3.12028 l 0,-5.00833 c 0,-1.19245 -0.0132,-2.22923 -0.0397,-3.11034 -0.0265,-0.88108 -0.0629,-1.64293 -0.10931,-2.28555 -0.0464,-0.64259 -0.10599,-1.18251 -0.17886,-1.61976 -0.0729,-0.43722 -0.15569,-0.79495 -0.24843,-1.07322 l 0,-0.0795 4.59097,0 0,0.0795 c -0.0928,0.27827 -0.17225,0.636 -0.23849,1.07322 -0.0663,0.43725 -0.12257,0.97717 -0.16893,1.61976 -0.0464,0.64262 -0.0828,1.40447 -0.10931,2.28555 -0.0265,0.88111 -0.0398,1.91789 -0.0398,3.11034 l 0,1.35145 2.92153,0 c 0.72872,10e-6 1.49719,-0.003 2.30543,-0.01 0.80821,-0.007 1.58993,-0.0132 2.34517,-0.0199 0.75521,-0.007 1.46406,-0.0165 2.12656,-0.0298 0.66246,-0.0132 1.22556,-0.0331 1.68932,-0.0596 l 0,-1.23221 c -2e-5,-1.19245 -0.0133,-2.22923 -0.0398,-3.11034 -0.0265,-0.88108 -0.063,-1.64293 -0.10931,-2.28555 -0.0464,-0.64259 -0.1027,-1.18251 -0.16893,-1.61976 -0.0663,-0.43722 -0.14577,-0.79495 -0.2385,-1.07322 l 0,-0.0795 4.59098,0 0,0.0795 c -0.0928,0.27827 -0.17558,0.636 -0.24843,1.07322 -0.0729,0.43725 -0.13252,0.97717 -0.17887,1.61976 -0.0464,0.64262 -0.0828,1.40447 -0.10931,2.28555 -0.0265,0.88111 -0.0398,1.91789 -0.0397,3.11034 l 0,5.00833 c -2e-5,1.19247 0.0132,2.23256 0.0397,3.12028 0.0265,0.88772 0.0629,1.65288 0.10931,2.29548 0.0463,0.64261 0.10598,1.18253 0.17887,1.61976 0.0729,0.43724 0.15566,0.79498 0.24843,1.07322 l 0,0.0795 -4.59098,0 0,-0.0795 c 0.0927,-0.27824 0.17223,-0.63598 0.2385,-1.07322 0.0662,-0.43723 0.12254,-0.97715 0.16893,-1.61976 0.0464,-0.6426 0.0828,-1.40776 0.10931,-2.29548 0.0265,-0.88772 0.0397,-1.92781 0.0398,-3.12028 z"
         style="text-align:center;text-anchor:middle;fill:#ffffff;fill-opacity:1"
         id="path4805"
         inkscape:connector-curvature="0" />
      <path
         d="m 531.09315,467.4948 c 0,-1.19245 -0.0133,-2.22923 -0.0398,-3.11034 -0.0265,-0.88108 -0.0629,-1.64293 -0.10931,-2.28555 -0.0464,-0.64259 -0.106,-1.18251 -0.17887,-1.61976 -0.0729,-0.43722 -0.15568,-0.79495 -0.24843,-1.07322 l 0,-0.0795 4.61085,0 0,0.0795 c -0.0928,0.27827 -0.17556,0.636 -0.24843,1.07322 -0.0729,0.43725 -0.1325,0.97717 -0.17886,1.61976 -0.0464,0.64262 -0.0828,1.40447 -0.10931,2.28555 -0.0265,0.88111 -0.0398,1.91789 -0.0398,3.11034 l 0,5.00833 c -10e-6,1.19247 0.0132,2.23256 0.0398,3.12028 0.0265,0.88772 0.0629,1.65288 0.10931,2.29548 0.0464,0.64261 0.10599,1.18253 0.17886,1.61976 0.0729,0.43724 0.15568,0.79498 0.24843,1.07322 l 0,0.0795 -4.61085,0 0,-0.0795 c 0.0928,-0.27824 0.17556,-0.63598 0.24843,-1.07322 0.0729,-0.43723 0.1325,-0.97715 0.17887,-1.61976 0.0464,-0.6426 0.0828,-1.40776 0.10931,-2.29548 0.0265,-0.88772 0.0398,-1.92781 0.0398,-3.12028 z"
         style="text-align:center;text-anchor:middle;fill:#ffffff;fill-opacity:1"
         id="path4807"
         inkscape:connector-curvature="0" />
      <path
         d="m 546.15791,460.79714 c -1.20572,2e-5 -2.30212,0.053 -3.28921,0.15899 -0.98709,0.10602 -1.83838,0.21864 -2.55385,0.33787 -0.82148,0.14576 -1.56345,0.30476 -2.22593,0.47698 l 0.39749,-2.56379 c 0.19874,0.0265 0.52336,0.0464 0.97384,0.0596 0.45049,0.0133 0.92416,0.0232 1.42102,0.0298 0.49685,0.007 0.96721,0.0133 1.41108,0.0199 0.44385,0.007 0.75191,0.01 0.92416,0.01 l 9.40057,0 c 0.15898,2e-5 0.45378,-0.003 0.8844,-0.01 0.4306,-0.007 0.89102,-0.0132 1.38127,-0.0199 0.49022,-0.007 0.96058,-0.0165 1.41108,-0.0298 0.45047,-0.0132 0.77508,-0.0331 0.97384,-0.0596 l 0.39749,2.56379 c -0.636,-0.17222 -1.36472,-0.33122 -2.18618,-0.47698 -0.70224,-0.11923 -1.5469,-0.23185 -2.53398,-0.33787 -0.9871,-0.10597 -2.09675,-0.15897 -3.32895,-0.15899 l 0,11.70599 c -10e-6,1.19247 0.0132,2.23256 0.0398,3.12028 0.0265,0.88772 0.0629,1.65288 0.10931,2.29548 0.0464,0.64261 0.10267,1.18253 0.16893,1.61976 0.0662,0.43724 0.14573,0.79498 0.23849,1.07322 l 0,0.0795 -4.59098,0 0,-0.0795 c 0.0927,-0.27824 0.17224,-0.63598 0.2385,-1.07322 0.0662,-0.43723 0.12586,-0.97715 0.17887,-1.61976 0.053,-0.6426 0.0927,-1.40776 0.11924,-2.29548 0.0265,-0.88772 0.0397,-1.92781 0.0398,-3.12028 z"
         style="text-align:center;text-anchor:middle;fill:#ffffff;fill-opacity:1"
         id="path4809"
         inkscape:connector-curvature="0" />
      <path
         d="m 560.24883,459.32644 c 1.29845,2e-5 2.63003,-0.003 3.99474,-0.01 1.3647,-0.007 2.63003,-0.0199 3.79601,-0.0398 1.16595,-0.0199 2.1696,-0.043 3.01096,-0.0696 0.84133,-0.0265 1.3945,-0.0662 1.65951,-0.11925 l -0.7751,2.14643 c -0.35775,-0.0927 -0.76186,-0.17885 -1.21234,-0.25836 -0.3975,-0.0662 -0.87779,-0.12917 -1.44089,-0.18881 -0.56312,-0.0596 -1.21566,-0.0894 -1.95762,-0.0894 -0.265,2e-5 -0.56974,0.01 -0.91422,0.0298 -0.3445,0.0199 -0.67574,0.0431 -0.99372,0.0696 -0.37099,0.0265 -0.74861,0.053 -1.13284,0.0795 l 0,7.85037 c 1.07321,-0.0132 2.04043,-0.0397 2.90166,-0.0795 0.86121,-0.0397 1.59656,-0.0927 2.20605,-0.159 0.71547,-0.053 1.34482,-0.12586 1.88807,-0.21861 l -0.47699,2.36504 c -0.72874,-0.0927 -1.46409,-0.17223 -2.20605,-0.23849 -0.63599,-0.0662 -1.33822,-0.12255 -2.10668,-0.16893 -0.76849,-0.0464 -1.50384,-0.0696 -2.20606,-0.0696 l 0,9.02296 c 1.2322,0 2.36504,-0.0497 3.39852,-0.14906 1.03345,-0.0994 1.93442,-0.20868 2.70291,-0.32793 0.90096,-0.14574 1.7158,-0.31136 2.44455,-0.49686 l -0.45712,2.60354 c -0.19875,-0.0132 -0.52005,-0.0298 -0.9639,-0.0497 -0.44388,-0.0199 -0.90761,-0.0331 -1.39121,-0.0397 -0.48362,-0.007 -0.93741,-0.0133 -1.36139,-0.0199 -0.424,-0.007 -0.71549,-0.01 -0.87447,-0.01 l -7.53238,0 0,-0.0795 c 0.0927,-0.27824 0.17555,-0.63598 0.24843,-1.07322 0.0729,-0.43723 0.13249,-0.97715 0.17887,-1.61976 0.0464,-0.6426 0.0828,-1.40776 0.10931,-2.29548 0.0265,-0.88772 0.0397,-1.92781 0.0397,-3.12028 l 0,-5.00833 c 0,-1.19245 -0.0133,-2.22923 -0.0397,-3.11034 -0.0265,-0.88108 -0.0629,-1.64293 -0.10931,-2.28555 -0.0464,-0.64259 -0.106,-1.18251 -0.17887,-1.61976 -0.0729,-0.43722 -0.15569,-0.79495 -0.24843,-1.07322 l 0,-0.0795 z"
         style="text-align:center;text-anchor:middle;fill:#ffffff;fill-opacity:1"
         id="path4811"
         inkscape:connector-curvature="0" />
      <path
         d="m 595.20782,476.25939 -1.5502,3.69663 c -0.38425,0.17224 -0.81818,0.32792 -1.30177,0.46704 -0.48362,0.13912 -0.9838,0.25506 -1.50051,0.3478 -0.51675,0.0927 -1.04342,0.16231 -1.58001,0.20869 -0.53662,0.0464 -1.04342,0.0696 -1.52039,0.0696 -1.66946,0 -3.21634,-0.24512 -4.64066,-0.73536 -1.42434,-0.49023 -2.65324,-1.20902 -3.6867,-2.15636 -1.03347,-0.94734 -1.84169,-2.10999 -2.42467,-3.48795 -0.58298,-1.37795 -0.87447,-2.95465 -0.87447,-4.7301 0,-1.56344 0.30474,-3.01426 0.91422,-4.35248 0.60948,-1.33819 1.45083,-2.50084 2.52404,-3.48795 1.07321,-0.98708 2.34186,-1.75886 3.80594,-2.31536 1.46407,-0.55646 3.05071,-0.83471 4.75991,-0.83473 0.38423,2e-5 0.79165,0.0166 1.22227,0.0497 0.4306,0.0331 0.8579,0.0828 1.2819,0.14906 0.42397,0.0663 0.83471,0.14245 1.23221,0.22855 0.39747,0.0861 0.76846,0.17558 1.11296,0.26831 l 1.49058,3.57738 -0.23849,0.13912 c -0.35776,-0.43722 -0.78506,-0.84133 -1.2819,-1.21234 -0.49687,-0.37096 -1.04011,-0.68564 -1.62969,-0.94403 -0.58963,-0.25834 -1.20904,-0.4604 -1.85826,-0.60617 -0.64924,-0.14572 -1.31172,-0.21859 -1.98743,-0.21861 -1.09973,2e-5 -2.10338,0.19214 -3.01097,0.57635 -0.9076,0.38426 -1.6827,0.94405 -2.3253,1.67939 -0.64261,0.73536 -1.14278,1.63302 -1.50051,2.69297 -0.35774,1.05998 -0.53661,2.25907 -0.53661,3.59726 0,1.51046 0.17224,2.91823 0.51674,4.2233 0.34448,1.30509 0.86121,2.43793 1.5502,3.39851 0.68896,0.9606 1.55019,1.71583 2.58366,2.26568 1.03346,0.54986 2.23917,0.82479 3.61713,0.82479 0.66247,0 1.31501,-0.0828 1.95763,-0.24843 0.64259,-0.16562 1.25207,-0.4008 1.82844,-0.70554 0.57634,-0.30474 1.10301,-0.67242 1.58001,-1.10303 0.47696,-0.43061 0.8877,-0.9109 1.23221,-1.44089 z"
         style="text-align:center;text-anchor:middle;fill:#ffffff;fill-opacity:1"
         id="path4813"
         inkscape:connector-curvature="0" />
      <path
         d="m 603.87304,460.79714 c -1.20571,2e-5 -2.30211,0.053 -3.2892,0.15899 -0.9871,0.10602 -1.83838,0.21864 -2.55386,0.33787 -0.82147,0.14576 -1.56345,0.30476 -2.22592,0.47698 l 0.39748,-2.56379 c 0.19875,0.0265 0.52336,0.0464 0.97385,0.0596 0.45048,0.0133 0.92415,0.0232 1.42101,0.0298 0.49686,0.007 0.96722,0.0133 1.41108,0.0199 0.44386,0.007 0.75191,0.01 0.92416,0.01 l 9.40057,0 c 0.15898,2e-5 0.45378,-0.003 0.88441,-0.01 0.43059,-0.007 0.89102,-0.0132 1.38127,-0.0199 0.49021,-0.007 0.96057,-0.0165 1.41107,-0.0298 0.45047,-0.0132 0.77509,-0.0331 0.97385,-0.0596 l 0.39749,2.56379 c -0.636,-0.17222 -1.36473,-0.33122 -2.18618,-0.47698 -0.70225,-0.11923 -1.54691,-0.23185 -2.53398,-0.33787 -0.98711,-0.10597 -2.09676,-0.15897 -3.32896,-0.15899 l 0,11.70599 c -10e-6,1.19247 0.0132,2.23256 0.0398,3.12028 0.0265,0.88772 0.0629,1.65288 0.10931,2.29548 0.0464,0.64261 0.10267,1.18253 0.16893,1.61976 0.0662,0.43724 0.14573,0.79498 0.23849,1.07322 l 0,0.0795 -4.59097,0 0,-0.0795 c 0.0927,-0.27824 0.17223,-0.63598 0.23849,-1.07322 0.0662,-0.43723 0.12586,-0.97715 0.17887,-1.61976 0.053,-0.6426 0.0927,-1.40776 0.11924,-2.29548 0.0265,-0.88772 0.0397,-1.92781 0.0397,-3.12028 z"
         style="text-align:center;text-anchor:middle;fill:#ffffff;fill-opacity:1"
         id="path4815"
         inkscape:connector-curvature="0" />
      <path
         d="m 634.32056,467.4153 c -2e-5,-1.1792 -0.007,-2.20604 -0.0199,-3.08053 -0.0133,-0.87445 -0.0398,-1.62968 -0.0795,-2.26567 -0.0398,-0.63596 -0.0861,-1.16926 -0.13912,-1.59989 -0.053,-0.43059 -0.11926,-0.78501 -0.19874,-1.06328 l 0,-0.0795 2.92153,0 0,0.0795 c -0.0795,0.27827 -0.14577,0.636 -0.19874,1.07322 -0.053,0.43725 -0.0994,0.97717 -0.13912,1.61976 -0.0398,0.64262 -0.0663,1.40447 -0.0795,2.28555 -0.0133,0.88111 -0.0199,1.91789 -0.0199,3.11034 l 0,5.70394 c -2e-5,1.43095 -0.22195,2.64991 -0.66579,3.65688 -0.44388,1.00697 -1.05667,1.83175 -1.83837,2.47435 -0.78175,0.64261 -1.71253,1.11297 -2.79235,1.41108 -1.07986,0.29812 -2.26238,0.44718 -3.54757,0.44718 -1.29847,0 -2.50418,-0.14244 -3.61714,-0.4273 -1.11297,-0.28487 -2.07687,-0.73867 -2.89171,-1.3614 -0.81486,-0.62272 -1.45746,-1.43095 -1.92782,-2.42467 -0.47036,-0.99371 -0.70554,-2.19942 -0.70554,-3.61713 l 0,-5.86293 c 0,-1.19245 -0.0132,-2.22923 -0.0397,-3.11034 -0.0265,-0.88108 -0.0663,-1.64293 -0.11924,-2.28555 -0.053,-0.64259 -0.11263,-1.18251 -0.17887,-1.61976 -0.0662,-0.43722 -0.14575,-0.79495 -0.23849,-1.07322 l 0,-0.0795 4.59097,0 0,0.0795 c -0.0928,0.27827 -0.17225,0.63269 -0.23849,1.06328 -0.0663,0.43063 -0.12256,0.96393 -0.16893,1.59989 -0.0464,0.63599 -0.0828,1.39122 -0.10931,2.26567 -0.0265,0.87449 -0.0398,1.90133 -0.0397,3.08053 l 0,5.94243 c -10e-6,1.17922 0.17886,2.14975 0.53661,2.91159 0.35773,0.76186 0.82809,1.36802 1.41108,1.81851 0.58297,0.45048 1.24545,0.76516 1.98743,0.94403 0.74197,0.17887 1.50382,0.2683 2.28555,0.2683 0.79497,0 1.56675,-0.0894 2.31537,-0.2683 0.74858,-0.17887 1.41768,-0.49355 2.00731,-0.94403 0.58958,-0.45049 1.05994,-1.05665 1.41108,-1.81851 0.35109,-0.76184 0.52665,-1.73237 0.52667,-2.91159 z"
         style="text-align:center;text-anchor:middle;fill:#ffffff;fill-opacity:1"
         id="path4817"
         inkscape:connector-curvature="0" />
      <path
         d="m 646.00667,470.31695 c 0.26498,0.0398 0.53328,0.0696 0.80491,0.0894 0.27161,0.0199 0.53328,0.0298 0.78503,0.0298 1.65619,10e-6 2.91159,-0.44385 3.76619,-1.33158 0.85459,-0.88771 1.28189,-2.21929 1.2819,-3.99475 -10e-6,-1.45743 -0.34119,-2.61014 -1.02353,-3.45813 -0.68236,-0.84796 -1.68602,-1.27194 -3.01096,-1.27196 -0.424,2e-5 -0.7983,0.0166 -1.12291,0.0497 -0.32462,0.0331 -0.59955,0.0696 -0.82478,0.10931 -0.25175,0.053 -0.47037,0.10602 -0.65585,0.159 z m 3.04077,1.29184 c -0.265,0.0398 -0.52668,0.0629 -0.78504,0.0696 -0.25837,0.007 -0.52005,0.01 -0.78503,0.01 -0.212,10e-6 -0.44387,-0.007 -0.6956,-0.0199 -0.25175,-0.0132 -0.51012,-0.0331 -0.7751,-0.0596 l 0,0.97384 c -10e-6,1.17922 0.0132,2.20937 0.0397,3.09046 0.0265,0.8811 0.0629,1.63964 0.10931,2.27562 0.0464,0.63598 0.10268,1.16927 0.16894,1.59988 0.0662,0.43061 0.14573,0.78504 0.23849,1.06328 l 0,0.0795 -4.59098,0 0,-0.0795 c 0.0928,-0.27824 0.17556,-0.63598 0.24843,-1.07322 0.0729,-0.43723 0.13249,-0.97715 0.17887,-1.61976 0.0464,-0.6426 0.0828,-1.40776 0.10931,-2.29548 0.0265,-0.88772 0.0397,-1.92781 0.0398,-3.12028 l 0,-5.00833 c -10e-6,-1.19245 -0.0133,-2.22923 -0.0398,-3.11034 -0.0265,-0.88108 -0.0629,-1.64293 -0.10931,-2.28555 -0.0464,-0.64259 -0.106,-1.18251 -0.17887,-1.61976 -0.0729,-0.43722 -0.15568,-0.79495 -0.24843,-1.07322 l 0,-0.0795 c 0.21199,0.0133 0.43723,0.0265 0.67573,0.0397 0.19874,0.0133 0.42067,0.0232 0.66579,0.0298 0.24511,0.007 0.49354,0.01 0.74529,0.01 0.42398,2e-5 1.05333,-0.0397 1.88806,-0.11924 0.83472,-0.0795 1.81518,-0.11923 2.94141,-0.11925 1.13945,2e-5 2.17623,0.13914 3.11033,0.41736 0.93408,0.27826 1.73568,0.67575 2.4048,1.19246 0.66909,0.51676 1.18582,1.14611 1.5502,1.88807 0.36435,0.74199 0.54653,1.57009 0.54654,2.48429 -10e-6,0.71549 -0.0994,1.36803 -0.29811,1.95763 -0.19876,0.58961 -0.477,1.1196 -0.83472,1.58994 -0.35776,0.47038 -0.78174,0.88442 -1.27196,1.24215 -0.49025,0.35775 -1.03348,0.66911 -1.6297,0.9341 l 4.15374,5.86293 c 0.35772,0.47699 0.71877,0.9341 1.08315,1.37133 0.36435,0.43724 0.71215,0.8281 1.04341,1.17259 0.33122,0.34449 0.64258,0.63267 0.93409,0.86453 0.29147,0.23187 0.53659,0.38755 0.73535,0.46705 l 0,0.0795 -5.20708,0 c -10e-6,-0.11925 -0.0828,-0.32793 -0.24843,-0.62605 -0.16563,-0.29811 -0.35775,-0.60947 -0.57635,-0.93409 -0.21864,-0.32461 -0.43725,-0.63929 -0.65586,-0.94403 -0.21863,-0.30474 -0.38094,-0.52998 -0.48692,-0.67573 z"
         style="text-align:center;text-anchor:middle;fill:#ffffff;fill-opacity:1"
         id="path4819"
         inkscape:connector-curvature="0" />
      <path
         d="m 662.32352,459.32644 c 1.29845,2e-5 2.63003,-0.003 3.99475,-0.01 1.36469,-0.007 2.63003,-0.0199 3.796,-0.0398 1.16595,-0.0199 2.1696,-0.043 3.01096,-0.0696 0.84134,-0.0265 1.3945,-0.0662 1.65951,-0.11925 l -0.7751,2.14643 c -0.35775,-0.0927 -0.76186,-0.17885 -1.21233,-0.25836 -0.3975,-0.0662 -0.8778,-0.12917 -1.4409,-0.18881 -0.56311,-0.0596 -1.21565,-0.0894 -1.95762,-0.0894 -0.265,2e-5 -0.56974,0.01 -0.91422,0.0298 -0.3445,0.0199 -0.67574,0.0431 -0.99372,0.0696 -0.37099,0.0265 -0.74861,0.053 -1.13284,0.0795 l 0,7.85037 c 1.07321,-0.0132 2.04043,-0.0397 2.90166,-0.0795 0.86121,-0.0397 1.59656,-0.0927 2.20605,-0.159 0.71547,-0.053 1.34482,-0.12586 1.88807,-0.21861 l -0.47699,2.36504 c -0.72874,-0.0927 -1.46409,-0.17223 -2.20605,-0.23849 -0.63599,-0.0662 -1.33822,-0.12255 -2.10668,-0.16893 -0.76849,-0.0464 -1.50384,-0.0696 -2.20606,-0.0696 l 0,9.02296 c 1.23221,0 2.36504,-0.0497 3.39852,-0.14906 1.03345,-0.0994 1.93442,-0.20868 2.70291,-0.32793 0.90096,-0.14574 1.71581,-0.31136 2.44455,-0.49686 l -0.45711,2.60354 c -0.19876,-0.0132 -0.52006,-0.0298 -0.96391,-0.0497 -0.44387,-0.0199 -0.90761,-0.0331 -1.3912,-0.0397 -0.48363,-0.007 -0.93742,-0.0133 -1.3614,-0.0199 -0.42399,-0.007 -0.71548,-0.01 -0.87447,-0.01 l -7.53238,0 0,-0.0795 c 0.0927,-0.27824 0.17555,-0.63598 0.24843,-1.07322 0.0729,-0.43723 0.13249,-0.97715 0.17887,-1.61976 0.0464,-0.6426 0.0828,-1.40776 0.10931,-2.29548 0.0265,-0.88772 0.0397,-1.92781 0.0398,-3.12028 l 0,-5.00833 c -1e-5,-1.19245 -0.0133,-2.22923 -0.0398,-3.11034 -0.0265,-0.88108 -0.0629,-1.64293 -0.10931,-2.28555 -0.0464,-0.64259 -0.106,-1.18251 -0.17887,-1.61976 -0.0729,-0.43722 -0.15569,-0.79495 -0.24843,-1.07322 l 0,-0.0795 z"
         style="text-align:center;text-anchor:middle;fill:#ffffff;fill-opacity:1"
         id="path4821"
         inkscape:connector-curvature="0" />
      <path
         d="m 690.40598,480.61187 c 0.14575,-0.21199 0.31137,-0.52667 0.49686,-0.94403 0.18549,-0.41736 0.33124,-0.94403 0.43724,-1.58001 0.14574,-0.92747 0.30805,-1.97087 0.48692,-3.13021 0.17887,-1.15933 0.36436,-2.37498 0.55648,-3.64695 0.19212,-1.27195 0.38424,-2.57372 0.57636,-3.90531 0.19211,-1.33157 0.37761,-2.64327 0.55648,-3.93512 0.17886,-1.29182 0.35111,-2.53727 0.51673,-3.73638 0.16562,-1.19906 0.31468,-2.29546 0.44718,-3.28921 0.13249,-0.99369 0.2418,-1.85822 0.32792,-2.5936 0.0861,-0.73532 0.14906,-1.28849 0.18881,-1.65951 l 2.52404,0 12.50097,23.37224 12.4016,-23.37224 1.88806,0 3.2594,23.61074 c 0.0927,0.74198 0.19208,1.37795 0.29811,1.90793 0.10596,0.52999 0.21196,0.98379 0.31799,1.3614 0.10596,0.37761 0.20864,0.68898 0.30805,0.93409 0.0993,0.24512 0.1954,0.44718 0.28818,0.60617 l 0,0.0795 -5.00833,0 0,-0.0795 c 0.0662,-0.14575 0.12914,-0.38424 0.1888,-0.71548 0.0596,-0.33124 0.0894,-0.72872 0.0894,-1.19246 -4e-5,-0.17224 -0.007,-0.3478 -0.0199,-0.52667 -0.0133,-0.17887 -0.0332,-0.3743 -0.0596,-0.58629 l -2.52404,-19.03963 -11.72587,22.06053 -1.37133,-0.159 -11.80537,-22.10028 c -0.46374,3.14017 -0.86785,6.04182 -1.21234,8.70497 -0.14575,1.13948 -0.29149,2.27562 -0.43723,3.40845 -0.14575,1.13285 -0.27494,2.1895 -0.38755,3.16996 -0.11263,0.98048 -0.20206,1.84501 -0.26831,2.5936 -0.0662,0.74861 -0.0994,1.30178 -0.0994,1.65951 0,0.45049 0.0132,0.84798 0.0397,1.19246 0.0265,0.34449 0.053,0.63598 0.0795,0.87448 0.0397,0.27824 0.0795,0.52335 0.11924,0.73535 l -3.97487,0 z"
         style="text-align:center;text-anchor:middle;fill:#ffffff;fill-opacity:1"
         id="path4823"
         inkscape:connector-curvature="0" />
      <path
         d="m 731.86387,469.93934 c 0,-1.56344 0.2948,-3.01426 0.88441,-4.35248 0.5896,-1.33819 1.39451,-2.50084 2.41473,-3.48795 1.02021,-0.98708 2.22592,-1.75886 3.61713,-2.31536 1.3912,-0.55646 2.88177,-0.83471 4.47173,-0.83473 1.56344,2e-5 3.03745,0.2617 4.42205,0.78504 1.38456,0.52338 2.59027,1.26867 3.61713,2.23586 1.02682,0.96724 1.83836,2.13983 2.43461,3.51777 0.59621,1.37796 0.89432,2.92154 0.89435,4.63072 -3e-5,1.41771 -0.25177,2.78573 -0.75523,4.10405 -0.50351,1.31834 -1.23886,2.4843 -2.20605,3.49789 -0.96724,1.0136 -2.1597,1.82182 -3.57739,2.42467 -1.41772,0.60286 -3.04079,0.90429 -4.86921,0.90429 -1.55022,0 -3.01429,-0.25837 -4.39224,-0.7751 -1.37796,-0.51674 -2.58367,-1.2554 -3.61713,-2.21599 -1.03347,-0.9606 -1.84832,-2.12656 -2.44454,-3.49789 -0.59624,-1.37132 -0.89435,-2.91159 -0.89435,-4.62079 z m 11.84511,9.69869 c 1.00696,0 1.93443,-0.19875 2.78241,-0.59623 0.84796,-0.39749 1.58,-0.96722 2.19612,-1.7092 0.61609,-0.74197 1.09307,-1.64625 1.43095,-2.71285 0.33785,-1.06658 0.50678,-2.26898 0.5068,-3.60719 -2e-5,-1.52369 -0.16233,-2.93477 -0.48692,-4.23324 -0.32464,-1.29844 -0.81487,-2.42134 -1.4707,-3.3687 -0.65588,-0.94733 -1.47404,-1.68931 -2.45449,-2.22593 -0.98048,-0.53659 -2.12657,-0.80489 -3.43826,-0.80491 -1.00698,2e-5 -1.93445,0.19214 -2.78241,0.57635 -0.84798,0.38426 -1.58002,0.94074 -2.19612,1.66945 -0.61611,0.72874 -1.0964,1.62309 -1.44089,2.68304 -0.34449,1.05998 -0.51674,2.26569 -0.51673,3.61713 -10e-6,1.51046 0.16893,2.91823 0.5068,4.2233 0.33785,1.30509 0.83471,2.43793 1.49057,3.39851 0.65585,0.9606 1.47401,1.71583 2.45449,2.26568 0.98045,0.54986 2.11991,0.82479 3.41838,0.82479 z"
         style="text-align:center;text-anchor:middle;fill:#ffffff;fill-opacity:1"
         id="path4825"
         inkscape:connector-curvature="0" />
      <path
         d="m 762.78837,460.73751 c -0.0132,1.08649 -0.0265,2.13983 -0.0398,3.16003 0,0.43725 -0.003,0.88442 -0.01,1.34152 -0.007,0.45712 -0.0133,0.91092 -0.0199,1.36139 -0.007,0.4505 -0.01,0.8778 -0.01,1.2819 0,0.40412 0,0.76517 0,1.08315 0,0.66249 0.003,1.46077 0.01,2.39486 0.007,0.9341 0.0166,1.89138 0.0298,2.87184 0.0133,0.98048 0.0331,1.92451 0.0596,2.8321 0.0265,0.9076 0.0596,1.66613 0.0994,2.27561 0.13249,0.0265 0.30473,0.0497 0.51673,0.0696 0.21199,0.0199 0.43392,0.0398 0.66579,0.0596 0.23186,0.0199 0.46042,0.0331 0.68567,0.0398 0.22523,0.007 0.41735,0.01 0.57635,0.01 0.72872,0 1.46738,-0.0464 2.21599,-0.13912 0.74859,-0.0928 1.47069,-0.2683 2.16631,-0.52667 0.69559,-0.25837 1.34813,-0.61279 1.95762,-1.06328 0.60947,-0.45048 1.14276,-1.03015 1.59989,-1.739 0.45709,-0.70885 0.81483,-1.56345 1.07321,-2.5638 0.25835,-1.00033 0.38754,-2.18285 0.38755,-3.54757 -10e-6,-3.00764 -0.7188,-5.32631 -2.15636,-6.95602 -1.4376,-1.62968 -3.58071,-2.44453 -6.42936,-2.44455 -0.27825,2e-5 -0.57305,0.007 -0.88441,0.0199 -0.31137,0.0133 -0.61942,0.0298 -0.92415,0.0497 -0.30475,0.0199 -0.59293,0.0431 -0.86454,0.0696 -0.27162,0.0265 -0.5068,0.0464 -0.70554,0.0596 z m -4.11399,-1.45082 c 0.31799,0.0133 0.6161,0.0199 0.89435,0.0199 0.23849,0.0133 0.47035,0.0199 0.6956,0.0199 0.22524,2e-5 0.39086,2e-5 0.49686,0 0.18549,2e-5 0.51673,-0.007 0.99372,-0.0199 0.47697,-0.0132 1.01689,-0.0298 1.61976,-0.0497 0.60284,-0.0199 1.23882,-0.0397 1.90793,-0.0596 0.6691,-0.0199 1.28851,-0.0298 1.85826,-0.0298 1.55018,2e-5 3.02751,0.17889 4.43198,0.53661 1.40443,0.35776 2.63996,0.94405 3.70656,1.75888 1.06657,0.81487 1.91123,1.88146 2.53398,3.19977 0.62271,1.31835 0.93408,2.94473 0.9341,4.87915 -2e-5,2.0802 -0.35776,3.84239 -1.07322,5.28658 -0.71549,1.44421 -1.68271,2.62011 -2.90165,3.5277 -1.21898,0.9076 -2.63337,1.56345 -4.24318,1.96756 -1.60983,0.40411 -3.30909,0.60617 -5.09777,0.60617 -0.42399,0 -0.95398,-0.0133 -1.58995,-0.0398 -0.63598,-0.0265 -1.28521,-0.053 -1.94768,-0.0795 -0.66249,-0.0265 -1.28853,-0.053 -1.87813,-0.0795 -0.58961,-0.0265 -1.03678,-0.0397 -1.34152,-0.0397 l 0,-0.0795 c 0.0927,-0.27824 0.17555,-0.63598 0.24843,-1.07322 0.0729,-0.43723 0.13249,-0.97715 0.17887,-1.61976 0.0464,-0.6426 0.0828,-1.40776 0.10931,-2.29548 0.0265,-0.88772 0.0397,-1.92781 0.0397,-3.12028 l 0,-5.00833 c -10e-6,-1.19245 -0.0133,-2.23254 -0.0397,-3.12028 -0.0265,-0.8877 -0.0629,-1.65618 -0.10931,-2.30542 -0.0464,-0.64921 -0.106,-1.19244 -0.17887,-1.6297 -0.0729,-0.43722 -0.15568,-0.79495 -0.24843,-1.07322 z"
         style="text-align:center;text-anchor:middle;fill:#ffffff;fill-opacity:1"
         id="path4827"
         inkscape:connector-curvature="0" />
      <path
         d="m 782.92112,459.32644 c 1.29845,2e-5 2.63003,-0.003 3.99474,-0.01 1.3647,-0.007 2.63003,-0.0199 3.796,-0.0398 1.16595,-0.0199 2.16961,-0.043 3.01097,-0.0696 0.84133,-0.0265 1.3945,-0.0662 1.65951,-0.11925 l -0.7751,2.14643 c -0.35776,-0.0927 -0.76187,-0.17885 -1.21234,-0.25836 -0.3975,-0.0662 -0.8778,-0.12917 -1.44089,-0.18881 -0.56312,-0.0596 -1.21566,-0.0894 -1.95762,-0.0894 -0.26501,2e-5 -0.56974,0.01 -0.91422,0.0298 -0.3445,0.0199 -0.67574,0.0431 -0.99372,0.0696 -0.371,0.0265 -0.74861,0.053 -1.13284,0.0795 l 0,7.85037 c 1.07321,-0.0132 2.04042,-0.0397 2.90166,-0.0795 0.86121,-0.0397 1.59656,-0.0927 2.20605,-0.159 0.71546,-0.053 1.34482,-0.12586 1.88806,-0.21861 l -0.47698,2.36504 c -0.72874,-0.0927 -1.46409,-0.17223 -2.20606,-0.23849 -0.63599,-0.0662 -1.33821,-0.12255 -2.10668,-0.16893 -0.76848,-0.0464 -1.50383,-0.0696 -2.20605,-0.0696 l 0,9.02296 c 1.2322,0 2.36504,-0.0497 3.39851,-0.14906 1.03346,-0.0994 1.93443,-0.20868 2.70292,-0.32793 0.90095,-0.14574 1.7158,-0.31136 2.44454,-0.49686 l -0.45711,2.60354 c -0.19876,-0.0132 -0.52006,-0.0298 -0.9639,-0.0497 -0.44388,-0.0199 -0.90761,-0.0331 -1.39121,-0.0397 -0.48362,-0.007 -0.93742,-0.0133 -1.36139,-0.0199 -0.424,-0.007 -0.71549,-0.01 -0.87447,-0.01 l -7.53238,0 0,-0.0795 c 0.0927,-0.27824 0.17555,-0.63598 0.24842,-1.07322 0.0729,-0.43723 0.1325,-0.97715 0.17887,-1.61976 0.0464,-0.6426 0.0828,-1.40776 0.10931,-2.29548 0.0265,-0.88772 0.0398,-1.92781 0.0398,-3.12028 l 0,-5.00833 c 0,-1.19245 -0.0132,-2.22923 -0.0398,-3.11034 -0.0265,-0.88108 -0.0629,-1.64293 -0.10931,-2.28555 -0.0464,-0.64259 -0.106,-1.18251 -0.17887,-1.61976 -0.0729,-0.43722 -0.15568,-0.79495 -0.24842,-1.07322 l 0,-0.0795 z"
         style="text-align:center;text-anchor:middle;fill:#ffffff;fill-opacity:1"
         id="path4829"
         inkscape:connector-curvature="0" />
      <path
         d="m 803.96803,479.14117 c 1.2322,0 2.36835,-0.0497 3.40845,-0.14906 1.04008,-0.0994 1.95099,-0.20868 2.73273,-0.32793 0.9142,-0.14574 1.7423,-0.31136 2.48429,-0.49686 l -0.45711,2.64329 c -0.18551,-0.0132 -0.50019,-0.0298 -0.94403,-0.0497 -0.44388,-0.0199 -0.91092,-0.0331 -1.40114,-0.0397 -0.49025,-0.007 -0.94736,-0.0133 -1.37133,-0.0199 -0.424,-0.007 -0.71549,-0.01 -0.87448,-0.01 l -7.61187,0 0,-0.0795 c 0.0927,-0.27824 0.17555,-0.63598 0.24843,-1.07322 0.0729,-0.43723 0.13249,-0.97715 0.17886,-1.61976 0.0464,-0.6426 0.0828,-1.40776 0.10931,-2.29548 0.0265,-0.88772 0.0398,-1.92781 0.0398,-3.12028 l 0,-5.00833 c 0,-1.19245 -0.0133,-2.22923 -0.0398,-3.11034 -0.0265,-0.88108 -0.0629,-1.64293 -0.10931,-2.28555 -0.0464,-0.64259 -0.10599,-1.18251 -0.17886,-1.61976 -0.0729,-0.43722 -0.15569,-0.79495 -0.24843,-1.07322 l 0,-0.0795 4.59097,0 0,0.0795 c -0.0927,0.27827 -0.17225,0.636 -0.23849,1.07322 -0.0662,0.43725 -0.12257,0.97717 -0.16893,1.61976 -0.0464,0.64262 -0.0828,1.40447 -0.10931,2.28555 -0.0265,0.88111 -0.0398,1.91789 -0.0398,3.11034 z"
         style="text-align:center;text-anchor:middle;fill:#ffffff;fill-opacity:1"
         id="path4831"
         inkscape:connector-curvature="0" />
      <path
         d="m 816.72739,467.4948 c 0,-1.19245 -0.0132,-2.22923 -0.0398,-3.11034 -0.0265,-0.88108 -0.0629,-1.64293 -0.10931,-2.28555 -0.0464,-0.64259 -0.106,-1.18251 -0.17887,-1.61976 -0.0729,-0.43722 -0.15568,-0.79495 -0.24843,-1.07322 l 0,-0.0795 4.61085,0 0,0.0795 c -0.0928,0.27827 -0.17556,0.636 -0.24843,1.07322 -0.0729,0.43725 -0.1325,0.97717 -0.17887,1.61976 -0.0464,0.64262 -0.0828,1.40447 -0.1093,2.28555 -0.0265,0.88111 -0.0398,1.91789 -0.0398,3.11034 l 0,5.00833 c -10e-6,1.19247 0.0132,2.23256 0.0398,3.12028 0.0265,0.88772 0.0629,1.65288 0.1093,2.29548 0.0464,0.64261 0.10599,1.18253 0.17887,1.61976 0.0729,0.43724 0.15568,0.79498 0.24843,1.07322 l 0,0.0795 -4.61085,0 0,-0.0795 c 0.0928,-0.27824 0.17556,-0.63598 0.24843,-1.07322 0.0729,-0.43723 0.1325,-0.97715 0.17887,-1.61976 0.0464,-0.6426 0.0828,-1.40776 0.10931,-2.29548 0.0265,-0.88772 0.0398,-1.92781 0.0398,-3.12028 z"
         style="text-align:center;text-anchor:middle;fill:#ffffff;fill-opacity:1"
         id="path4833"
         inkscape:connector-curvature="0" />
      <path
         d="m 845.42595,480.96961 -0.7751,0 -15.80011,-15.54175 0,7.07527 c -10e-6,1.19247 0.007,2.23256 0.0199,3.12028 0.0132,0.88772 0.0364,1.65288 0.0696,2.29548 0.0331,0.64261 0.0795,1.18253 0.13912,1.61976 0.0596,0.43724 0.1358,0.79498 0.22856,1.07322 l 0,0.0795 -2.98116,0 0,-0.0795 c 0.0928,-0.27824 0.17225,-0.63598 0.2385,-1.07322 0.0662,-0.43723 0.11924,-0.97715 0.15899,-1.61976 0.0397,-0.6426 0.0662,-1.40776 0.0795,-2.29548 0.0132,-0.88772 0.0199,-1.92781 0.0199,-3.12028 l 0,-5.00833 c 0,-1.19245 -0.007,-2.22923 -0.0199,-3.11034 -0.0132,-0.88108 -0.0398,-1.64293 -0.0795,-2.28555 -0.0398,-0.64259 -0.0928,-1.18251 -0.15899,-1.61976 -0.0663,-0.43722 -0.14575,-0.79495 -0.2385,-1.07322 l 0,-0.0795 1.23221,0 15.81999,15.62124 0,-7.45288 c -2e-5,-1.19245 -0.007,-2.22923 -0.0199,-3.11034 -0.0133,-0.88108 -0.0365,-1.64293 -0.0696,-2.28555 -0.0331,-0.64259 -0.0762,-1.18251 -0.12919,-1.61976 -0.053,-0.43722 -0.12589,-0.79495 -0.21862,-1.07322 l 0,-0.0795 2.96128,0 0,0.0795 c -0.0928,0.27827 -0.16895,0.636 -0.22855,1.07322 -0.0597,0.43725 -0.10933,0.97717 -0.14906,1.61976 -0.0398,0.64262 -0.0663,1.40447 -0.0795,2.28555 -0.0133,0.88111 -0.0199,1.91789 -0.0199,3.11034 z"
         style="text-align:center;text-anchor:middle;fill:#ffffff;fill-opacity:1"
         id="path4835"
         inkscape:connector-curvature="0" />
      <path
         d="m 870.66638,478.28657 c -3e-5,0.17225 -0.0166,0.31799 -0.0497,0.43724 -0.0331,0.11924 -0.10933,0.21862 -0.22855,0.29811 -0.94074,0.66248 -2.03715,1.18915 -3.28921,1.58001 -1.2521,0.39086 -2.71949,0.5863 -4.40217,0.5863 -1.8947,0 -3.62045,-0.27162 -5.17727,-0.81485 -1.55683,-0.54323 -2.89172,-1.30177 -4.00468,-2.27562 -1.11297,-0.97384 -1.9775,-2.14311 -2.5936,-3.50782 -0.61611,-1.3647 -0.92416,-2.87515 -0.92416,-4.53135 0,-1.41769 0.28155,-2.79565 0.84466,-4.13387 0.5631,-1.33819 1.37464,-2.52402 2.43461,-3.55751 1.05996,-1.03345 2.34848,-1.86154 3.86556,-2.48429 1.51706,-0.62271 3.22957,-0.93408 5.13752,-0.9341 0.9937,2e-5 1.93442,0.0563 2.82216,0.16893 0.8877,0.11265 1.7423,0.2882 2.56379,0.52668 l 1.49058,3.57738 -0.19875,0.13912 c -0.79499,-0.9142 -1.75558,-1.63962 -2.88178,-2.17624 -1.12623,-0.53659 -2.41806,-0.80489 -3.8755,-0.80491 -1.19247,2e-5 -2.28887,0.19214 -3.2892,0.57635 -1.00036,0.38426 -1.8682,0.94405 -2.60354,1.67939 -0.73536,0.73536 -1.30841,1.63965 -1.71914,2.71285 -0.41074,1.07322 -0.61611,2.29218 -0.6161,3.65688 -10e-6,1.53696 0.19211,2.96128 0.57636,4.27298 0.38423,1.31172 0.96058,2.44787 1.72906,3.40845 0.76847,0.9606 1.71913,1.71251 2.85197,2.25574 1.13283,0.54324 2.45447,0.81485 3.96494,0.81485 1.29844,0 2.30872,-0.16562 3.03084,-0.49686 0.72208,-0.33123 1.08313,-0.70885 1.08315,-1.13283 l 0,-1.05335 c -2e-5,-0.68897 -0.007,-1.2852 -0.0199,-1.78869 -0.0133,-0.50348 -0.0331,-0.9374 -0.0596,-1.30177 -0.0265,-0.36435 -0.063,-0.67903 -0.10931,-0.94403 -0.0464,-0.26498 -0.1027,-0.5101 -0.16893,-0.73535 l 0,-0.0795 4.23324,0 0,0.0795 c -0.0663,0.19875 -0.12589,0.43724 -0.17887,0.71548 -0.053,0.27824 -0.0961,0.60948 -0.12918,0.99371 -0.0332,0.38425 -0.0597,0.83473 -0.0795,1.35146 -0.0199,0.51674 -0.0298,1.11297 -0.0298,1.78869 z"
         style="text-align:center;text-anchor:middle;fill:#ffffff;fill-opacity:1"
         id="path4837"
         inkscape:connector-curvature="0" />
    </g>
    <rect
       style="fill:#c764d9;fill-opacity:1;stroke:none"
       id="rect4892"
       width="114.22273"
       height="114.22273"
       x="-173.65149"
       y="249.78648"
       transform="matrix(0.89442719,-0.4472136,0.89442719,0.4472136,0,0)"
       inkscape:export-filename="C:\Users\wilkie\occam\logo_large.png"
       inkscape:export-xdpi="62.269939"
       inkscape:export-ydpi="62.269939" />
    <rect
       style="fill:#9f45af;fill-opacity:1;stroke:none"
       id="rect4907"
       width="115.43925"
       height="110.40596"
       x="196.45573"
       y="335.8031"
       transform="matrix(0.8949854,-0.44609543,0,1,0,0)"
       inkscape:export-filename="C:\Users\wilkie\occam\logo_large.png"
       inkscape:export-xdpi="62.269939"
       inkscape:export-ydpi="62.269939" />
    <rect
       transform="matrix(-0.8949854,-0.44609543,0,1,0,0)"
       y="166.33789"
       x="-184.8806"
       height="110.40596"
       width="115.43925"
       id="rect4938"
       style="fill:#9f45af;fill-opacity:1;stroke:none"
       inkscape:export-filename="C:\Users\wilkie\occam\logo_large.png"
       inkscape:export-xdpi="62.269939"
       inkscape:export-ydpi="62.269939" />
    <path
       style="fill:#488e9c;fill-opacity:1;stroke:none"
       d="m 54.754666,314.01912 -25.912125,12.90512 141.684639,70.74044 c 48.49182,-24.10491 98.57501,-49.16285 141.78653,-70.74044 l -25.87816,-12.90512 -4.44888,2.20745 15.45219,7.70912 -3.93946,1.96973 -15.45218,-7.70912 -6.58841,3.29421 10.3241,5.12808 -3.46401,1.73201 -10.32409,-5.16205 -6.96198,3.464 15.41823,7.70912 -3.93946,1.96972 -15.41822,-7.70911 -6.58841,3.32817 10.3241,5.12808 -3.46401,1.73201 -10.32409,-5.16205 -6.96198,3.464 15.41823,7.70912 -3.93946,1.96972 -15.41823,-7.70911 -6.62236,3.2942 10.35806,5.16205 -3.46401,1.69805 -10.3241,-5.12809 -6.99593,3.464 15.45219,7.70912 -3.93946,1.96972 -15.41823,-7.70911 -6.5884,3.2942 10.29014,5.12809 -3.46401,1.73201 -10.29014,-5.12809 -6.96197,3.464 15.41822,7.70912 -3.97341,1.96972 -15.41823,-7.70911 -6.5884,3.2942 10.3241,5.12809 -3.46401,1.73201 -10.3241,-5.12809 -6.96197,3.464 15.41822,7.70912 -3.93946,1.93576 -15.41822,-7.67515 -2.64894,1.32448 -2.68291,-1.32448 -15.38426,7.67515 -3.97342,-1.93576 15.41822,-7.70912 -6.96197,-3.464 -10.29014,5.12809 -3.464,-1.73201 10.29013,-5.12809 -6.5884,-3.2942 -15.41823,7.70911 -3.93945,-1.96972 15.41822,-7.70912 -6.96197,-3.464 -10.3241,5.12809 -3.46401,-1.73201 10.3241,-5.12809 -6.5884,-3.2942 -15.41823,7.70911 -3.93945,-1.96972 15.41822,-7.70912 -6.96197,-3.464 -10.3241,5.12809 -3.46401,-1.69805 10.3241,-5.16205 -6.5884,-3.2942 -15.418227,7.70911 -3.939458,-1.96972 15.418225,-7.70912 -6.961975,-3.464 -10.324097,5.16205 -3.464006,-1.73201 10.324097,-5.12808 -6.588404,-3.32817 -15.452184,7.70911 -3.939458,-1.96972 15.452184,-7.70912 -6.961973,-3.464 -10.358057,5.16205 -3.464007,-1.73201 10.358058,-5.12808 -6.588404,-3.29421 -15.452184,7.70912 -3.939458,-1.96973 15.452184,-7.70912 z"
       id="rect3869"
       inkscape:connector-curvature="0"
       sodipodi:nodetypes="ccccccccccccccccccccccccccccccccccccccccccccccccccccccccccccccccccccccccccccccccccccccccccccccc"
       inkscape:export-filename="C:\Users\wilkie\occam\logo_large.png"
       inkscape:export-xdpi="62.269939"
       inkscape:export-ydpi="62.269939" />
  </g>
</svg>
