<?xml version="1.0" encoding="UTF-8" standalone="no"?>
<!-- Created with Inkscape (http://www.inkscape.org/) -->

<svg
   xmlns:dc="http://purl.org/dc/elements/1.1/"
   xmlns:cc="http://creativecommons.org/ns#"
   xmlns:rdf="http://www.w3.org/1999/02/22-rdf-syntax-ns#"
   xmlns:svg="http://www.w3.org/2000/svg"
   xmlns="http://www.w3.org/2000/svg"
   xmlns:sodipodi="http://sodipodi.sourceforge.net/DTD/sodipodi-0.dtd"
   xmlns:inkscape="http://www.inkscape.org/namespaces/inkscape"
   width="1024px"
   height="768px"
   id="svg2985"
   version="1.1"
   inkscape:version="0.48.4 r9939"
   sodipodi:docname="logo_5_only.eps"
   inkscape:export-filename="C:\Users\wilkie\occam\logo4.png"
   inkscape:export-xdpi="17.629999"
   inkscape:export-ydpi="17.629999">
  <defs
     id="defs2987" />
  <sodipodi:namedview
     id="base"
     pagecolor="#ffffff"
     bordercolor="#666666"
     borderopacity="1.0"
     inkscape:pageopacity="0.0"
     inkscape:pageshadow="2"
     inkscape:zoom="0.35355339"
     inkscape:cx="278.27667"
     inkscape:cy="245.94998"
     inkscape:current-layer="layer1"
     inkscape:document-units="px"
     showgrid="false"
     inkscape:window-width="1920"
     inkscape:window-height="1058"
     inkscape:window-x="-8"
     inkscape:window-y="-8"
     inkscape:window-maximized="1" />
  <metadata
     id="metadata2990">
    <rdf:RDF>
      <cc:Work
         rdf:about="">
        <dc:format>image/svg+xml</dc:format>
        <dc:type
           rdf:resource="http://purl.org/dc/dcmitype/StillImage" />
        <dc:title></dc:title>
      </cc:Work>
    </rdf:RDF>
  </metadata>
  <g
     id="layer1"
     inkscape:label="Layer 1"
     inkscape:groupmode="layer">
    <g
       style="font-size:151.83480835px;font-style:normal;font-weight:normal;line-height:125%;letter-spacing:0px;word-spacing:0px;fill:#488e9c;fill-opacity:1;stroke:none;font-family:Cinzel Decorative Bold;-inkscape-font-specification:Cinzel Decorative Bold"
       id="text2993">
      <path
         d="m 387.45352,300.70887 c -1.95872,-8.09572 -0.96378,-15.55362 2.98484,-22.37372 3.94851,-6.81992 10.84178,-10.71961 20.67983,-11.69909 11.53314,-0.34665 20.41004,4.03486 26.63072,13.14454 6.22048,9.10986 9.3657,20.6055 9.43566,34.48694 -0.19557,15.40633 -3.99904,27.56243 -11.41043,36.46835 -7.4116,8.90595 -17.25839,13.45144 -29.54042,13.63649 -12.41318,-0.15983 -22.35968,-4.96034 -29.83952,-14.40154 -7.47992,-9.44116 -11.31781,-22.564 -11.51367,-39.36854 -0.0192,-9.35876 1.24326,-18.21738 3.78728,-26.57588 2.54396,-8.35834 6.48433,-14.90112 11.82114,-19.62838 l -0.911,-1.45912 c -12.16339,3.45181 -21.777,9.72294 -28.84084,18.81343 -7.06388,9.09065 -10.67136,20.05 -10.82246,32.87807 0.32831,17.05741 6.51365,30.6193 18.55607,40.6857 12.04237,10.06643 27.97196,15.21792 47.78882,15.4545 19.76991,-0.22165 35.61587,-5.36353 47.53792,-15.42565 11.92181,-10.0621 18.03947,-23.71458 18.35298,-40.95748 -0.24482,-12.46114 -3.47654,-22.88305 -9.69515,-31.26576 -6.21887,-8.38254 -13.95652,-14.52986 -23.21299,-18.44196 -9.25668,-3.91189 -18.56406,-5.39254 -27.92218,-4.44195 -8.63713,1.05724 -15.22335,3.81832 -19.75868,8.28327 -4.53544,4.46514 -7.23373,9.6389 -8.09489,15.5213 -0.86125,5.88257 -0.0991,11.47855 2.28644,16.78794 z"
         style=""
         id="path6342" />
      <path
         d="m 584.91055,324.33254 c -2.27245,14.72876 -6.59899,25.13272 -12.97963,31.2119 -6.38083,6.0792 -15.36597,9.02589 -26.95545,8.84009 -11.42684,-0.44345 -20.39364,-4.98989 -26.90042,-13.63934 -6.50686,-8.64942 -9.82131,-20.5586 -9.94334,-35.7276 0.11134,-15.06672 3.5675,-26.85912 10.36847,-35.37725 6.80089,-8.51794 16.27835,-12.8527 28.43241,-13.00428 8.42775,-0.0794 15.7006,2.07767 21.81857,6.47111 6.11779,4.39363 10.60033,11.53229 13.44765,21.41602 l 1.26325,0 -0.29759,-26.053 c -4.32898,-2.29687 -9.67628,-4.22604 -16.0419,-5.78749 -6.36581,-1.56124 -13.60342,-2.37367 -21.71286,-2.43729 -19.45705,0.17395 -34.61603,5.11459 -45.47698,14.82192 -10.86099,9.70752 -16.37859,23.13864 -16.55281,40.29341 0.23635,17.46425 5.84226,31.0145 16.81776,40.65077 10.97545,9.6363 25.90238,14.55903 44.78082,14.76822 11.38366,-0.14403 20.51057,-2.12437 27.38078,-5.94103 6.87002,-3.81666 11.96578,-8.60553 15.28729,-14.36661 l -1.46822,-26.135 z"
         style=""
         id="path6344" />
      <path
         d="m 703.23493,324.33254 c -2.27244,14.72876 -6.59898,25.13272 -12.97962,31.2119 -6.38084,6.0792 -15.36598,9.02589 -26.95546,8.84009 -11.42684,-0.44345 -20.39363,-4.98989 -26.90041,-13.63934 -6.50687,-8.64942 -9.82131,-20.5586 -9.94335,-35.7276 0.11135,-15.06672 3.5675,-26.85912 10.36848,-35.37725 6.80089,-8.51794 16.27835,-12.8527 28.43241,-13.00428 8.42775,-0.0794 15.7006,2.07767 21.81857,6.47111 6.11778,4.39363 10.60033,11.53229 13.44765,21.41602 l 1.26325,0 -0.2976,-26.053 c -4.32898,-2.29687 -9.67627,-4.22604 -16.0419,-5.78749 -6.3658,-1.56124 -13.60341,-2.37367 -21.71285,-2.43729 -19.45705,0.17395 -34.61603,5.11459 -45.47698,14.82192 -10.861,9.70752 -16.3786,23.13864 -16.55281,40.29341 0.23634,17.46425 5.84226,31.0145 16.81776,40.65077 10.97545,9.6363 25.90238,14.55903 44.78082,14.76822 11.38365,-0.14403 20.51057,-2.12437 27.38078,-5.94103 6.87002,-3.81666 11.96578,-8.60553 15.28729,-14.36661 l -1.46822,-26.135 z"
         style=""
         id="path6346" />
      <path
         d="m 767.05438,259.31467 -1.36802,0 c -0.40491,2.61828 -1.56029,6.19735 -3.46615,10.73724 -1.90596,4.54009 -3.24013,7.59155 -4.0025,9.15439 l -35.10983,79.36607 c -1.67353,2.99557 -3.66646,5.17532 -5.9788,6.53925 -2.31236,1.36393 -4.57783,2.0356 -6.79642,2.01501 l -1.3665,0 0,1.51833 32.55601,0 0,-1.50466 -1.33462,0 c -2.11297,-0.0174 -3.88258,-0.84653 -5.30883,-2.48741 -1.4263,-1.64087 -1.59256,-3.98908 -0.49878,-7.04466 l 7.76777,-18.76199 35.6291,0 7.47473,18.76199 c 1.01411,3.05552 0.81571,5.40348 -0.59519,7.0439 -1.41104,1.64043 -3.16875,2.46931 -5.27315,2.48665 l -1.33461,0 0,1.50466 48.37547,0 0,-1.51833 -1.26932,0 c -2.29225,0.0215 -4.60042,-0.66939 -6.92453,-2.07252 -2.32431,-1.40312 -4.33528,-3.6472 -6.03289,-6.73227 z m -22.23592,73.13334 15.55831,-37.28256 14.85229,37.28256 z"
         style=""
         id="path6348" />
      <path
         d="m 941.85439,260.28185 -1.38775,0 -45.16572,77.4135 -47.11069,-77.46056 -1.40901,0 -12.57935,97.378 c -0.46779,3.02221 -1.73572,5.35783 -3.8038,7.00689 -2.0681,1.64906 -4.50286,2.48421 -7.3043,2.50543 l -2.40503,0 0,1.51833 31.7771,0 0,-1.4333 -2.36556,0 c -1.69986,-0.0691 -3.13987,-0.74205 -4.32002,-2.01881 -1.18021,-1.27675 -1.71302,-2.76541 -1.59842,-4.46597 l 5.98069,-54.63857 39.06964,65.59331 1.43178,0 c 0.33428,-3.92767 1.33612,-7.64732 3.00553,-11.15896 1.66927,-3.51164 2.61949,-5.38652 2.85066,-5.62465 l 28.43982,-49.18625 6.0065,55.01512 c 0.11373,1.70056 -0.41952,3.18921 -1.59975,4.46597 -1.18045,1.27676 -2.62052,1.94969 -4.32021,2.0188 l -2.36556,0 0,1.43331 45.6197,0 0,-1.51833 -2.41717,0 c -2.77581,-0.0212 -5.17825,-0.85637 -7.20732,-2.50543 -2.02935,-1.64906 -3.31544,-3.98469 -3.85826,-7.0069 z"
         style=""
         id="path6350" />
    </g>
    <text
       xml:space="preserve"
       style="font-size:40.70267867999999800px;font-style:normal;font-weight:normal;line-height:125%;letter-spacing:0px;word-spacing:0px;fill:#000000;fill-opacity:1;stroke:none;font-family:Marcellus SC;-inkscape-font-specification:Marcellus SC"
       x="653.32043"
       y="429.81302"
       id="text2992"
       sodipodi:linespacing="125%"
       inkscape:export-filename="C:\Users\wilkie\occam\logo4.png"
       inkscape:export-xdpi="42.240002"
       inkscape:export-ydpi="42.240002"><tspan
         sodipodi:role="line"
         id="tspan2994"
         x="653.32043"
         y="429.81302"
         style="text-align:center;text-anchor:middle;fill:#000000;fill-opacity:1">Open Curation for Computer</tspan><tspan
         sodipodi:role="line"
         x="653.32043"
         y="480.69138"
         id="tspan2996"
         style="text-align:center;text-anchor:middle;fill:#000000;fill-opacity:1">Architecture Modeling</tspan></text>
    <rect
       style="fill:#c764d9;fill-opacity:1;stroke:none"
       id="rect4892"
       width="114.22273"
       height="114.22273"
       x="-303.34329"
       y="379.47833"
       transform="matrix(0.89442719,-0.4472136,0.89442719,0.4472136,0,0)"
       inkscape:export-filename="C:\Users\wilkie\occam\logo4.png"
       inkscape:export-xdpi="42.240002"
       inkscape:export-ydpi="42.240002" />
    <rect
       style="fill:#9f45af;fill-opacity:1;stroke:none"
       id="rect4907"
       width="115.43925"
       height="110.40596"
       x="196.45573"
       y="451.8031"
       transform="matrix(0.8949854,-0.44609543,0,1,0,0)"
       inkscape:export-filename="C:\Users\wilkie\occam\logo4.png"
       inkscape:export-xdpi="42.240002"
       inkscape:export-ydpi="42.240002" />
    <rect
       transform="matrix(-0.8949854,-0.44609543,0,1,0,0)"
       y="282.33789"
       x="-184.8806"
       height="110.40596"
       width="115.43925"
       id="rect4938"
       style="fill:#9f45af;fill-opacity:1;stroke:none"
       inkscape:export-filename="C:\Users\wilkie\occam\logo4.png"
       inkscape:export-xdpi="42.240002"
       inkscape:export-ydpi="42.240002" />
    <path
       style="fill:#488e9c;fill-opacity:1;stroke:none"
       d="m 54.754666,430.01912 -25.912125,12.90512 141.684639,70.74044 c 48.49182,-24.10491 98.57501,-49.16285 141.78653,-70.74044 l -25.87816,-12.90512 -4.44888,2.20745 15.45219,7.70912 -3.93946,1.96973 -15.45218,-7.70912 -6.58841,3.29421 10.3241,5.12808 -3.46401,1.73201 -10.32409,-5.16205 -6.96198,3.464 15.41823,7.70912 -3.93946,1.96972 -15.41822,-7.70911 -6.58841,3.32817 10.3241,5.12808 -3.46401,1.73201 -10.32409,-5.16205 -6.96198,3.464 15.41823,7.70912 -3.93946,1.96972 -15.41823,-7.70911 -6.62236,3.2942 10.35806,5.16205 -3.46401,1.69805 -10.3241,-5.12809 -6.99593,3.464 15.45219,7.70912 -3.93946,1.96972 -15.41823,-7.70911 -6.5884,3.2942 10.29014,5.12809 -3.46401,1.73201 -10.29014,-5.12809 -6.96197,3.464 15.41822,7.70912 -3.97341,1.96972 -15.41823,-7.70911 -6.5884,3.2942 10.3241,5.12809 -3.46401,1.73201 -10.3241,-5.12809 -6.96197,3.464 15.41822,7.70912 -3.93946,1.93576 -15.41822,-7.67515 -2.64894,1.32448 -2.68291,-1.32448 -15.38426,7.67515 -3.97342,-1.93576 15.41822,-7.70912 -6.96197,-3.464 -10.29014,5.12809 -3.464,-1.73201 10.29013,-5.12809 -6.5884,-3.2942 -15.41823,7.70911 -3.93945,-1.96972 15.41822,-7.70912 -6.96197,-3.464 -10.3241,5.12809 -3.46401,-1.73201 10.3241,-5.12809 -6.5884,-3.2942 -15.41823,7.70911 -3.93945,-1.96972 15.41822,-7.70912 -6.96197,-3.464 -10.3241,5.12809 -3.46401,-1.69805 10.3241,-5.16205 -6.5884,-3.2942 -15.418227,7.70911 -3.939458,-1.96972 15.418225,-7.70912 -6.961975,-3.464 -10.324097,5.16205 -3.464006,-1.73201 10.324097,-5.12808 -6.588404,-3.32817 -15.452184,7.70911 -3.939458,-1.96972 15.452184,-7.70912 -6.961973,-3.464 -10.358057,5.16205 -3.464007,-1.73201 10.358058,-5.12808 -6.588404,-3.29421 -15.452184,7.70912 -3.939458,-1.96973 15.452184,-7.70912 z"
       id="rect3869"
       inkscape:connector-curvature="0"
       sodipodi:nodetypes="ccccccccccccccccccccccccccccccccccccccccccccccccccccccccccccccccccccccccccccccccccccccccccccccc"
       inkscape:export-filename="C:\Users\wilkie\occam\logo4.png"
       inkscape:export-xdpi="42.240002"
       inkscape:export-ydpi="42.240002" />
  </g>
</svg>
