<?xml version="1.0" encoding="UTF-8" standalone="no"?>
<!-- Created with Inkscape (http://www.inkscape.org/) -->

<svg
   xmlns:dc="http://purl.org/dc/elements/1.1/"
   xmlns:cc="http://creativecommons.org/ns#"
   xmlns:rdf="http://www.w3.org/1999/02/22-rdf-syntax-ns#"
   xmlns:svg="http://www.w3.org/2000/svg"
   xmlns="http://www.w3.org/2000/svg"
   xmlns:sodipodi="http://sodipodi.sourceforge.net/DTD/sodipodi-0.dtd"
   xmlns:inkscape="http://www.inkscape.org/namespaces/inkscape"
   width="1024px"
   height="768px"
   id="svg2985"
   version="1.1"
   inkscape:version="0.48.4 r9939"
   sodipodi:docname="logo_4.svg"
   inkscape:export-filename="C:\Users\wilkie\occam\logo4.png"
   inkscape:export-xdpi="17.629999"
   inkscape:export-ydpi="17.629999">
  <defs
     id="defs2987" />
  <sodipodi:namedview
     id="base"
     pagecolor="#ffffff"
     bordercolor="#666666"
     borderopacity="1.0"
     inkscape:pageopacity="0.0"
     inkscape:pageshadow="2"
     inkscape:zoom="0.35355339"
     inkscape:cx="278.27667"
     inkscape:cy="245.94998"
     inkscape:current-layer="layer1"
     inkscape:document-units="px"
     showgrid="false"
     inkscape:window-width="1920"
     inkscape:window-height="1058"
     inkscape:window-x="-8"
     inkscape:window-y="-8"
     inkscape:window-maximized="1" />
  <metadata
     id="metadata2990">
    <rdf:RDF>
      <cc:Work
         rdf:about="">
        <dc:format>image/svg+xml</dc:format>
        <dc:type
           rdf:resource="http://purl.org/dc/dcmitype/StillImage" />
        <dc:title></dc:title>
      </cc:Work>
    </rdf:RDF>
  </metadata>
  <g
     id="layer1"
     inkscape:label="Layer 1"
     inkscape:groupmode="layer">
    <text
       xml:space="preserve"
       style="font-size:151.83480835px;font-style:normal;font-weight:normal;line-height:125%;letter-spacing:0px;word-spacing:0px;fill:#488e9c;fill-opacity:1;stroke:none;font-family:Cinzel Decorative Bold;-inkscape-font-specification:Cinzel Decorative Bold"
       x="335.41281"
       y="368.64496"
       id="text2993"
       sodipodi:linespacing="125%"
       inkscape:export-filename="C:\Users\wilkie\occam\logo4.png"
       inkscape:export-xdpi="42.240002"
       inkscape:export-ydpi="42.240002"><tspan
         sodipodi:role="line"
         id="tspan2995"
         x="335.41281"
         y="368.64496">Occam</tspan></text>
    <text
       xml:space="preserve"
       style="font-size:40.70267867999999800px;font-style:normal;font-weight:normal;line-height:125%;letter-spacing:0px;word-spacing:0px;fill:#000000;fill-opacity:1;stroke:none;font-family:Marcellus SC;-inkscape-font-specification:Marcellus SC"
       x="653.32043"
       y="429.81302"
       id="text2992"
       sodipodi:linespacing="125%"
       inkscape:export-filename="C:\Users\wilkie\occam\logo4.png"
       inkscape:export-xdpi="42.240002"
       inkscape:export-ydpi="42.240002"><tspan
         sodipodi:role="line"
         id="tspan2994"
         x="653.32043"
         y="429.81302"
         style="text-align:center;text-anchor:middle;fill:#000000;fill-opacity:1">Open Curation for Computer</tspan><tspan
         sodipodi:role="line"
         x="653.32043"
         y="480.69138"
         id="tspan2996"
         style="text-align:center;text-anchor:middle;fill:#000000;fill-opacity:1">Architecture Modeling</tspan></text>
    <rect
       style="fill:#c764d9;fill-opacity:1;stroke:none"
       id="rect4892"
       width="114.22273"
       height="114.22273"
       x="-303.34329"
       y="379.47833"
       transform="matrix(0.89442719,-0.4472136,0.89442719,0.4472136,0,0)"
       inkscape:export-filename="C:\Users\wilkie\occam\logo4.png"
       inkscape:export-xdpi="42.240002"
       inkscape:export-ydpi="42.240002" />
    <rect
       style="fill:#9f45af;fill-opacity:1;stroke:none"
       id="rect4907"
       width="115.43925"
       height="110.40596"
       x="196.45573"
       y="451.8031"
       transform="matrix(0.8949854,-0.44609543,0,1,0,0)"
       inkscape:export-filename="C:\Users\wilkie\occam\logo4.png"
       inkscape:export-xdpi="42.240002"
       inkscape:export-ydpi="42.240002" />
    <rect
       transform="matrix(-0.8949854,-0.44609543,0,1,0,0)"
       y="282.33789"
       x="-184.8806"
       height="110.40596"
       width="115.43925"
       id="rect4938"
       style="fill:#9f45af;fill-opacity:1;stroke:none"
       inkscape:export-filename="C:\Users\wilkie\occam\logo4.png"
       inkscape:export-xdpi="42.240002"
       inkscape:export-ydpi="42.240002" />
    <path
       style="fill:#64c4d9;fill-opacity:1;stroke:none"
       d="m 1952.0711,-363.98692 51.705,-25.89544 231.4811,115.67806 -51.705,25.89544 z"
       id="rect4892-1"
       inkscape:connector-curvature="0"
       sodipodi:nodetypes="ccccc" />
    <path
       style="fill:#2da0b7;fill-opacity:1;stroke:none"
       d="m 2183.5974,-248.35517 51.6856,-25.84372 0,249.744598 -51.6856,25.8438184 z"
       id="rect3842"
       inkscape:connector-curvature="0"
       sodipodi:nodetypes="ccccc" />
    <path
       style="fill:#488e9c;fill-opacity:1;stroke:none"
       d="m 54.754666,430.01912 -25.912125,12.90512 141.684639,70.74044 c 48.49182,-24.10491 98.57501,-49.16285 141.78653,-70.74044 l -25.87816,-12.90512 -4.44888,2.20745 15.45219,7.70912 -3.93946,1.96973 -15.45218,-7.70912 -6.58841,3.29421 10.3241,5.12808 -3.46401,1.73201 -10.32409,-5.16205 -6.96198,3.464 15.41823,7.70912 -3.93946,1.96972 -15.41822,-7.70911 -6.58841,3.32817 10.3241,5.12808 -3.46401,1.73201 -10.32409,-5.16205 -6.96198,3.464 15.41823,7.70912 -3.93946,1.96972 -15.41823,-7.70911 -6.62236,3.2942 10.35806,5.16205 -3.46401,1.69805 -10.3241,-5.12809 -6.99593,3.464 15.45219,7.70912 -3.93946,1.96972 -15.41823,-7.70911 -6.5884,3.2942 10.29014,5.12809 -3.46401,1.73201 -10.29014,-5.12809 -6.96197,3.464 15.41822,7.70912 -3.97341,1.96972 -15.41823,-7.70911 -6.5884,3.2942 10.3241,5.12809 -3.46401,1.73201 -10.3241,-5.12809 -6.96197,3.464 15.41822,7.70912 -3.93946,1.93576 -15.41822,-7.67515 -2.64894,1.32448 -2.68291,-1.32448 -15.38426,7.67515 -3.97342,-1.93576 15.41822,-7.70912 -6.96197,-3.464 -10.29014,5.12809 -3.464,-1.73201 10.29013,-5.12809 -6.5884,-3.2942 -15.41823,7.70911 -3.93945,-1.96972 15.41822,-7.70912 -6.96197,-3.464 -10.3241,5.12809 -3.46401,-1.73201 10.3241,-5.12809 -6.5884,-3.2942 -15.41823,7.70911 -3.93945,-1.96972 15.41822,-7.70912 -6.96197,-3.464 -10.3241,5.12809 -3.46401,-1.69805 10.3241,-5.16205 -6.5884,-3.2942 -15.418227,7.70911 -3.939458,-1.96972 15.418225,-7.70912 -6.961975,-3.464 -10.324097,5.16205 -3.464006,-1.73201 10.324097,-5.12808 -6.588404,-3.32817 -15.452184,7.70911 -3.939458,-1.96972 15.452184,-7.70912 -6.961973,-3.464 -10.358057,5.16205 -3.464007,-1.73201 10.358058,-5.12808 -6.588404,-3.29421 -15.452184,7.70912 -3.939458,-1.96973 15.452184,-7.70912 z"
       id="rect3869"
       inkscape:connector-curvature="0"
       sodipodi:nodetypes="ccccccccccccccccccccccccccccccccccccccccccccccccccccccccccccccccccccccccccccccccccccccccccccccc"
       inkscape:export-filename="C:\Users\wilkie\occam\logo4.png"
       inkscape:export-xdpi="42.240002"
       inkscape:export-ydpi="42.240002" />
    <rect
       style="fill:#c764d9;fill-opacity:1;stroke:none"
       id="rect4892-14"
       width="207.21898"
       height="207.21898"
       x="115.40452"
       y="1342.9508"
       transform="matrix(0.89442719,-0.4472136,0.89442719,0.4472136,0,0)" />
    <rect
       style="fill:#a22db7;fill-opacity:1;stroke:none"
       id="rect4907-2"
       width="209.42595"
       height="200.29471"
       x="1675.814"
       y="1403.2177"
       transform="matrix(0.8949854,-0.44609543,0,1,0,0)" />
    <rect
       transform="matrix(-0.8949854,-0.44609543,0,1,0,0)"
       y="-81.3862"
       x="-1654.8147"
       height="200.29471"
       width="209.42595"
       id="rect4938-3"
       style="fill:#a22db7;fill-opacity:1;stroke:none" />
    <path
       inkscape:connector-curvature="0"
       style="fill:#0f6e81;fill-opacity:1;stroke:none"
       d="m 1280.1904,775.08569 -47,23.4375 257.2813,128.4375 0,-46.96875 -19.6562,-9.8125 -28.5,14.21875 -7.1563,-3.5625 28.5,-14.21875 -12.3437,-6.15625 -28.4375,14.1875 -7.1563,-3.5625 28.4688,-14.1875 -12.3438,-6.15625 -28.4062,14.15625 -7.1563,-3.5625 28.4063,-14.15625 -12.3438,-6.15625 -28.3438,14.125 -7.1562,-3.5625 28.3438,-14.125 -12.3438,-6.15625 -28.2813,14.09375 -7.1562,-3.5625 28.2812,-14.125 -12.3125,-6.15625 -28.25,14.09375 -7.1562,-3.5625 28.25,-14.09375 -12.3438,-6.15625 -28.1875,14.0625 -7.1562,-3.5625 28.1875,-14.0625 -12.3438,-6.15625 -28.125,14.03125 -7.1562,-3.5625 28.125,-14.03125 -12.3438,-6.15625 -28.0625,14 -7.1562,-3.5625 28.0937,-14 -12.3437,-6.15625 -28.0313,13.96875 -7.1562,-3.5625 28.0312,-13.96875 -8.0625,-4.03125 z"
       id="rect3869-2" />
    <path
       id="path4293"
       d="m 1700.9717,775.08569 47,23.4375 -257.2812,128.4375 0,-46.96875 19.6562,-9.8125 28.5,14.21875 7.1563,-3.5625 -28.5,-14.21875 12.3437,-6.15625 28.4375,14.1875 7.1563,-3.5625 -28.4688,-14.1875 12.3438,-6.15625 28.4062,14.15625 7.1563,-3.5625 -28.4063,-14.15625 12.3438,-6.15625 28.3437,14.125 7.1563,-3.5625 -28.3438,-14.125 12.3438,-6.15625 28.2812,14.09375 7.1563,-3.5625 -28.2813,-14.125 12.3125,-6.15625 28.25,14.09375 7.1563,-3.5625 -28.25,-14.09375 12.3437,-6.15625 28.1875,14.0625 7.1563,-3.5625 -28.1875,-14.0625 12.3437,-6.15625 28.125,14.03125 7.1563,-3.5625 -28.125,-14.03125 12.3437,-6.15625 28.0625,14 7.1563,-3.5625 -28.0938,-14 12.3438,-6.15625 28.0312,13.96875 7.1563,-3.5625 -28.0313,-13.96875 8.0625,-4.03125 z"
       style="fill:#0f6e81;fill-opacity:1;stroke:none"
       inkscape:connector-curvature="0" />
    <rect
       transform="matrix(0.89442719,-0.4472136,0.89442719,0.4472136,0,0)"
       y="780.26099"
       x="680.44397"
       height="207.21898"
       width="207.21898"
       id="rect4383"
       style="fill:#64c4d9;fill-opacity:1;stroke:none" />
    <rect
       transform="matrix(0.8949854,-0.44609543,0,1,0,0)"
       y="899.92932"
       x="1678.162"
       height="200.29471"
       width="209.42595"
       id="rect4385"
       style="fill:#2da0b7;fill-opacity:1;stroke:none" />
    <rect
       style="fill:#2da0b7;fill-opacity:1;stroke:none"
       id="rect4387"
       width="209.42595"
       height="200.29471"
       x="-1657.1628"
       y="-586.76959"
       transform="matrix(-0.8949854,-0.44609543,0,1,0,0)" />
    <path
       id="path4389"
       d="m 1282.292,270.74983 -47,23.4375 257.2813,128.4375 0,-46.96875 -4.9688,-2.46875 -27.9687,13.9375 -7.1563,-3.5625 27.9688,-13.9375 -12.625,-6.3125 -18.7188,9.3125 -6.2812,-3.125 18.7187,-9.3125 -11.9687,-5.96875 -27.9688,13.9375 -7.1562,-3.5625 27.9687,-13.96875 -12.625,-6.28125 -18.7187,9.3125 -6.2813,-3.125 18.7188,-9.34375 -11.9688,-5.9375 -27.9687,13.9375 -7.1563,-3.5625 28,-13.96875 -12.6562,-6.28125 -18.7188,9.3125 -6.2812,-3.09375 18.75,-9.34375 -12,-6 -27.9688,13.96875 -7.1562,-3.5625 28,-13.96875 -12.625,-6.28125 -18.75,9.34375 -6.2813,-3.125 18.75,-9.34375 -11.9687,-6 -28,13.96875 -7.1563,-3.5625 28,-13.96875 -12.625,-6.28125 -18.75,9.34375 -6.2812,-3.125 18.75,-9.34375 -11.9375,-5.96875 -28.0313,13.96875 -7.1562,-3.5625 28.0312,-13.96875 -8.0625,-4.03125 z"
       style="fill:#bc64d9;fill-opacity:1;stroke:none"
       inkscape:connector-curvature="0" />
    <path
       inkscape:connector-curvature="0"
       style="fill:#bc64d9;fill-opacity:1;stroke:none"
       d="m 1702.5733,270.74983 47,23.4375 -257.2813,128.4375 0,-46.96875 4.9688,-2.46875 27.9687,13.9375 7.1563,-3.5625 -27.9688,-13.9375 12.625,-6.3125 18.7188,9.3125 6.2812,-3.125 -18.7187,-9.3125 11.9687,-5.96875 27.9688,13.9375 7.1562,-3.5625 -27.9687,-13.96875 12.625,-6.28125 18.7187,9.3125 6.2813,-3.125 -18.7188,-9.34375 11.9688,-5.9375 27.9687,13.9375 7.1563,-3.5625 -28,-13.96875 12.6562,-6.28125 18.7188,9.3125 6.2812,-3.09375 -18.75,-9.34375 12,-6 27.9688,13.96875 7.1562,-3.5625 -28,-13.96875 12.625,-6.28125 18.75,9.34375 6.2813,-3.125 -18.75,-9.34375 11.9687,-6 28,13.96875 7.1563,-3.5625 -28,-13.96875 12.625,-6.28125 18.75,9.34375 6.2812,-3.125 -18.75,-9.34375 11.9375,-5.96875 28.0313,13.96875 7.1562,-3.5625 -28.0312,-13.96875 8.0625,-4.03125 z"
       id="path4391" />
  </g>
</svg>
