<?xml version="1.0" encoding="UTF-8" standalone="no"?>
<!-- Created with Inkscape (http://www.inkscape.org/) -->

<svg
   xmlns:dc="http://purl.org/dc/elements/1.1/"
   xmlns:cc="http://creativecommons.org/ns#"
   xmlns:rdf="http://www.w3.org/1999/02/22-rdf-syntax-ns#"
   xmlns:svg="http://www.w3.org/2000/svg"
   xmlns="http://www.w3.org/2000/svg"
   xmlns:sodipodi="http://sodipodi.sourceforge.net/DTD/sodipodi-0.dtd"
   xmlns:inkscape="http://www.inkscape.org/namespaces/inkscape"
   width="1024px"
   height="768px"
   id="svg2985"
   version="1.1"
   inkscape:version="0.91 r13725"
   sodipodi:docname="logo_6.svg"
   inkscape:export-filename="C:\Users\wilkie\occam\logo4.png"
   inkscape:export-xdpi="17.629999"
   inkscape:export-ydpi="17.629999">
  <defs
     id="defs2987" />
  <sodipodi:namedview
     id="base"
     pagecolor="#ffffff"
     bordercolor="#666666"
     borderopacity="1.0"
     inkscape:pageopacity="0.0"
     inkscape:pageshadow="2"
     inkscape:zoom="0.35355339"
     inkscape:cx="1097.9"
     inkscape:cy="193.3844"
     inkscape:current-layer="layer1"
     inkscape:document-units="px"
     showgrid="false"
     inkscape:window-width="1920"
     inkscape:window-height="1058"
     inkscape:window-x="1912"
     inkscape:window-y="-8"
     inkscape:window-maximized="1" />
  <metadata
     id="metadata2990">
    <rdf:RDF>
      <cc:Work
         rdf:about="">
        <dc:format>image/svg+xml</dc:format>
        <dc:type
           rdf:resource="http://purl.org/dc/dcmitype/StillImage" />
        <dc:title />
      </cc:Work>
    </rdf:RDF>
  </metadata>
  <g
     id="layer1"
     inkscape:label="Layer 1"
     inkscape:groupmode="layer">
    <g
       transform="translate(-8.201682,68.502615)"
       style="font-style:normal;font-weight:normal;font-size:151.83480835px;line-height:125%;font-family:'Cinzel Decorative Bold';-inkscape-font-specification:'Cinzel Decorative Bold';letter-spacing:0px;word-spacing:0px;fill:#488e9c;fill-opacity:1;stroke:none"
       id="text2993-4"
       inkscape:export-filename="logo6_small.png"
       inkscape:export-xdpi="14.397303"
       inkscape:export-ydpi="14.397303">
      <path
         inkscape:connector-curvature="0"
         d="m 387.45352,300.70887 c -1.95872,-8.09572 -0.96378,-15.55362 2.98484,-22.37372 3.94851,-6.81992 10.84178,-10.71961 20.67983,-11.69909 11.53314,-0.34665 20.41004,4.03486 26.63072,13.14454 6.22048,9.10986 9.3657,20.6055 9.43566,34.48694 -0.19557,15.40633 -3.99904,27.56243 -11.41043,36.46835 -7.4116,8.90595 -17.25839,13.45144 -29.54042,13.63649 -12.41318,-0.15983 -22.35968,-4.96034 -29.83952,-14.40154 -7.47992,-9.44116 -11.31781,-22.564 -11.51367,-39.36854 -0.0192,-9.35876 1.24326,-18.21738 3.78728,-26.57588 2.54396,-8.35834 6.48433,-14.90112 11.82114,-19.62838 l -0.911,-1.45912 c -12.16339,3.45181 -21.777,9.72294 -28.84084,18.81343 -7.06388,9.09065 -10.67136,20.05 -10.82246,32.87807 0.32831,17.05741 6.51365,30.6193 18.55607,40.6857 12.04237,10.06643 27.97196,15.21792 47.78882,15.4545 19.76991,-0.22165 35.61587,-5.36353 47.53792,-15.42565 11.92181,-10.0621 18.03947,-23.71458 18.35298,-40.95748 -0.24482,-12.46114 -3.47654,-22.88305 -9.69515,-31.26576 -6.21887,-8.38254 -13.95652,-14.52986 -23.21299,-18.44196 -9.25668,-3.91189 -18.56406,-5.39254 -27.92218,-4.44195 -8.63713,1.05724 -15.22335,3.81832 -19.75868,8.28327 -4.53544,4.46514 -7.23373,9.6389 -8.09489,15.5213 -0.86125,5.88257 -0.0991,11.47855 2.28644,16.78794 z"
         id="path6342" />
      <path
         inkscape:connector-curvature="0"
         d="m 584.91055,324.33254 c -2.27245,14.72876 -6.59899,25.13272 -12.97963,31.2119 -6.38083,6.0792 -15.36597,9.02589 -26.95545,8.84009 -11.42684,-0.44345 -20.39364,-4.98989 -26.90042,-13.63934 -6.50686,-8.64942 -9.82131,-20.5586 -9.94334,-35.7276 0.11134,-15.06672 3.5675,-26.85912 10.36847,-35.37725 6.80089,-8.51794 16.27835,-12.8527 28.43241,-13.00428 8.42775,-0.0794 15.7006,2.07767 21.81857,6.47111 6.11779,4.39363 10.60033,11.53229 13.44765,21.41602 l 1.26325,0 -0.29759,-26.053 c -4.32898,-2.29687 -9.67628,-4.22604 -16.0419,-5.78749 -6.36581,-1.56124 -13.60342,-2.37367 -21.71286,-2.43729 -19.45705,0.17395 -34.61603,5.11459 -45.47698,14.82192 -10.86099,9.70752 -16.37859,23.13864 -16.55281,40.29341 0.23635,17.46425 5.84226,31.0145 16.81776,40.65077 10.97545,9.6363 25.90238,14.55903 44.78082,14.76822 11.38366,-0.14403 20.51057,-2.12437 27.38078,-5.94103 6.87002,-3.81666 11.96578,-8.60553 15.28729,-14.36661 l -1.46822,-26.135 z"
         id="path6344" />
      <path
         inkscape:connector-curvature="0"
         d="m 703.23493,324.33254 c -2.27244,14.72876 -6.59898,25.13272 -12.97962,31.2119 -6.38084,6.0792 -15.36598,9.02589 -26.95546,8.84009 -11.42684,-0.44345 -20.39363,-4.98989 -26.90041,-13.63934 -6.50687,-8.64942 -9.82131,-20.5586 -9.94335,-35.7276 0.11135,-15.06672 3.5675,-26.85912 10.36848,-35.37725 6.80089,-8.51794 16.27835,-12.8527 28.43241,-13.00428 8.42775,-0.0794 15.7006,2.07767 21.81857,6.47111 6.11778,4.39363 10.60033,11.53229 13.44765,21.41602 l 1.26325,0 -0.2976,-26.053 c -4.32898,-2.29687 -9.67627,-4.22604 -16.0419,-5.78749 -6.3658,-1.56124 -13.60341,-2.37367 -21.71285,-2.43729 -19.45705,0.17395 -34.61603,5.11459 -45.47698,14.82192 -10.861,9.70752 -16.3786,23.13864 -16.55281,40.29341 0.23634,17.46425 5.84226,31.0145 16.81776,40.65077 10.97545,9.6363 25.90238,14.55903 44.78082,14.76822 11.38365,-0.14403 20.51057,-2.12437 27.38078,-5.94103 6.87002,-3.81666 11.96578,-8.60553 15.28729,-14.36661 l -1.46822,-26.135 z"
         id="path6346" />
      <path
         inkscape:connector-curvature="0"
         d="m 767.05438,259.31467 -1.36802,0 c -0.40491,2.61828 -1.56029,6.19735 -3.46615,10.73724 -1.90596,4.54009 -3.24013,7.59155 -4.0025,9.15439 l -35.10983,79.36607 c -1.67353,2.99557 -3.66646,5.17532 -5.9788,6.53925 -2.31236,1.36393 -4.57783,2.0356 -6.79642,2.01501 l -1.3665,0 0,1.51833 32.55601,0 0,-1.50466 -1.33462,0 c -2.11297,-0.0174 -3.88258,-0.84653 -5.30883,-2.48741 -1.4263,-1.64087 -1.59256,-3.98908 -0.49878,-7.04466 l 7.76777,-18.76199 35.6291,0 7.47473,18.76199 c 1.01411,3.05552 0.81571,5.40348 -0.59519,7.0439 -1.41104,1.64043 -3.16875,2.46931 -5.27315,2.48665 l -1.33461,0 0,1.50466 48.37547,0 0,-1.51833 -1.26932,0 c -2.29225,0.0215 -4.60042,-0.66939 -6.92453,-2.07252 -2.32431,-1.40312 -4.33528,-3.6472 -6.03289,-6.73227 z m -22.23592,73.13334 15.55831,-37.28256 14.85229,37.28256 z"
         id="path6348" />
      <path
         inkscape:connector-curvature="0"
         d="m 941.85439,260.28185 -1.38775,0 -45.16572,77.4135 -47.11069,-77.46056 -1.40901,0 -12.57935,97.378 c -0.46779,3.02221 -1.73572,5.35783 -3.8038,7.00689 -2.0681,1.64906 -4.50286,2.48421 -7.3043,2.50543 l -2.40503,0 0,1.51833 31.7771,0 0,-1.4333 -2.36556,0 c -1.69986,-0.0691 -3.13987,-0.74205 -4.32002,-2.01881 -1.18021,-1.27675 -1.71302,-2.76541 -1.59842,-4.46597 l 5.98069,-54.63857 39.06964,65.59331 1.43178,0 c 0.33428,-3.92767 1.33612,-7.64732 3.00553,-11.15896 1.66927,-3.51164 2.61949,-5.38652 2.85066,-5.62465 l 28.43982,-49.18625 6.0065,55.01512 c 0.11373,1.70056 -0.41952,3.18921 -1.59975,4.46597 -1.18045,1.27676 -2.62052,1.94969 -4.32021,2.0188 l -2.36556,0 0,1.43331 45.6197,0 0,-1.51833 -2.41717,0 c -2.77581,-0.0212 -5.17825,-0.85637 -7.20732,-2.50543 -2.02935,-1.64906 -3.31544,-3.98469 -3.85826,-7.0069 z"
         id="path6350" />
    </g>
    <rect
       style="fill:#c764d9;fill-opacity:1;stroke:none"
       id="rect4892"
       width="90.843155"
       height="90.843155"
       x="-307.82495"
       y="411.03058"
       transform="matrix(0.89442719,-0.4472136,0.89442719,0.4472136,0,0)"
       inkscape:export-filename="logo6_small.png"
       inkscape:export-xdpi="14.397303"
       inkscape:export-ydpi="14.397303" />
    <rect
       style="fill:#9f45af;fill-opacity:1;stroke:none"
       id="rect4907"
       width="91.810661"
       height="87.80761"
       x="198.87204"
       y="456.96075"
       transform="matrix(0.8949854,-0.44609543,0,1,0,0)"
       inkscape:export-filename="logo6_small.png"
       inkscape:export-xdpi="14.397303"
       inkscape:export-ydpi="14.397303" />
    <rect
       transform="matrix(-0.8949854,-0.44609543,0,1,0,0)"
       y="284.15051"
       x="-189.66614"
       height="87.80761"
       width="91.810661"
       id="rect4938"
       style="fill:#9f45af;fill-opacity:1;stroke:none"
       inkscape:export-filename="logo6_small.png"
       inkscape:export-xdpi="14.397303"
       inkscape:export-ydpi="14.397303" />
    <path
       style="fill:#64c4d9;fill-opacity:1;stroke:none"
       d="m 1952.0711,-363.98692 51.705,-25.89544 231.4811,115.67806 -51.705,25.89544 z"
       id="rect4892-1"
       inkscape:connector-curvature="0"
       sodipodi:nodetypes="ccccc" />
    <path
       style="fill:#2da0b7;fill-opacity:1;stroke:none"
       d="m 2183.5974,-248.35517 51.6856,-25.84372 0,249.744598 -51.6856,25.8438184 z"
       id="rect3842"
       inkscape:connector-curvature="0"
       sodipodi:nodetypes="ccccc" />
    <path
       style="fill:#488e9c;fill-opacity:1;stroke:none"
       d="M 81.698479,420.61968 61.090157,430.88334 173.7742,487.14433 c 38.56631,-19.17102 78.39827,-39.1 112.76509,-56.26099 l -20.58132,-10.26366 -3.53828,1.75562 12.28938,6.13121 -3.13312,1.56654 -12.28937,-6.13117 -5.23985,2.61992 8.21092,4.07843 -2.75498,1.37751 -8.21092,-4.10547 -5.53697,2.75498 12.26236,6.13119 -3.13312,1.56654 -12.26235,-6.13117 -5.23987,2.64695 8.21092,4.07844 -2.75497,1.37751 -8.21093,-4.10547 -5.53696,2.75496 12.26237,6.13118 -3.13312,1.56657 -12.26238,-6.1312 -5.26686,2.61994 8.23793,4.10547 -2.75498,1.35048 -8.21091,-4.07846 -5.56398,2.75499 12.28937,6.13118 -3.13312,1.56654 -12.26236,-6.13117 -5.23986,2.61993 8.18392,4.07846 -2.75499,1.37748 -8.18391,-4.07845 -5.53697,2.75499 12.26235,6.13117 -3.16009,1.56656 -12.26238,-6.13119 -5.23986,2.61993 8.21091,4.07846 -2.75498,1.3775 -8.21091,-4.07845 -5.53696,2.75497 12.26235,6.13118 -3.13312,1.53955 -12.26234,-6.10417 -2.10676,1.05337 -2.13376,-1.05337 -12.23534,6.10417 -3.16014,-1.53955 12.26237,-6.13118 -5.53698,-2.75497 -8.1839,4.07845 -2.75497,-1.3775 8.18389,-4.07846 -5.23985,-2.61993 -12.26237,6.13119 -3.1331,-1.56656 12.26235,-6.13117 -5.53696,-2.75499 -8.21092,4.07845 -2.75498,-1.37748 8.21092,-4.07846 -5.23985,-2.61993 -12.26237,6.13117 -3.13312,-1.56654 12.26237,-6.13118 -5.53698,-2.75499 -8.21091,4.07846 -2.75497,-1.35048 8.21091,-4.10547 -5.23986,-2.61994 -12.26237,6.1312 -3.1331,-1.56657 12.26235,-6.13118 -5.53697,-2.75496 -8.21091,4.10547 -2.75499,-1.37751 8.21092,-4.07844 -5.23986,-2.64695 -12.289363,6.13117 -3.133119,-1.56654 12.289372,-6.13119 -5.536962,-2.75498 -8.237928,4.10547 -2.754977,-1.37751 8.237928,-4.07843 -5.239874,-2.61992 -12.289367,6.13117 -3.133104,-1.56654 12.289368,-6.13121 z"
       id="rect3869"
       inkscape:connector-curvature="0"
       sodipodi:nodetypes="ccccccccccccccccccccccccccccccccccccccccccccccccccccccccccccccccccccccccccccccccccccccccccccccc"
       inkscape:export-filename="logo6_small.png"
       inkscape:export-xdpi="14.397303"
       inkscape:export-ydpi="14.397303" />
    <rect
       style="fill:#c764d9;fill-opacity:1;stroke:none"
       id="rect4892-14"
       width="207.21898"
       height="207.21898"
       x="115.40452"
       y="1342.9508"
       transform="matrix(0.89442719,-0.4472136,0.89442719,0.4472136,0,0)" />
    <rect
       style="fill:#a22db7;fill-opacity:1;stroke:none"
       id="rect4907-2"
       width="209.42595"
       height="200.29471"
       x="1675.814"
       y="1403.2177"
       transform="matrix(0.8949854,-0.44609543,0,1,0,0)" />
    <rect
       transform="matrix(-0.8949854,-0.44609543,0,1,0,0)"
       y="-81.3862"
       x="-1654.8147"
       height="200.29471"
       width="209.42595"
       id="rect4938-3"
       style="fill:#a22db7;fill-opacity:1;stroke:none" />
    <path
       inkscape:connector-curvature="0"
       style="fill:#0f6e81;fill-opacity:1;stroke:none"
       d="m 1280.1904,775.08569 -47,23.4375 257.2813,128.4375 0,-46.96875 -19.6562,-9.8125 -28.5,14.21875 -7.1563,-3.5625 28.5,-14.21875 -12.3437,-6.15625 -28.4375,14.1875 -7.1563,-3.5625 28.4688,-14.1875 -12.3438,-6.15625 -28.4062,14.15625 -7.1563,-3.5625 28.4063,-14.15625 -12.3438,-6.15625 -28.3438,14.125 -7.1562,-3.5625 28.3438,-14.125 -12.3438,-6.15625 -28.2813,14.09375 -7.1562,-3.5625 28.2812,-14.125 -12.3125,-6.15625 -28.25,14.09375 -7.1562,-3.5625 28.25,-14.09375 -12.3438,-6.15625 -28.1875,14.0625 -7.1562,-3.5625 28.1875,-14.0625 -12.3438,-6.15625 -28.125,14.03125 -7.1562,-3.5625 28.125,-14.03125 -12.3438,-6.15625 -28.0625,14 -7.1562,-3.5625 28.0937,-14 -12.3437,-6.15625 -28.0313,13.96875 -7.1562,-3.5625 28.0312,-13.96875 -8.0625,-4.03125 z"
       id="rect3869-2" />
    <path
       id="path4293"
       d="m 1700.9717,775.08569 47,23.4375 -257.2812,128.4375 0,-46.96875 19.6562,-9.8125 28.5,14.21875 7.1563,-3.5625 -28.5,-14.21875 12.3437,-6.15625 28.4375,14.1875 7.1563,-3.5625 -28.4688,-14.1875 12.3438,-6.15625 28.4062,14.15625 7.1563,-3.5625 -28.4063,-14.15625 12.3438,-6.15625 28.3437,14.125 7.1563,-3.5625 -28.3438,-14.125 12.3438,-6.15625 28.2812,14.09375 7.1563,-3.5625 -28.2813,-14.125 12.3125,-6.15625 28.25,14.09375 7.1563,-3.5625 -28.25,-14.09375 12.3437,-6.15625 28.1875,14.0625 7.1563,-3.5625 -28.1875,-14.0625 12.3437,-6.15625 28.125,14.03125 7.1563,-3.5625 -28.125,-14.03125 12.3437,-6.15625 28.0625,14 7.1563,-3.5625 -28.0938,-14 12.3438,-6.15625 28.0312,13.96875 7.1563,-3.5625 -28.0313,-13.96875 8.0625,-4.03125 z"
       style="fill:#0f6e81;fill-opacity:1;stroke:none"
       inkscape:connector-curvature="0" />
    <rect
       transform="matrix(0.89442719,-0.4472136,0.89442719,0.4472136,0,0)"
       y="780.26099"
       x="680.44397"
       height="207.21898"
       width="207.21898"
       id="rect4383"
       style="fill:#64c4d9;fill-opacity:1;stroke:none" />
    <rect
       transform="matrix(0.8949854,-0.44609543,0,1,0,0)"
       y="899.92932"
       x="1678.162"
       height="200.29471"
       width="209.42595"
       id="rect4385"
       style="fill:#2da0b7;fill-opacity:1;stroke:none" />
    <rect
       style="fill:#2da0b7;fill-opacity:1;stroke:none"
       id="rect4387"
       width="209.42595"
       height="200.29471"
       x="-1657.1628"
       y="-586.76959"
       transform="matrix(-0.8949854,-0.44609543,0,1,0,0)" />
    <path
       id="path4389"
       d="m 1282.292,270.74983 -47,23.4375 257.2813,128.4375 0,-46.96875 -4.9688,-2.46875 -27.9687,13.9375 -7.1563,-3.5625 27.9688,-13.9375 -12.625,-6.3125 -18.7188,9.3125 -6.2812,-3.125 18.7187,-9.3125 -11.9687,-5.96875 -27.9688,13.9375 -7.1562,-3.5625 27.9687,-13.96875 -12.625,-6.28125 -18.7187,9.3125 -6.2813,-3.125 18.7188,-9.34375 -11.9688,-5.9375 -27.9687,13.9375 -7.1563,-3.5625 28,-13.96875 -12.6562,-6.28125 -18.7188,9.3125 -6.2812,-3.09375 18.75,-9.34375 -12,-6 -27.9688,13.96875 -7.1562,-3.5625 28,-13.96875 -12.625,-6.28125 -18.75,9.34375 -6.2813,-3.125 18.75,-9.34375 -11.9687,-6 -28,13.96875 -7.1563,-3.5625 28,-13.96875 -12.625,-6.28125 -18.75,9.34375 -6.2812,-3.125 18.75,-9.34375 -11.9375,-5.96875 -28.0313,13.96875 -7.1562,-3.5625 28.0312,-13.96875 -8.0625,-4.03125 z"
       style="fill:#bc64d9;fill-opacity:1;stroke:none"
       inkscape:connector-curvature="0" />
    <path
       inkscape:connector-curvature="0"
       style="fill:#bc64d9;fill-opacity:1;stroke:none"
       d="m 1702.5733,270.74983 47,23.4375 -257.2813,128.4375 0,-46.96875 4.9688,-2.46875 27.9687,13.9375 7.1563,-3.5625 -27.9688,-13.9375 12.625,-6.3125 18.7188,9.3125 6.2812,-3.125 -18.7187,-9.3125 11.9687,-5.96875 27.9688,13.9375 7.1562,-3.5625 -27.9687,-13.96875 12.625,-6.28125 18.7187,9.3125 6.2813,-3.125 -18.7188,-9.34375 11.9688,-5.9375 27.9687,13.9375 7.1563,-3.5625 -28,-13.96875 12.6562,-6.28125 18.7188,9.3125 6.2812,-3.09375 -18.75,-9.34375 12,-6 27.9688,13.96875 7.1562,-3.5625 -28,-13.96875 12.625,-6.28125 18.75,9.34375 6.2813,-3.125 -18.75,-9.34375 11.9687,-6 28,13.96875 7.1563,-3.5625 -28,-13.96875 12.625,-6.28125 18.75,9.34375 6.2812,-3.125 -18.75,-9.34375 11.9375,-5.96875 28.0313,13.96875 7.1562,-3.5625 -28.0312,-13.96875 8.0625,-4.03125 z"
       id="path4391" />
  </g>
</svg>
