<?xml version="1.0" encoding="UTF-8" standalone="no"?>
<svg
   xmlns:dc="http://purl.org/dc/elements/1.1/"
   xmlns:cc="http://creativecommons.org/ns#"
   xmlns:rdf="http://www.w3.org/1999/02/22-rdf-syntax-ns#"
   xmlns:svg="http://www.w3.org/2000/svg"
   xmlns="http://www.w3.org/2000/svg"
   xmlns:sodipodi="http://sodipodi.sourceforge.net/DTD/sodipodi-0.dtd"
   xmlns:inkscape="http://www.inkscape.org/namespaces/inkscape"
   version="1.1"
   x="0px"
   y="0px"
   width="100px"
   height="100px"
   viewBox="0 0 100 100"
   enable-background="new 0 0 100 100"
   xml:space="preserve"
   id="svg2"
   inkscape:version="0.48.4 r9939"
   sodipodi:docname="object.svg"
   inkscape:export-filename="C:\Users\wilkie\occam\configuration.png"
   inkscape:export-xdpi="18"
   inkscape:export-ydpi="18"><metadata
   id="metadata122"><rdf:RDF><cc:Work
       rdf:about=""><dc:format>image/svg+xml</dc:format><dc:type
         rdf:resource="http://purl.org/dc/dcmitype/StillImage" /><dc:title></dc:title></cc:Work></rdf:RDF></metadata><defs
   id="defs120" /><sodipodi:namedview
   pagecolor="#ffffff"
   bordercolor="#666666"
   borderopacity="1"
   objecttolerance="10"
   gridtolerance="10"
   guidetolerance="10"
   inkscape:pageopacity="0"
   inkscape:pageshadow="2"
   inkscape:window-width="1920"
   inkscape:window-height="1058"
   id="namedview118"
   showgrid="false"
   inkscape:zoom="2.36"
   inkscape:cx="-66.737288"
   inkscape:cy="50"
   inkscape:window-x="-8"
   inkscape:window-y="-8"
   inkscape:window-maximized="1"
   inkscape:current-layer="svg2" />


<g
   transform="matrix(0.73724388,0,0,0.73724388,-240.49808,-185.44978)"
   style="font-size:151.83480835px;font-style:normal;font-weight:normal;line-height:125%;letter-spacing:0px;word-spacing:0px;fill:#488e9c;fill-opacity:1;stroke:none;font-family:Cinzel Decorative Bold;-inkscape-font-specification:Cinzel Decorative Bold"
   id="text2993"><path
     inkscape:connector-curvature="0"
     d="m 375.45352,304.70887 c -1.95872,-8.09572 -0.96378,-15.55362 2.98484,-22.37372 3.94851,-6.81992 10.84178,-10.71961 20.67983,-11.69909 11.53314,-0.34665 20.41004,4.03486 26.63072,13.14454 6.22048,9.10986 9.3657,20.6055 9.43566,34.48694 -0.19557,15.40633 -3.99904,27.56243 -11.41043,36.46835 -7.4116,8.90595 -17.25839,13.45144 -29.54042,13.63649 -12.41318,-0.15983 -22.35968,-4.96034 -29.83952,-14.40154 -7.47992,-9.44116 -11.31781,-22.564 -11.51367,-39.36854 -0.0192,-9.35876 1.24326,-18.21738 3.78728,-26.57588 2.54396,-8.35834 6.48433,-14.90112 11.82114,-19.62838 l -0.911,-1.45912 c -12.16339,3.45181 -21.777,9.72294 -28.84084,18.81343 -7.06388,9.09065 -10.67136,20.05 -10.82246,32.87807 0.32831,17.05741 6.51365,30.6193 18.55607,40.6857 12.04237,10.06643 27.97196,15.21792 47.78882,15.4545 19.76991,-0.22165 35.61587,-5.36353 47.53792,-15.42565 11.92181,-10.0621 18.03947,-23.71458 18.35298,-40.95748 -0.24482,-12.46114 -3.47654,-22.88305 -9.69515,-31.26576 -6.21887,-8.38254 -13.95652,-14.52986 -23.21299,-18.44196 -9.25668,-3.91189 -18.56406,-5.39254 -27.92218,-4.44195 -8.63713,1.05724 -15.22335,3.81832 -19.75868,8.28327 -4.53544,4.46514 -7.23373,9.6389 -8.09489,15.5213 -0.86125,5.88257 -0.0991,11.47855 2.28644,16.78794 z"
     id="path3012" /></g></svg>