<svg xmlns="http://www.w3.org/2000/svg" width="248.596" height="73.245" viewBox="0 0 248.596 73.245"><g fill="#595A5C"><path d="M77.813 48.846h-2.474c-.707 0-1.284-.223-1.731-.671-.448-.448-.671-1.025-.671-1.731v-9.613c0-1.131-.343-1.955-1.025-2.474-.683-.518-1.449-.777-2.297-.777s-1.603.259-2.262.777c-.66.519-.99 1.343-.99 2.474v12.016h-4.948v-11.027c0-3.204.836-5.348 2.509-6.432 1.672-1.083 3.522-1.672 5.549-1.767 2.072 0 3.981.542 5.725 1.626 1.743 1.084 2.615 3.276 2.615 6.573v11.026zM92.054 48.069c-.99.519-2.039.836-3.146.954-1.107.117-2.085.177-2.934.177-1.696 0-3.18-.459-4.452-1.378-1.272-.919-1.909-2.438-1.909-4.559 0-1.979.576-3.393 1.731-4.241 1.154-.848 2.626-1.414 4.417-1.697.235 0 .518-.035.849-.106.329-.071.707-.129 1.131-.176 2.072-.283 3.11-.895 3.11-1.838 0-.707-.366-1.166-1.096-1.378-.731-.212-1.403-.318-2.014-.318-.661 0-1.249.095-1.768.283-.519.188-.896.542-1.131 1.06h-4.735c.188-1.46.848-2.661 1.979-3.604 1.272-1.083 3.086-1.626 5.442-1.626 2.639 0 4.618.449 5.937 1.343 1.367.943 2.05 2.262 2.05 3.958v6.432c0 1.885-.343 3.358-1.025 4.418-.681 1.059-1.493 1.826-2.436 2.296zm-1.131-8.694c-.66.331-1.579.637-2.756.919l-1.625.354c-.848.235-1.461.542-1.838.919-.33.519-.495 1.037-.495 1.555 0 .707.212 1.271.636 1.696.424.377 1.036.566 1.837.566 1.319 0 2.356-.377 3.11-1.132.753-.753 1.131-1.79 1.131-3.11v-1.767zM114.07 48.846h-2.474c-.707 0-1.285-.223-1.732-.671-.448-.448-.671-1.025-.671-1.731v-9.613c0-1.131-.342-1.955-1.025-2.474-.684-.518-1.449-.777-2.297-.777-.848 0-1.603.259-2.262.777-.66.519-.989 1.343-.989 2.474v12.016h-4.948v-11.027c0-3.204.836-5.348 2.509-6.432 1.672-1.083 3.522-1.672 5.548-1.767 2.073 0 3.981.542 5.725 1.626 1.743 1.084 2.615 3.276 2.615 6.573v11.026zM118.627 47.15c-.989-.849-1.696-1.99-2.121-3.429-.424-1.436-.636-2.933-.636-4.487 0-1.272.177-2.545.53-3.817.354-1.272.907-2.333 1.661-3.181 1.225-1.414 2.803-2.25 4.735-2.51 1.932-.258 3.676-.106 5.23.459 1.791.707 3.11 1.933 3.958 3.675.8 1.556 1.202 3.37 1.202 5.443 0 1.509-.166 2.804-.495 3.887-.33 1.084-.754 2.003-1.272 2.756-1.131 1.556-2.568 2.522-4.311 2.898-1.555.424-3.122.459-4.7.105-1.578-.351-2.839-.951-3.781-1.799zm3.394-12.44c-.99 1.084-1.438 2.698-1.343 4.841.093 2.145.494 3.64 1.201 4.489.283.377.778.695 1.484.954.707.259 1.425.282 2.156.07.73-.212 1.378-.742 1.943-1.59.565-.847.872-2.214.919-4.099 0-1.697-.271-2.969-.813-3.817s-1.166-1.389-1.873-1.626c-.707-.235-1.414-.247-2.121-.035s-1.225.484-1.553.813zM136.136 48.846v-21.77c0-.707.248-1.308.743-1.802s1.095-.742 1.803-.742h2.474v9.047h10.037v-9.047h5.089v24.314h-5.089v-10.814h-10.037v10.814h-5.02zM163.807 24.461v15.197c0 1.885.354 3.275 1.061 4.17.753.848 1.955 1.272 3.605 1.272 1.601 0 2.804-.424 3.604-1.272.753-.849 1.131-2.237 1.131-4.17v-15.197h5.019v15.762c0 3.017-.849 5.301-2.545 6.856-1.555 1.556-3.958 2.333-7.209 2.333-3.251 0-5.655-.777-7.209-2.333-1.696-1.555-2.545-3.839-2.545-6.856v-13.076c0-.707.248-1.331.743-1.873.496-.541 1.095-.813 1.803-.813h2.542zM180.593 48.846v-21.77c0-.707.247-1.308.741-1.802.495-.495 1.097-.742 1.803-.742h8.905c2.497 0 4.406.519 5.726 1.555 1.319 1.131 1.979 2.663 1.979 4.594 0 1.226-.26 2.261-.778 3.11-.519.802-1.248 1.438-2.19 1.909 1.225.519 2.167 1.249 2.827 2.191.611.896.919 2.074.919 3.534 0 2.357-.754 4.195-2.263 5.513-1.555 1.272-3.745 1.908-6.572 1.908h-11.097zm4.807-14.914h5.724c1.225 0 2.122-.211 2.687-.636.564-.424.849-1.083.849-1.979 0-.895-.284-1.555-.849-1.979-.472-.377-1.391-.566-2.757-.566h-5.654v5.16zm0 10.532h5.937c1.318 0 2.332-.258 3.038-.778.66-.471.99-1.272.99-2.402 0-1.132-.33-1.956-.99-2.474-.612-.47-1.649-.708-3.109-.708h-5.866v6.362z"/></g><g fill="#EF7F5C" id="prologo"><path d="M210.634 52.504c0 .533-.191.991-.571 1.372-.382.38-.839.572-1.373.572h-1.942v-14.234c0-2.667.78-4.487 2.344-5.459 1.562-.972 3.258-1.458 5.087-1.458.952 0 1.915.182 2.887.543.973.363 1.744.886 2.315 1.572 1.144 1.486 1.715 3.393 1.715 5.716 0 2.401-.571 4.344-1.715 5.832-1.143 1.448-2.611 2.172-4.402 2.172-.952 0-1.791-.172-2.515-.516-.762-.38-1.372-.971-1.829-1.771v5.659zm6.517-11.204c0-1.486-.286-2.629-.857-3.43s-1.392-1.2-2.458-1.2c-1.029 0-1.829.4-2.4 1.2-.535.725-.801 1.868-.801 3.43 0 1.449.285 2.535.857 3.258.571.8 1.391 1.201 2.458 1.201.99 0 1.772-.4 2.344-1.201s.857-1.886.857-3.258zM222.367 48.846v-7.375c0-1.486.219-2.733.657-3.744.438-1.009 1.038-1.819 1.801-2.429.724-.572 1.572-.99 2.544-1.258.973-.266 1.973-.4 3.002-.4h.571v4.059h-1.315c-1.105 0-1.925.267-2.458.8-.534.534-.8 1.372-.8 2.515v7.832h-4.002zM233.814 47.474c-.801-.686-1.372-1.609-1.715-2.772-.343-1.162-.515-2.372-.515-3.63 0-1.029.143-2.058.429-3.087.285-1.029.732-1.887 1.344-2.572.99-1.143 2.267-1.819 3.829-2.029 1.563-.209 2.974-.086 4.23.371 1.448.572 2.515 1.563 3.201 2.973.647 1.258.972 2.726.972 4.402 0 1.221-.134 2.268-.399 3.144-.268.877-.61 1.621-1.03 2.229-.914 1.258-2.076 2.039-3.486 2.344-1.258.344-2.525.372-3.802.086s-2.296-.773-3.058-1.459zm2.743-10.06c-.8.877-1.163 2.182-1.086 3.916.076 1.735.4 2.944.972 3.63.229.306.629.563 1.2.772.572.21 1.153.229 1.744.057.591-.171 1.115-.6 1.572-1.286.457-.686.704-1.791.742-3.315 0-1.372-.219-2.401-.656-3.087-.439-.686-.943-1.124-1.516-1.314-.571-.19-1.143-.2-1.714-.029-.571.169-.991.389-1.258.656z"/></g><path fill="#5BA0BD" d="M22.651 47.193l-5.674 6.498c-.876-.405-1.849-.635-2.876-.635-3.782 0-6.86 3.077-6.86 6.86 0 3.782 3.078 6.859 6.86 6.859s6.86-3.077 6.86-6.859c0-1.449-.452-2.793-1.222-3.901l5.63-6.447-2.718-2.375zm-8.55 15.973c-1.792 0-3.25-1.458-3.25-3.249 0-1.792 1.458-3.25 3.25-3.25s3.25 1.458 3.25 3.25c.001 1.791-1.458 3.249-3.25 3.249zM27.949 18.139c1.193-1.009 1.952-2.515 1.952-4.196 0-3.031-2.466-5.497-5.497-5.497s-5.497 2.466-5.497 5.497c0 3.031 2.466 5.497 5.497 5.497l.176-.005 2.048 5.421 3.377-1.276-2.056-5.441zm-5.432-4.196c0-1.041.847-1.887 1.887-1.887s1.887.847 1.887 1.887-.847 1.887-1.887 1.887-1.887-.846-1.887-1.887zM12.936 43.974l6.607-1.449-.773-3.525-6.52 1.431c-.953-1.638-2.726-2.741-4.753-2.741-3.031-.001-5.497 2.464-5.497 5.496 0 3.032 2.466 5.497 5.497 5.497 2.763-.001 5.055-2.05 5.439-4.709zm-7.326-.788c0-1.041.847-1.886 1.887-1.886 1.041 0 1.887.846 1.887 1.886s-.846 1.887-1.887 1.887c-1.04 0-1.887-.847-1.887-1.887zM43.739 17.111c3.783 0 6.861-3.077 6.861-6.859 0-3.783-3.078-6.86-6.861-6.86-3.782 0-6.859 3.077-6.859 6.86 0 2.257 1.097 4.262 2.784 5.514l-2.931 7.819 3.38 1.267 2.915-7.777c.233.024.471.036.711.036zm0-10.11c1.792 0 3.25 1.458 3.25 3.25s-1.458 3.25-3.25 3.25-3.249-1.458-3.249-3.25c0-1.791 1.457-3.25 3.249-3.25zM35.642 59.05v-6.846h-3.609v7.105c-1.95.846-3.319 2.788-3.319 5.046 0 3.032 2.466 5.497 5.497 5.497 3.032 0 5.497-2.465 5.497-5.497-.001-2.534-1.728-4.674-4.066-5.305zm-1.432 7.193c-1.04 0-1.886-.846-1.886-1.887 0-1.04.846-1.887 1.886-1.887 1.041 0 1.888.847 1.888 1.887 0 1.041-.847 1.887-1.888 1.887zM52.678 52.442c-1.078 0-2.098.25-3.007.695l-5.443-6.086-2.69 2.407 5.421 6.062c-.72 1.085-1.14 2.385-1.14 3.781 0 3.782 3.078 6.86 6.859 6.86 3.783 0 6.86-3.078 6.86-6.86s-3.077-6.859-6.86-6.859zm0 10.109c-1.792 0-3.25-1.458-3.25-3.25s1.458-3.25 3.25-3.25 3.25 1.458 3.25 3.25-1.457 3.25-3.25 3.25zM9.046 32.005c1.989 0 3.781-.851 5.035-2.207l5.279 2.729 1.658-3.208-5.268-2.723c.102-.468.156-.954.156-1.452 0-3.782-3.078-6.859-6.86-6.859-3.782 0-6.859 3.077-6.859 6.859s3.077 6.861 6.859 6.861zm0-10.109c1.792 0 3.25 1.458 3.25 3.25s-1.458 3.25-3.25 3.25-3.25-1.458-3.25-3.25 1.458-3.25 3.25-3.25zM50.118 24.188l-6.434 4.337 2.017 2.993 6.447-4.345c.916.683 2.051 1.087 3.279 1.087 3.03 0 5.497-2.465 5.497-5.497 0-3.031-2.466-5.497-5.497-5.497-3.031 0-5.497 2.466-5.497 5.497 0 .494.066.971.188 1.425zm5.309-3.31c1.04 0 1.886.846 1.886 1.887s-.846 1.887-1.886 1.887c-1.041 0-1.888-.847-1.888-1.887s.847-1.887 1.888-1.887z"/><path fill="#49889E" d="M47.295 26.091l-3.611 2.435 2.017 2.993 3.633-2.448c-.581-1.063-1.266-2.06-2.039-2.98zM41.383 21.461c-1.072-.526-2.204-.951-3.383-1.259l-1.268 3.382 3.38 1.267 1.271-3.39zM26.628 24.856l3.377-1.276-1.272-3.365c-1.178.312-2.309.738-3.38 1.268l1.275 3.373zM21.018 29.32l-2.841-1.468c-.655 1.003-1.215 2.075-1.665 3.203l2.848 1.473 1.658-3.208zM16.083 43.284l3.46-.759-.773-3.525-3.432.753c.132 1.217.385 2.398.745 3.531zM20.086 50.13c.82.882 1.727 1.683 2.707 2.389l2.577-2.951-2.719-2.375-2.565 2.937zM32.032 52.205v3.676c.448.033.901.051 1.358.051.763 0 1.514-.048 2.251-.139v-3.588h-3.609zM41.538 49.458l2.624 2.934c.971-.717 1.869-1.527 2.679-2.42l-2.613-2.921-2.69 2.407z"/><path fill="#5BA0BD" d="M33.39 20.05c-9.787 0-17.721 7.935-17.721 17.721 0 9.788 7.934 17.721 17.721 17.721 9.787 0 17.721-7.934 17.721-17.721 0-9.787-7.934-17.721-17.721-17.721zm0 30.378c-6.991 0-12.658-5.667-12.658-12.658 0-6.99 5.667-12.657 12.658-12.657 6.99 0 12.658 5.667 12.658 12.657 0 6.992-5.668 12.658-12.658 12.658zM39.414 44.752h-1.818c-.52 0-.944-.165-1.272-.494-.33-.328-.493-.753-.493-1.271v-7.063c0-.831-.251-1.436-.753-1.817-.502-.38-1.064-.571-1.687-.571s-1.178.19-1.662.571c-.485.381-.727.987-.727 1.817v8.829h-3.635v-8.103c0-2.354.614-3.929 1.843-4.726 1.229-.796 2.588-1.228 4.076-1.298 1.523 0 2.925.399 4.207 1.194 1.28.797 1.921 2.407 1.921 4.83v8.102z"/></svg>
